G04 EAGLE Gerber RS-274X export*
G75*
%MOMM*%
%FSLAX34Y34*%
%LPD*%
%IN*%
%IPPOS*%
%AMOC8*
5,1,8,0,0,1.08239X$1,22.5*%
G01*
%ADD10C,0.254000*%


D10*
X0Y100000D02*
X381Y91284D01*
X1519Y82635D01*
X3407Y74118D01*
X6031Y65798D01*
X9369Y57738D01*
X13397Y50000D01*
X18085Y42642D01*
X23396Y35721D01*
X29289Y29289D01*
X35721Y23396D01*
X42642Y18085D01*
X50000Y13397D01*
X57738Y9369D01*
X65798Y6031D01*
X74118Y3407D01*
X82635Y1519D01*
X91284Y381D01*
X100000Y0D01*
X1018706Y-1524D01*
X1027422Y-1143D01*
X1036071Y-5D01*
X1044588Y1883D01*
X1052908Y4507D01*
X1060968Y7845D01*
X1068706Y11873D01*
X1076064Y16561D01*
X1082985Y21872D01*
X1089417Y27765D01*
X1095310Y34197D01*
X1100621Y41118D01*
X1105309Y48476D01*
X1109337Y56214D01*
X1112675Y64274D01*
X1115299Y72594D01*
X1117187Y81111D01*
X1118325Y89760D01*
X1118706Y98476D01*
X1118706Y248476D01*
X1118325Y257192D01*
X1117187Y265841D01*
X1115299Y274358D01*
X1112675Y282678D01*
X1109337Y290738D01*
X1105309Y298476D01*
X1100621Y305834D01*
X1095310Y312755D01*
X1089417Y319187D01*
X1082985Y325080D01*
X1076064Y330391D01*
X1068706Y335079D01*
X1060968Y339107D01*
X1052908Y342445D01*
X1044588Y345069D01*
X1036071Y346957D01*
X1027422Y348095D01*
X1018706Y348476D01*
X100000Y350000D01*
X91284Y349619D01*
X82635Y348481D01*
X74118Y346593D01*
X65798Y343969D01*
X57738Y340631D01*
X50000Y336603D01*
X42642Y331915D01*
X35721Y326604D01*
X29289Y320711D01*
X23396Y314279D01*
X18085Y307358D01*
X13397Y300000D01*
X9369Y292262D01*
X6031Y284202D01*
X3407Y275882D01*
X1519Y267365D01*
X381Y258716D01*
X0Y250000D01*
X0Y100000D01*
X1071640Y43914D02*
X1071564Y42846D01*
X1071411Y41785D01*
X1071183Y40738D01*
X1070881Y39710D01*
X1070507Y38706D01*
X1070062Y37731D01*
X1069548Y36791D01*
X1068969Y35890D01*
X1068327Y35032D01*
X1067625Y34222D01*
X1066868Y33465D01*
X1066058Y32763D01*
X1065200Y32121D01*
X1064299Y31542D01*
X1063359Y31028D01*
X1062384Y30583D01*
X1061380Y30209D01*
X1060352Y29907D01*
X1059305Y29679D01*
X1058244Y29526D01*
X1057176Y29450D01*
X1056104Y29450D01*
X1055036Y29526D01*
X1053975Y29679D01*
X1052928Y29907D01*
X1051900Y30209D01*
X1050896Y30583D01*
X1049921Y31028D01*
X1048981Y31542D01*
X1048080Y32121D01*
X1047222Y32763D01*
X1046412Y33465D01*
X1045655Y34222D01*
X1044953Y35032D01*
X1044311Y35890D01*
X1043732Y36791D01*
X1043218Y37731D01*
X1042773Y38706D01*
X1042399Y39710D01*
X1042097Y40738D01*
X1041869Y41785D01*
X1041716Y42846D01*
X1041640Y43914D01*
X1041640Y44986D01*
X1041716Y46054D01*
X1041869Y47115D01*
X1042097Y48162D01*
X1042399Y49190D01*
X1042773Y50194D01*
X1043218Y51169D01*
X1043732Y52109D01*
X1044311Y53010D01*
X1044953Y53868D01*
X1045655Y54678D01*
X1046412Y55435D01*
X1047222Y56137D01*
X1048080Y56779D01*
X1048981Y57358D01*
X1049921Y57872D01*
X1050896Y58317D01*
X1051900Y58691D01*
X1052928Y58993D01*
X1053975Y59221D01*
X1055036Y59374D01*
X1056104Y59450D01*
X1057176Y59450D01*
X1058244Y59374D01*
X1059305Y59221D01*
X1060352Y58993D01*
X1061380Y58691D01*
X1062384Y58317D01*
X1063359Y57872D01*
X1064299Y57358D01*
X1065200Y56779D01*
X1066058Y56137D01*
X1066868Y55435D01*
X1067625Y54678D01*
X1068327Y53868D01*
X1068969Y53010D01*
X1069548Y52109D01*
X1070062Y51169D01*
X1070507Y50194D01*
X1070881Y49190D01*
X1071183Y48162D01*
X1071411Y47115D01*
X1071564Y46054D01*
X1071640Y44986D01*
X1071640Y43914D01*
X1071640Y304264D02*
X1071564Y303196D01*
X1071411Y302135D01*
X1071183Y301088D01*
X1070881Y300060D01*
X1070507Y299056D01*
X1070062Y298081D01*
X1069548Y297141D01*
X1068969Y296240D01*
X1068327Y295382D01*
X1067625Y294572D01*
X1066868Y293815D01*
X1066058Y293113D01*
X1065200Y292471D01*
X1064299Y291892D01*
X1063359Y291378D01*
X1062384Y290933D01*
X1061380Y290559D01*
X1060352Y290257D01*
X1059305Y290029D01*
X1058244Y289876D01*
X1057176Y289800D01*
X1056104Y289800D01*
X1055036Y289876D01*
X1053975Y290029D01*
X1052928Y290257D01*
X1051900Y290559D01*
X1050896Y290933D01*
X1049921Y291378D01*
X1048981Y291892D01*
X1048080Y292471D01*
X1047222Y293113D01*
X1046412Y293815D01*
X1045655Y294572D01*
X1044953Y295382D01*
X1044311Y296240D01*
X1043732Y297141D01*
X1043218Y298081D01*
X1042773Y299056D01*
X1042399Y300060D01*
X1042097Y301088D01*
X1041869Y302135D01*
X1041716Y303196D01*
X1041640Y304264D01*
X1041640Y305336D01*
X1041716Y306404D01*
X1041869Y307465D01*
X1042097Y308512D01*
X1042399Y309540D01*
X1042773Y310544D01*
X1043218Y311519D01*
X1043732Y312459D01*
X1044311Y313360D01*
X1044953Y314218D01*
X1045655Y315028D01*
X1046412Y315785D01*
X1047222Y316487D01*
X1048080Y317129D01*
X1048981Y317708D01*
X1049921Y318222D01*
X1050896Y318667D01*
X1051900Y319041D01*
X1052928Y319343D01*
X1053975Y319571D01*
X1055036Y319724D01*
X1056104Y319800D01*
X1057176Y319800D01*
X1058244Y319724D01*
X1059305Y319571D01*
X1060352Y319343D01*
X1061380Y319041D01*
X1062384Y318667D01*
X1063359Y318222D01*
X1064299Y317708D01*
X1065200Y317129D01*
X1066058Y316487D01*
X1066868Y315785D01*
X1067625Y315028D01*
X1068327Y314218D01*
X1068969Y313360D01*
X1069548Y312459D01*
X1070062Y311519D01*
X1070507Y310544D01*
X1070881Y309540D01*
X1071183Y308512D01*
X1071411Y307465D01*
X1071564Y306404D01*
X1071640Y305336D01*
X1071640Y304264D01*
X73928Y304264D02*
X73852Y303196D01*
X73699Y302135D01*
X73471Y301088D01*
X73169Y300060D01*
X72795Y299056D01*
X72350Y298081D01*
X71836Y297141D01*
X71257Y296240D01*
X70615Y295382D01*
X69913Y294572D01*
X69156Y293815D01*
X68346Y293113D01*
X67488Y292471D01*
X66587Y291892D01*
X65647Y291378D01*
X64672Y290933D01*
X63668Y290559D01*
X62640Y290257D01*
X61593Y290029D01*
X60532Y289876D01*
X59464Y289800D01*
X58392Y289800D01*
X57324Y289876D01*
X56263Y290029D01*
X55216Y290257D01*
X54188Y290559D01*
X53184Y290933D01*
X52209Y291378D01*
X51269Y291892D01*
X50368Y292471D01*
X49510Y293113D01*
X48700Y293815D01*
X47943Y294572D01*
X47241Y295382D01*
X46599Y296240D01*
X46020Y297141D01*
X45506Y298081D01*
X45061Y299056D01*
X44687Y300060D01*
X44385Y301088D01*
X44157Y302135D01*
X44004Y303196D01*
X43928Y304264D01*
X43928Y305336D01*
X44004Y306404D01*
X44157Y307465D01*
X44385Y308512D01*
X44687Y309540D01*
X45061Y310544D01*
X45506Y311519D01*
X46020Y312459D01*
X46599Y313360D01*
X47241Y314218D01*
X47943Y315028D01*
X48700Y315785D01*
X49510Y316487D01*
X50368Y317129D01*
X51269Y317708D01*
X52209Y318222D01*
X53184Y318667D01*
X54188Y319041D01*
X55216Y319343D01*
X56263Y319571D01*
X57324Y319724D01*
X58392Y319800D01*
X59464Y319800D01*
X60532Y319724D01*
X61593Y319571D01*
X62640Y319343D01*
X63668Y319041D01*
X64672Y318667D01*
X65647Y318222D01*
X66587Y317708D01*
X67488Y317129D01*
X68346Y316487D01*
X69156Y315785D01*
X69913Y315028D01*
X70615Y314218D01*
X71257Y313360D01*
X71836Y312459D01*
X72350Y311519D01*
X72795Y310544D01*
X73169Y309540D01*
X73471Y308512D01*
X73699Y307465D01*
X73852Y306404D01*
X73928Y305336D01*
X73928Y304264D01*
X73928Y43914D02*
X73852Y42846D01*
X73699Y41785D01*
X73471Y40738D01*
X73169Y39710D01*
X72795Y38706D01*
X72350Y37731D01*
X71836Y36791D01*
X71257Y35890D01*
X70615Y35032D01*
X69913Y34222D01*
X69156Y33465D01*
X68346Y32763D01*
X67488Y32121D01*
X66587Y31542D01*
X65647Y31028D01*
X64672Y30583D01*
X63668Y30209D01*
X62640Y29907D01*
X61593Y29679D01*
X60532Y29526D01*
X59464Y29450D01*
X58392Y29450D01*
X57324Y29526D01*
X56263Y29679D01*
X55216Y29907D01*
X54188Y30209D01*
X53184Y30583D01*
X52209Y31028D01*
X51269Y31542D01*
X50368Y32121D01*
X49510Y32763D01*
X48700Y33465D01*
X47943Y34222D01*
X47241Y35032D01*
X46599Y35890D01*
X46020Y36791D01*
X45506Y37731D01*
X45061Y38706D01*
X44687Y39710D01*
X44385Y40738D01*
X44157Y41785D01*
X44004Y42846D01*
X43928Y43914D01*
X43928Y44986D01*
X44004Y46054D01*
X44157Y47115D01*
X44385Y48162D01*
X44687Y49190D01*
X45061Y50194D01*
X45506Y51169D01*
X46020Y52109D01*
X46599Y53010D01*
X47241Y53868D01*
X47943Y54678D01*
X48700Y55435D01*
X49510Y56137D01*
X50368Y56779D01*
X51269Y57358D01*
X52209Y57872D01*
X53184Y58317D01*
X54188Y58691D01*
X55216Y58993D01*
X56263Y59221D01*
X57324Y59374D01*
X58392Y59450D01*
X59464Y59450D01*
X60532Y59374D01*
X61593Y59221D01*
X62640Y58993D01*
X63668Y58691D01*
X64672Y58317D01*
X65647Y57872D01*
X66587Y57358D01*
X67488Y56779D01*
X68346Y56137D01*
X69156Y55435D01*
X69913Y54678D01*
X70615Y53868D01*
X71257Y53010D01*
X71836Y52109D01*
X72350Y51169D01*
X72795Y50194D01*
X73169Y49190D01*
X73471Y48162D01*
X73699Y47115D01*
X73852Y46054D01*
X73928Y44986D01*
X73928Y43914D01*
M02*
