G04 EAGLE Gerber RS-274X export*
G75*
%MOMM*%
%FSLAX34Y34*%
%LPD*%
%IN*%
%IPPOS*%
%AMOC8*
5,1,8,0,0,1.08239X$1,22.5*%
G01*
%ADD10C,0.254000*%


D10*
X0Y100000D02*
X381Y91284D01*
X1519Y82635D01*
X3407Y74118D01*
X6031Y65798D01*
X9369Y57738D01*
X13397Y50000D01*
X18085Y42642D01*
X23396Y35721D01*
X29289Y29289D01*
X35721Y23396D01*
X42642Y18085D01*
X50000Y13397D01*
X57738Y9369D01*
X65798Y6031D01*
X74118Y3407D01*
X82635Y1519D01*
X91284Y381D01*
X100000Y0D01*
X981622Y-254D01*
X990338Y127D01*
X998987Y1265D01*
X1007504Y3153D01*
X1015824Y5777D01*
X1023884Y9115D01*
X1031622Y13143D01*
X1038980Y17831D01*
X1045901Y23142D01*
X1052333Y29035D01*
X1058226Y35467D01*
X1063537Y42388D01*
X1068225Y49746D01*
X1072253Y57484D01*
X1075591Y65544D01*
X1078215Y73864D01*
X1080103Y82381D01*
X1081241Y91030D01*
X1081622Y99746D01*
X1081622Y249746D01*
X1081241Y258462D01*
X1080103Y267111D01*
X1078215Y275628D01*
X1075591Y283948D01*
X1072253Y292008D01*
X1068225Y299746D01*
X1063537Y307104D01*
X1058226Y314025D01*
X1052333Y320457D01*
X1045901Y326350D01*
X1038980Y331661D01*
X1031622Y336349D01*
X1023884Y340377D01*
X1015824Y343715D01*
X1007504Y346339D01*
X998987Y348227D01*
X990338Y349365D01*
X981622Y349746D01*
X100000Y350000D01*
X91284Y349619D01*
X82635Y348481D01*
X74118Y346593D01*
X65798Y343969D01*
X57738Y340631D01*
X50000Y336603D01*
X42642Y331915D01*
X35721Y326604D01*
X29289Y320711D01*
X23396Y314279D01*
X18085Y307358D01*
X13397Y300000D01*
X9369Y292262D01*
X6031Y284202D01*
X3407Y275882D01*
X1519Y267365D01*
X381Y258716D01*
X0Y250000D01*
X0Y100000D01*
M02*
