G04 EAGLE Gerber RS-274X export*
G75*
%MOMM*%
%FSLAX34Y34*%
%LPD*%
%INSilkscreen Bottom*%
%IPPOS*%
%AMOC8*
5,1,8,0,0,1.08239X$1,22.5*%
G01*
%ADD10C,0.076200*%
%ADD11C,0.203200*%
%ADD12R,1.682741X0.970719*%
%ADD13R,1.679641X0.966781*%
%ADD14R,1.676809X0.965244*%
%ADD15R,1.684000X0.963131*%
%ADD16R,1.683919X0.960281*%
%ADD17C,0.050800*%
%ADD18C,0.400000*%
%ADD19C,0.127000*%
%ADD20C,0.101600*%
%ADD21C,0.152400*%

G36*
X675655Y263593D02*
X675655Y263593D01*
X675657Y263592D01*
X675700Y263612D01*
X675744Y263630D01*
X675744Y263632D01*
X675746Y263633D01*
X675779Y263718D01*
X675779Y266258D01*
X675778Y266260D01*
X675779Y266262D01*
X675759Y266305D01*
X675741Y266349D01*
X675739Y266349D01*
X675738Y266351D01*
X675653Y266384D01*
X671843Y266384D01*
X671841Y266383D01*
X671839Y266384D01*
X671796Y266364D01*
X671752Y266346D01*
X671752Y266344D01*
X671750Y266343D01*
X671717Y266258D01*
X671717Y263718D01*
X671718Y263716D01*
X671717Y263714D01*
X671737Y263671D01*
X671755Y263627D01*
X671757Y263627D01*
X671758Y263625D01*
X671843Y263592D01*
X675653Y263592D01*
X675655Y263593D01*
G37*
G36*
X482163Y245061D02*
X482163Y245061D01*
X482165Y245060D01*
X482208Y245080D01*
X482252Y245098D01*
X482252Y245100D01*
X482254Y245101D01*
X482287Y245186D01*
X482287Y247726D01*
X482286Y247728D01*
X482287Y247730D01*
X482267Y247773D01*
X482249Y247817D01*
X482247Y247817D01*
X482246Y247819D01*
X482161Y247852D01*
X478351Y247852D01*
X478349Y247851D01*
X478347Y247852D01*
X478304Y247832D01*
X478260Y247814D01*
X478260Y247812D01*
X478258Y247811D01*
X478225Y247726D01*
X478225Y245186D01*
X478226Y245184D01*
X478225Y245182D01*
X478245Y245139D01*
X478263Y245095D01*
X478265Y245095D01*
X478266Y245093D01*
X478351Y245060D01*
X482161Y245060D01*
X482163Y245061D01*
G37*
G36*
X732360Y197618D02*
X732360Y197618D01*
X732362Y197617D01*
X732405Y197637D01*
X732449Y197655D01*
X732449Y197657D01*
X732451Y197658D01*
X732484Y197743D01*
X732484Y201553D01*
X732483Y201555D01*
X732484Y201557D01*
X732464Y201600D01*
X732446Y201644D01*
X732444Y201644D01*
X732443Y201646D01*
X732358Y201679D01*
X729818Y201679D01*
X729816Y201678D01*
X729814Y201679D01*
X729771Y201659D01*
X729727Y201641D01*
X729727Y201639D01*
X729725Y201638D01*
X729692Y201553D01*
X729692Y197743D01*
X729693Y197741D01*
X729692Y197739D01*
X729712Y197696D01*
X729730Y197652D01*
X729732Y197652D01*
X729733Y197650D01*
X729818Y197617D01*
X732358Y197617D01*
X732360Y197618D01*
G37*
G36*
X625680Y189618D02*
X625680Y189618D01*
X625682Y189617D01*
X625725Y189637D01*
X625769Y189655D01*
X625769Y189657D01*
X625771Y189658D01*
X625804Y189743D01*
X625804Y193553D01*
X625803Y193555D01*
X625804Y193557D01*
X625784Y193600D01*
X625766Y193644D01*
X625764Y193644D01*
X625763Y193646D01*
X625678Y193679D01*
X623138Y193679D01*
X623136Y193678D01*
X623134Y193679D01*
X623091Y193659D01*
X623047Y193641D01*
X623047Y193639D01*
X623045Y193638D01*
X623012Y193553D01*
X623012Y189743D01*
X623013Y189741D01*
X623012Y189739D01*
X623032Y189696D01*
X623050Y189652D01*
X623052Y189652D01*
X623053Y189650D01*
X623138Y189617D01*
X625678Y189617D01*
X625680Y189618D01*
G37*
D10*
X392457Y210594D02*
X392457Y209070D01*
X392459Y208993D01*
X392465Y208916D01*
X392475Y208839D01*
X392488Y208763D01*
X392506Y208688D01*
X392527Y208614D01*
X392552Y208541D01*
X392581Y208469D01*
X392613Y208399D01*
X392648Y208330D01*
X392688Y208264D01*
X392730Y208199D01*
X392776Y208137D01*
X392825Y208077D01*
X392876Y208020D01*
X392931Y207965D01*
X392988Y207914D01*
X393048Y207865D01*
X393110Y207819D01*
X393175Y207777D01*
X393241Y207737D01*
X393310Y207702D01*
X393380Y207670D01*
X393452Y207641D01*
X393525Y207616D01*
X393599Y207595D01*
X393674Y207577D01*
X393750Y207564D01*
X393827Y207554D01*
X393904Y207548D01*
X393981Y207546D01*
X397791Y207546D01*
X397868Y207548D01*
X397945Y207554D01*
X398022Y207564D01*
X398098Y207577D01*
X398173Y207595D01*
X398247Y207616D01*
X398320Y207641D01*
X398392Y207670D01*
X398462Y207702D01*
X398531Y207737D01*
X398597Y207777D01*
X398662Y207819D01*
X398724Y207865D01*
X398784Y207914D01*
X398841Y207965D01*
X398896Y208020D01*
X398947Y208077D01*
X398996Y208137D01*
X399042Y208199D01*
X399084Y208264D01*
X399124Y208330D01*
X399159Y208399D01*
X399191Y208469D01*
X399220Y208541D01*
X399245Y208614D01*
X399266Y208688D01*
X399284Y208763D01*
X399297Y208839D01*
X399307Y208916D01*
X399313Y208993D01*
X399315Y209070D01*
X399315Y210594D01*
X397791Y213283D02*
X399315Y215188D01*
X392457Y215188D01*
X392457Y213283D02*
X392457Y217093D01*
X390503Y227635D02*
X390503Y229159D01*
X390503Y227635D02*
X390505Y227558D01*
X390511Y227481D01*
X390521Y227404D01*
X390534Y227328D01*
X390552Y227253D01*
X390573Y227179D01*
X390598Y227106D01*
X390627Y227034D01*
X390659Y226964D01*
X390694Y226895D01*
X390734Y226829D01*
X390776Y226764D01*
X390822Y226702D01*
X390871Y226642D01*
X390922Y226585D01*
X390977Y226530D01*
X391034Y226479D01*
X391094Y226430D01*
X391156Y226384D01*
X391221Y226342D01*
X391287Y226302D01*
X391356Y226267D01*
X391426Y226235D01*
X391498Y226206D01*
X391571Y226181D01*
X391645Y226160D01*
X391720Y226142D01*
X391796Y226129D01*
X391873Y226119D01*
X391950Y226113D01*
X392027Y226111D01*
X395837Y226111D01*
X395914Y226113D01*
X395991Y226119D01*
X396068Y226129D01*
X396144Y226142D01*
X396219Y226160D01*
X396293Y226181D01*
X396366Y226206D01*
X396438Y226235D01*
X396508Y226267D01*
X396577Y226302D01*
X396643Y226342D01*
X396708Y226384D01*
X396770Y226430D01*
X396830Y226479D01*
X396887Y226530D01*
X396942Y226585D01*
X396993Y226642D01*
X397042Y226702D01*
X397088Y226764D01*
X397130Y226829D01*
X397170Y226895D01*
X397205Y226964D01*
X397237Y227034D01*
X397266Y227106D01*
X397291Y227179D01*
X397312Y227253D01*
X397330Y227328D01*
X397343Y227404D01*
X397353Y227481D01*
X397359Y227558D01*
X397361Y227635D01*
X397361Y229159D01*
X397361Y233372D02*
X392027Y231848D01*
X392027Y235658D01*
X393551Y234515D02*
X390503Y234515D01*
D11*
X300600Y222840D02*
X300600Y120960D01*
D12*
X308154Y205964D03*
D13*
X308138Y188926D03*
D14*
X308124Y171900D03*
D15*
X308160Y154872D03*
D16*
X308160Y137839D03*
D17*
X290410Y230642D02*
X290410Y237754D01*
X288435Y237754D01*
X288435Y237755D02*
X288348Y237753D01*
X288260Y237747D01*
X288173Y237738D01*
X288087Y237724D01*
X288001Y237707D01*
X287917Y237686D01*
X287833Y237661D01*
X287750Y237632D01*
X287669Y237600D01*
X287589Y237565D01*
X287511Y237526D01*
X287434Y237483D01*
X287360Y237437D01*
X287288Y237388D01*
X287218Y237336D01*
X287150Y237280D01*
X287085Y237222D01*
X287022Y237161D01*
X286963Y237097D01*
X286906Y237030D01*
X286852Y236962D01*
X286801Y236890D01*
X286754Y236817D01*
X286709Y236742D01*
X286668Y236664D01*
X286631Y236585D01*
X286597Y236505D01*
X286567Y236423D01*
X286540Y236340D01*
X286517Y236255D01*
X286498Y236170D01*
X286483Y236084D01*
X286471Y235997D01*
X286463Y235910D01*
X286459Y235823D01*
X286459Y235735D01*
X286463Y235648D01*
X286471Y235561D01*
X286483Y235474D01*
X286498Y235388D01*
X286517Y235303D01*
X286540Y235218D01*
X286567Y235135D01*
X286597Y235053D01*
X286631Y234973D01*
X286668Y234894D01*
X286709Y234816D01*
X286754Y234741D01*
X286801Y234668D01*
X286852Y234596D01*
X286906Y234528D01*
X286963Y234461D01*
X287022Y234397D01*
X287085Y234336D01*
X287150Y234278D01*
X287218Y234222D01*
X287288Y234170D01*
X287360Y234121D01*
X287434Y234075D01*
X287511Y234032D01*
X287589Y233993D01*
X287669Y233958D01*
X287750Y233926D01*
X287833Y233897D01*
X287917Y233872D01*
X288001Y233851D01*
X288087Y233834D01*
X288173Y233820D01*
X288260Y233811D01*
X288348Y233805D01*
X288435Y233803D01*
X290410Y233803D01*
X283874Y232618D02*
X283874Y235779D01*
X283872Y235866D01*
X283866Y235954D01*
X283857Y236041D01*
X283843Y236127D01*
X283826Y236213D01*
X283805Y236297D01*
X283780Y236381D01*
X283751Y236464D01*
X283719Y236545D01*
X283684Y236625D01*
X283645Y236703D01*
X283602Y236780D01*
X283556Y236854D01*
X283507Y236926D01*
X283455Y236996D01*
X283399Y237064D01*
X283341Y237129D01*
X283280Y237192D01*
X283216Y237251D01*
X283149Y237308D01*
X283081Y237362D01*
X283009Y237413D01*
X282936Y237460D01*
X282861Y237505D01*
X282783Y237546D01*
X282704Y237583D01*
X282624Y237617D01*
X282542Y237647D01*
X282459Y237674D01*
X282374Y237697D01*
X282289Y237716D01*
X282203Y237731D01*
X282116Y237743D01*
X282029Y237751D01*
X281942Y237755D01*
X281854Y237755D01*
X281767Y237751D01*
X281680Y237743D01*
X281593Y237731D01*
X281507Y237716D01*
X281422Y237697D01*
X281337Y237674D01*
X281254Y237647D01*
X281172Y237617D01*
X281092Y237583D01*
X281013Y237546D01*
X280935Y237505D01*
X280860Y237460D01*
X280787Y237413D01*
X280715Y237362D01*
X280647Y237308D01*
X280580Y237251D01*
X280516Y237192D01*
X280455Y237129D01*
X280397Y237064D01*
X280341Y236996D01*
X280289Y236926D01*
X280240Y236854D01*
X280194Y236780D01*
X280151Y236703D01*
X280112Y236625D01*
X280077Y236545D01*
X280045Y236464D01*
X280016Y236381D01*
X279991Y236297D01*
X279970Y236213D01*
X279953Y236127D01*
X279939Y236041D01*
X279930Y235954D01*
X279924Y235866D01*
X279922Y235779D01*
X279923Y235779D02*
X279923Y232618D01*
X279922Y232618D02*
X279924Y232531D01*
X279930Y232443D01*
X279939Y232356D01*
X279953Y232270D01*
X279970Y232184D01*
X279991Y232100D01*
X280016Y232016D01*
X280045Y231933D01*
X280077Y231852D01*
X280112Y231772D01*
X280151Y231694D01*
X280194Y231617D01*
X280240Y231543D01*
X280289Y231471D01*
X280341Y231401D01*
X280397Y231333D01*
X280455Y231268D01*
X280516Y231205D01*
X280580Y231146D01*
X280647Y231089D01*
X280715Y231035D01*
X280787Y230984D01*
X280860Y230937D01*
X280935Y230892D01*
X281013Y230851D01*
X281092Y230814D01*
X281172Y230780D01*
X281254Y230750D01*
X281337Y230723D01*
X281422Y230700D01*
X281507Y230681D01*
X281593Y230666D01*
X281680Y230654D01*
X281767Y230646D01*
X281854Y230642D01*
X281942Y230642D01*
X282029Y230646D01*
X282116Y230654D01*
X282203Y230666D01*
X282289Y230681D01*
X282374Y230700D01*
X282459Y230723D01*
X282542Y230750D01*
X282624Y230780D01*
X282704Y230814D01*
X282783Y230851D01*
X282861Y230892D01*
X282936Y230937D01*
X283009Y230984D01*
X283081Y231035D01*
X283149Y231089D01*
X283216Y231146D01*
X283280Y231205D01*
X283341Y231268D01*
X283399Y231333D01*
X283455Y231401D01*
X283507Y231471D01*
X283556Y231543D01*
X283602Y231617D01*
X283645Y231694D01*
X283684Y231772D01*
X283719Y231852D01*
X283751Y231933D01*
X283780Y232016D01*
X283805Y232100D01*
X283826Y232184D01*
X283843Y232270D01*
X283857Y232356D01*
X283866Y232443D01*
X283872Y232531D01*
X283874Y232618D01*
X277287Y237754D02*
X275706Y230642D01*
X274126Y235383D01*
X272546Y230642D01*
X270965Y237754D01*
X268088Y230642D02*
X264927Y230642D01*
X268088Y230642D02*
X268088Y237754D01*
X264927Y237754D01*
X265717Y234593D02*
X268088Y234593D01*
X262117Y237754D02*
X262117Y230642D01*
X262117Y237754D02*
X260141Y237754D01*
X260141Y237755D02*
X260054Y237753D01*
X259966Y237747D01*
X259879Y237738D01*
X259793Y237724D01*
X259707Y237707D01*
X259623Y237686D01*
X259539Y237661D01*
X259456Y237632D01*
X259375Y237600D01*
X259295Y237565D01*
X259217Y237526D01*
X259140Y237483D01*
X259066Y237437D01*
X258994Y237388D01*
X258924Y237336D01*
X258856Y237280D01*
X258791Y237222D01*
X258728Y237161D01*
X258669Y237097D01*
X258612Y237030D01*
X258558Y236962D01*
X258507Y236890D01*
X258460Y236817D01*
X258415Y236742D01*
X258374Y236664D01*
X258337Y236585D01*
X258303Y236505D01*
X258273Y236423D01*
X258246Y236340D01*
X258223Y236255D01*
X258204Y236170D01*
X258189Y236084D01*
X258177Y235997D01*
X258169Y235910D01*
X258165Y235823D01*
X258165Y235735D01*
X258169Y235648D01*
X258177Y235561D01*
X258189Y235474D01*
X258204Y235388D01*
X258223Y235303D01*
X258246Y235218D01*
X258273Y235135D01*
X258303Y235053D01*
X258337Y234973D01*
X258374Y234894D01*
X258415Y234816D01*
X258460Y234741D01*
X258507Y234668D01*
X258558Y234596D01*
X258612Y234528D01*
X258669Y234461D01*
X258728Y234397D01*
X258791Y234336D01*
X258856Y234278D01*
X258924Y234222D01*
X258994Y234170D01*
X259066Y234121D01*
X259140Y234075D01*
X259217Y234032D01*
X259295Y233993D01*
X259375Y233958D01*
X259456Y233926D01*
X259539Y233897D01*
X259623Y233872D01*
X259707Y233851D01*
X259793Y233834D01*
X259879Y233820D01*
X259966Y233811D01*
X260054Y233805D01*
X260141Y233803D01*
X262117Y233803D01*
X259746Y233803D02*
X258165Y230642D01*
X255590Y229852D02*
X252429Y229852D01*
X247671Y230643D02*
X247593Y230645D01*
X247516Y230651D01*
X247439Y230660D01*
X247363Y230673D01*
X247287Y230690D01*
X247212Y230711D01*
X247139Y230735D01*
X247066Y230763D01*
X246995Y230795D01*
X246926Y230830D01*
X246859Y230868D01*
X246793Y230909D01*
X246730Y230954D01*
X246669Y231002D01*
X246610Y231052D01*
X246554Y231106D01*
X246500Y231162D01*
X246450Y231221D01*
X246402Y231282D01*
X246357Y231345D01*
X246316Y231411D01*
X246278Y231478D01*
X246243Y231547D01*
X246211Y231618D01*
X246183Y231691D01*
X246159Y231764D01*
X246138Y231839D01*
X246121Y231915D01*
X246108Y231991D01*
X246099Y232068D01*
X246093Y232145D01*
X246091Y232223D01*
X247671Y230642D02*
X247786Y230644D01*
X247900Y230650D01*
X248014Y230660D01*
X248128Y230673D01*
X248241Y230691D01*
X248354Y230713D01*
X248466Y230738D01*
X248577Y230767D01*
X248686Y230800D01*
X248795Y230837D01*
X248902Y230877D01*
X249008Y230921D01*
X249112Y230969D01*
X249215Y231020D01*
X249315Y231075D01*
X249414Y231133D01*
X249511Y231195D01*
X249605Y231259D01*
X249698Y231327D01*
X249788Y231399D01*
X249875Y231473D01*
X249960Y231550D01*
X250042Y231630D01*
X249843Y236174D02*
X249841Y236252D01*
X249835Y236329D01*
X249826Y236406D01*
X249813Y236482D01*
X249796Y236558D01*
X249775Y236633D01*
X249751Y236706D01*
X249723Y236779D01*
X249691Y236850D01*
X249656Y236919D01*
X249618Y236986D01*
X249577Y237052D01*
X249532Y237115D01*
X249484Y237176D01*
X249434Y237235D01*
X249380Y237291D01*
X249324Y237345D01*
X249265Y237395D01*
X249204Y237443D01*
X249141Y237488D01*
X249075Y237529D01*
X249008Y237567D01*
X248939Y237602D01*
X248868Y237634D01*
X248795Y237662D01*
X248722Y237686D01*
X248647Y237707D01*
X248571Y237724D01*
X248495Y237737D01*
X248418Y237746D01*
X248341Y237752D01*
X248263Y237754D01*
X248157Y237752D01*
X248051Y237746D01*
X247946Y237737D01*
X247841Y237724D01*
X247736Y237707D01*
X247632Y237686D01*
X247529Y237662D01*
X247427Y237634D01*
X247326Y237602D01*
X247226Y237567D01*
X247128Y237528D01*
X247030Y237485D01*
X246935Y237440D01*
X246841Y237391D01*
X246749Y237338D01*
X246659Y237282D01*
X246571Y237223D01*
X246485Y237161D01*
X249054Y234791D02*
X249121Y234833D01*
X249186Y234878D01*
X249249Y234927D01*
X249310Y234978D01*
X249367Y235033D01*
X249422Y235090D01*
X249475Y235150D01*
X249524Y235212D01*
X249570Y235277D01*
X249612Y235343D01*
X249652Y235412D01*
X249688Y235483D01*
X249720Y235556D01*
X249749Y235630D01*
X249774Y235705D01*
X249795Y235781D01*
X249813Y235859D01*
X249826Y235937D01*
X249836Y236016D01*
X249842Y236095D01*
X249844Y236174D01*
X246880Y233606D02*
X246813Y233564D01*
X246748Y233519D01*
X246685Y233470D01*
X246624Y233419D01*
X246567Y233364D01*
X246512Y233307D01*
X246459Y233247D01*
X246410Y233185D01*
X246364Y233120D01*
X246322Y233054D01*
X246282Y232985D01*
X246246Y232914D01*
X246214Y232841D01*
X246185Y232767D01*
X246160Y232692D01*
X246139Y232616D01*
X246121Y232538D01*
X246108Y232460D01*
X246098Y232381D01*
X246092Y232302D01*
X246090Y232223D01*
X246880Y233605D02*
X249054Y234791D01*
X243183Y232618D02*
X243183Y237754D01*
X243184Y232618D02*
X243182Y232531D01*
X243176Y232443D01*
X243167Y232356D01*
X243153Y232270D01*
X243136Y232184D01*
X243115Y232100D01*
X243090Y232016D01*
X243061Y231933D01*
X243029Y231852D01*
X242994Y231772D01*
X242955Y231694D01*
X242912Y231617D01*
X242866Y231543D01*
X242817Y231471D01*
X242765Y231401D01*
X242709Y231333D01*
X242651Y231268D01*
X242590Y231205D01*
X242526Y231146D01*
X242459Y231089D01*
X242391Y231035D01*
X242319Y230984D01*
X242246Y230937D01*
X242171Y230892D01*
X242093Y230851D01*
X242014Y230814D01*
X241934Y230780D01*
X241852Y230750D01*
X241769Y230723D01*
X241684Y230700D01*
X241599Y230681D01*
X241513Y230666D01*
X241426Y230654D01*
X241339Y230646D01*
X241252Y230642D01*
X241164Y230642D01*
X241077Y230646D01*
X240990Y230654D01*
X240903Y230666D01*
X240817Y230681D01*
X240732Y230700D01*
X240647Y230723D01*
X240564Y230750D01*
X240482Y230780D01*
X240402Y230814D01*
X240323Y230851D01*
X240245Y230892D01*
X240170Y230937D01*
X240097Y230984D01*
X240025Y231035D01*
X239957Y231089D01*
X239890Y231146D01*
X239826Y231205D01*
X239765Y231268D01*
X239707Y231333D01*
X239651Y231401D01*
X239599Y231471D01*
X239550Y231543D01*
X239504Y231617D01*
X239461Y231694D01*
X239422Y231772D01*
X239387Y231852D01*
X239355Y231933D01*
X239326Y232016D01*
X239301Y232100D01*
X239280Y232184D01*
X239263Y232270D01*
X239249Y232356D01*
X239240Y232443D01*
X239234Y232531D01*
X239232Y232618D01*
X239232Y237754D01*
X235775Y237754D02*
X235775Y230642D01*
X235775Y237754D02*
X233799Y237754D01*
X233799Y237755D02*
X233712Y237753D01*
X233624Y237747D01*
X233537Y237738D01*
X233451Y237724D01*
X233365Y237707D01*
X233281Y237686D01*
X233197Y237661D01*
X233114Y237632D01*
X233033Y237600D01*
X232953Y237565D01*
X232875Y237526D01*
X232798Y237483D01*
X232724Y237437D01*
X232652Y237388D01*
X232582Y237336D01*
X232514Y237280D01*
X232449Y237222D01*
X232386Y237161D01*
X232327Y237097D01*
X232270Y237030D01*
X232216Y236962D01*
X232165Y236890D01*
X232118Y236817D01*
X232073Y236742D01*
X232032Y236664D01*
X231995Y236585D01*
X231961Y236505D01*
X231931Y236423D01*
X231904Y236340D01*
X231881Y236255D01*
X231862Y236170D01*
X231847Y236084D01*
X231835Y235997D01*
X231827Y235910D01*
X231823Y235823D01*
X231823Y235735D01*
X231827Y235648D01*
X231835Y235561D01*
X231847Y235474D01*
X231862Y235388D01*
X231881Y235303D01*
X231904Y235218D01*
X231931Y235135D01*
X231961Y235053D01*
X231995Y234973D01*
X232032Y234894D01*
X232073Y234816D01*
X232118Y234741D01*
X232165Y234668D01*
X232216Y234596D01*
X232270Y234528D01*
X232327Y234461D01*
X232386Y234397D01*
X232449Y234336D01*
X232514Y234278D01*
X232582Y234222D01*
X232652Y234170D01*
X232724Y234121D01*
X232798Y234075D01*
X232875Y234032D01*
X232953Y233993D01*
X233033Y233958D01*
X233114Y233926D01*
X233197Y233897D01*
X233281Y233872D01*
X233365Y233851D01*
X233451Y233834D01*
X233537Y233820D01*
X233624Y233811D01*
X233712Y233805D01*
X233799Y233803D01*
X235775Y233803D01*
X228917Y230642D02*
X228917Y237754D01*
X226941Y237754D01*
X226941Y237755D02*
X226854Y237753D01*
X226766Y237747D01*
X226679Y237738D01*
X226593Y237724D01*
X226507Y237707D01*
X226423Y237686D01*
X226339Y237661D01*
X226256Y237632D01*
X226175Y237600D01*
X226095Y237565D01*
X226017Y237526D01*
X225940Y237483D01*
X225866Y237437D01*
X225794Y237388D01*
X225724Y237336D01*
X225656Y237280D01*
X225591Y237222D01*
X225528Y237161D01*
X225469Y237097D01*
X225412Y237030D01*
X225358Y236962D01*
X225307Y236890D01*
X225260Y236817D01*
X225215Y236742D01*
X225174Y236664D01*
X225137Y236585D01*
X225103Y236505D01*
X225073Y236423D01*
X225046Y236340D01*
X225023Y236255D01*
X225004Y236170D01*
X224989Y236084D01*
X224977Y235997D01*
X224969Y235910D01*
X224965Y235823D01*
X224965Y235735D01*
X224969Y235648D01*
X224977Y235561D01*
X224989Y235474D01*
X225004Y235388D01*
X225023Y235303D01*
X225046Y235218D01*
X225073Y235135D01*
X225103Y235053D01*
X225137Y234973D01*
X225174Y234894D01*
X225215Y234816D01*
X225260Y234741D01*
X225307Y234668D01*
X225358Y234596D01*
X225412Y234528D01*
X225469Y234461D01*
X225528Y234397D01*
X225591Y234336D01*
X225656Y234278D01*
X225724Y234222D01*
X225794Y234170D01*
X225866Y234121D01*
X225940Y234075D01*
X226017Y234032D01*
X226095Y233993D01*
X226175Y233958D01*
X226256Y233926D01*
X226339Y233897D01*
X226423Y233872D01*
X226507Y233851D01*
X226593Y233834D01*
X226679Y233820D01*
X226766Y233811D01*
X226854Y233805D01*
X226941Y233803D01*
X228917Y233803D01*
X222140Y230642D02*
X222140Y237754D01*
X222140Y230642D02*
X218979Y230642D01*
X214462Y234396D02*
X216832Y237754D01*
X214462Y234396D02*
X212091Y237754D01*
X214462Y234396D02*
X214462Y230642D01*
D18*
X975200Y32100D02*
X975202Y32189D01*
X975208Y32278D01*
X975218Y32367D01*
X975232Y32455D01*
X975249Y32542D01*
X975271Y32628D01*
X975297Y32714D01*
X975326Y32798D01*
X975359Y32881D01*
X975395Y32962D01*
X975436Y33042D01*
X975479Y33119D01*
X975526Y33195D01*
X975577Y33268D01*
X975630Y33339D01*
X975687Y33408D01*
X975747Y33474D01*
X975810Y33538D01*
X975875Y33598D01*
X975943Y33656D01*
X976014Y33710D01*
X976087Y33761D01*
X976162Y33809D01*
X976239Y33854D01*
X976318Y33895D01*
X976399Y33932D01*
X976481Y33966D01*
X976565Y33997D01*
X976650Y34023D01*
X976736Y34046D01*
X976823Y34064D01*
X976911Y34079D01*
X977000Y34090D01*
X977089Y34097D01*
X977178Y34100D01*
X977267Y34099D01*
X977356Y34094D01*
X977444Y34085D01*
X977533Y34072D01*
X977620Y34055D01*
X977707Y34035D01*
X977793Y34010D01*
X977877Y33982D01*
X977960Y33950D01*
X978042Y33914D01*
X978122Y33875D01*
X978200Y33832D01*
X978276Y33786D01*
X978350Y33736D01*
X978422Y33683D01*
X978491Y33627D01*
X978558Y33568D01*
X978622Y33506D01*
X978683Y33442D01*
X978742Y33374D01*
X978797Y33304D01*
X978849Y33232D01*
X978898Y33157D01*
X978943Y33081D01*
X978985Y33002D01*
X979023Y32922D01*
X979058Y32840D01*
X979089Y32756D01*
X979117Y32671D01*
X979140Y32585D01*
X979160Y32498D01*
X979176Y32411D01*
X979188Y32322D01*
X979196Y32234D01*
X979200Y32145D01*
X979200Y32055D01*
X979196Y31966D01*
X979188Y31878D01*
X979176Y31789D01*
X979160Y31702D01*
X979140Y31615D01*
X979117Y31529D01*
X979089Y31444D01*
X979058Y31360D01*
X979023Y31278D01*
X978985Y31198D01*
X978943Y31119D01*
X978898Y31043D01*
X978849Y30968D01*
X978797Y30896D01*
X978742Y30826D01*
X978683Y30758D01*
X978622Y30694D01*
X978558Y30632D01*
X978491Y30573D01*
X978422Y30517D01*
X978350Y30464D01*
X978276Y30414D01*
X978200Y30368D01*
X978122Y30325D01*
X978042Y30286D01*
X977960Y30250D01*
X977877Y30218D01*
X977793Y30190D01*
X977707Y30165D01*
X977620Y30145D01*
X977533Y30128D01*
X977444Y30115D01*
X977356Y30106D01*
X977267Y30101D01*
X977178Y30100D01*
X977089Y30103D01*
X977000Y30110D01*
X976911Y30121D01*
X976823Y30136D01*
X976736Y30154D01*
X976650Y30177D01*
X976565Y30203D01*
X976481Y30234D01*
X976399Y30268D01*
X976318Y30305D01*
X976239Y30346D01*
X976162Y30391D01*
X976087Y30439D01*
X976014Y30490D01*
X975943Y30544D01*
X975875Y30602D01*
X975810Y30662D01*
X975747Y30726D01*
X975687Y30792D01*
X975630Y30861D01*
X975577Y30932D01*
X975526Y31005D01*
X975479Y31081D01*
X975436Y31158D01*
X975395Y31238D01*
X975359Y31319D01*
X975326Y31402D01*
X975297Y31486D01*
X975271Y31572D01*
X975249Y31658D01*
X975232Y31745D01*
X975218Y31833D01*
X975208Y31922D01*
X975202Y32011D01*
X975200Y32100D01*
D19*
X987700Y52100D02*
X1017200Y52100D01*
X1017200Y81600D01*
X1017200Y262600D02*
X1017200Y292100D01*
X987700Y292100D01*
X806700Y292100D02*
X777200Y292100D01*
X777200Y262600D01*
X777200Y52100D02*
X806700Y52100D01*
X777200Y52100D02*
X777200Y81600D01*
D20*
X937528Y186324D02*
X937528Y194772D01*
X937527Y186324D02*
X937525Y186212D01*
X937519Y186100D01*
X937510Y185988D01*
X937496Y185877D01*
X937479Y185766D01*
X937458Y185656D01*
X937433Y185546D01*
X937404Y185438D01*
X937371Y185331D01*
X937335Y185224D01*
X937296Y185120D01*
X937252Y185016D01*
X937205Y184914D01*
X937155Y184814D01*
X937101Y184716D01*
X937044Y184619D01*
X936983Y184525D01*
X936920Y184432D01*
X936853Y184342D01*
X936783Y184255D01*
X936710Y184170D01*
X936634Y184087D01*
X936555Y184007D01*
X936474Y183930D01*
X936390Y183855D01*
X936304Y183784D01*
X936215Y183715D01*
X936124Y183650D01*
X936030Y183588D01*
X935935Y183529D01*
X935837Y183474D01*
X935738Y183422D01*
X935637Y183373D01*
X935534Y183328D01*
X935430Y183286D01*
X935325Y183248D01*
X935218Y183214D01*
X935110Y183183D01*
X935001Y183156D01*
X934891Y183133D01*
X934781Y183114D01*
X934670Y183099D01*
X934558Y183087D01*
X934446Y183079D01*
X934334Y183075D01*
X934222Y183075D01*
X934110Y183079D01*
X933998Y183087D01*
X933886Y183099D01*
X933775Y183114D01*
X933665Y183133D01*
X933555Y183156D01*
X933446Y183183D01*
X933338Y183214D01*
X933231Y183248D01*
X933126Y183286D01*
X933022Y183328D01*
X932919Y183373D01*
X932818Y183422D01*
X932719Y183474D01*
X932621Y183529D01*
X932526Y183588D01*
X932432Y183650D01*
X932341Y183715D01*
X932252Y183784D01*
X932166Y183855D01*
X932082Y183930D01*
X932001Y184007D01*
X931922Y184087D01*
X931846Y184170D01*
X931773Y184255D01*
X931703Y184342D01*
X931636Y184432D01*
X931573Y184525D01*
X931512Y184619D01*
X931455Y184716D01*
X931401Y184814D01*
X931351Y184914D01*
X931304Y185016D01*
X931260Y185120D01*
X931221Y185224D01*
X931185Y185331D01*
X931152Y185438D01*
X931123Y185546D01*
X931098Y185656D01*
X931077Y185766D01*
X931060Y185877D01*
X931046Y185988D01*
X931037Y186100D01*
X931031Y186212D01*
X931029Y186324D01*
X931029Y194772D01*
X925704Y192173D02*
X922455Y194772D01*
X922455Y183075D01*
X925704Y183075D02*
X919206Y183075D01*
D19*
X399904Y194999D02*
X399904Y199825D01*
X398563Y199825D01*
X398492Y199823D01*
X398420Y199817D01*
X398350Y199808D01*
X398280Y199795D01*
X398210Y199778D01*
X398142Y199757D01*
X398075Y199733D01*
X398009Y199705D01*
X397945Y199674D01*
X397882Y199639D01*
X397822Y199601D01*
X397763Y199560D01*
X397707Y199516D01*
X397653Y199469D01*
X397602Y199420D01*
X397554Y199367D01*
X397508Y199312D01*
X397466Y199255D01*
X397426Y199195D01*
X397390Y199134D01*
X397357Y199070D01*
X397328Y199005D01*
X397302Y198939D01*
X397279Y198871D01*
X397260Y198802D01*
X397245Y198732D01*
X397234Y198662D01*
X397226Y198591D01*
X397222Y198520D01*
X397222Y198448D01*
X397226Y198377D01*
X397234Y198306D01*
X397245Y198236D01*
X397260Y198166D01*
X397279Y198097D01*
X397302Y198029D01*
X397328Y197963D01*
X397357Y197898D01*
X397390Y197834D01*
X397426Y197773D01*
X397466Y197713D01*
X397508Y197656D01*
X397554Y197601D01*
X397602Y197548D01*
X397653Y197499D01*
X397707Y197452D01*
X397763Y197408D01*
X397822Y197367D01*
X397882Y197329D01*
X397945Y197294D01*
X398009Y197263D01*
X398075Y197235D01*
X398142Y197211D01*
X398210Y197190D01*
X398280Y197173D01*
X398350Y197160D01*
X398420Y197151D01*
X398492Y197145D01*
X398563Y197143D01*
X398563Y197144D02*
X399904Y197144D01*
X398295Y197144D02*
X397223Y194999D01*
X394481Y196071D02*
X393409Y199825D01*
X394481Y196071D02*
X391800Y196071D01*
X392604Y197144D02*
X392604Y194999D01*
X362623Y136434D02*
X357797Y136434D01*
X362623Y136434D02*
X362623Y137775D01*
X362621Y137846D01*
X362615Y137918D01*
X362606Y137988D01*
X362593Y138058D01*
X362576Y138128D01*
X362555Y138196D01*
X362531Y138263D01*
X362503Y138329D01*
X362472Y138393D01*
X362437Y138456D01*
X362399Y138516D01*
X362358Y138575D01*
X362314Y138631D01*
X362267Y138685D01*
X362218Y138736D01*
X362165Y138784D01*
X362110Y138830D01*
X362053Y138872D01*
X361993Y138912D01*
X361932Y138948D01*
X361868Y138981D01*
X361803Y139010D01*
X361737Y139036D01*
X361669Y139059D01*
X361600Y139078D01*
X361530Y139093D01*
X361460Y139104D01*
X361389Y139112D01*
X361318Y139116D01*
X361246Y139116D01*
X361175Y139112D01*
X361104Y139104D01*
X361034Y139093D01*
X360964Y139078D01*
X360895Y139059D01*
X360827Y139036D01*
X360761Y139010D01*
X360696Y138981D01*
X360632Y138948D01*
X360571Y138912D01*
X360511Y138872D01*
X360454Y138830D01*
X360399Y138784D01*
X360346Y138736D01*
X360297Y138685D01*
X360250Y138631D01*
X360206Y138575D01*
X360165Y138516D01*
X360127Y138456D01*
X360092Y138393D01*
X360061Y138329D01*
X360033Y138263D01*
X360009Y138196D01*
X359988Y138128D01*
X359971Y138058D01*
X359958Y137988D01*
X359949Y137918D01*
X359943Y137846D01*
X359941Y137775D01*
X359942Y137775D02*
X359942Y136434D01*
X359942Y138043D02*
X357797Y139115D01*
X357797Y141857D02*
X357797Y143465D01*
X357799Y143530D01*
X357805Y143594D01*
X357815Y143658D01*
X357828Y143722D01*
X357846Y143784D01*
X357867Y143845D01*
X357891Y143905D01*
X357920Y143963D01*
X357952Y144020D01*
X357987Y144074D01*
X358025Y144126D01*
X358067Y144176D01*
X358111Y144223D01*
X358158Y144267D01*
X358208Y144309D01*
X358260Y144347D01*
X358314Y144382D01*
X358371Y144414D01*
X358429Y144443D01*
X358489Y144467D01*
X358550Y144488D01*
X358612Y144506D01*
X358676Y144519D01*
X358740Y144529D01*
X358804Y144535D01*
X358869Y144537D01*
X358869Y144538D02*
X359406Y144538D01*
X359406Y144537D02*
X359471Y144535D01*
X359535Y144529D01*
X359599Y144519D01*
X359663Y144506D01*
X359725Y144488D01*
X359786Y144467D01*
X359846Y144443D01*
X359904Y144414D01*
X359961Y144382D01*
X360015Y144347D01*
X360067Y144309D01*
X360117Y144267D01*
X360164Y144223D01*
X360208Y144176D01*
X360250Y144126D01*
X360288Y144074D01*
X360323Y144020D01*
X360355Y143963D01*
X360384Y143905D01*
X360408Y143845D01*
X360429Y143784D01*
X360447Y143722D01*
X360460Y143658D01*
X360470Y143594D01*
X360476Y143530D01*
X360478Y143465D01*
X360478Y141857D01*
X362623Y141857D01*
X362623Y144538D01*
X373992Y195581D02*
X373992Y200407D01*
X372651Y200407D01*
X372580Y200405D01*
X372508Y200399D01*
X372438Y200390D01*
X372368Y200377D01*
X372298Y200360D01*
X372230Y200339D01*
X372163Y200315D01*
X372097Y200287D01*
X372033Y200256D01*
X371970Y200221D01*
X371910Y200183D01*
X371851Y200142D01*
X371795Y200098D01*
X371741Y200051D01*
X371690Y200002D01*
X371642Y199949D01*
X371596Y199894D01*
X371554Y199837D01*
X371514Y199777D01*
X371478Y199716D01*
X371445Y199652D01*
X371416Y199587D01*
X371390Y199521D01*
X371367Y199453D01*
X371348Y199384D01*
X371333Y199314D01*
X371322Y199244D01*
X371314Y199173D01*
X371310Y199102D01*
X371310Y199030D01*
X371314Y198959D01*
X371322Y198888D01*
X371333Y198818D01*
X371348Y198748D01*
X371367Y198679D01*
X371390Y198611D01*
X371416Y198545D01*
X371445Y198480D01*
X371478Y198416D01*
X371514Y198355D01*
X371554Y198295D01*
X371596Y198238D01*
X371642Y198183D01*
X371690Y198130D01*
X371741Y198081D01*
X371795Y198034D01*
X371851Y197990D01*
X371910Y197949D01*
X371970Y197911D01*
X372033Y197876D01*
X372097Y197845D01*
X372163Y197817D01*
X372230Y197793D01*
X372298Y197772D01*
X372368Y197755D01*
X372438Y197742D01*
X372508Y197733D01*
X372580Y197727D01*
X372651Y197725D01*
X372651Y197726D02*
X373992Y197726D01*
X372383Y197726D02*
X371311Y195581D01*
X368569Y198262D02*
X366961Y198262D01*
X366896Y198260D01*
X366832Y198254D01*
X366768Y198244D01*
X366704Y198231D01*
X366642Y198213D01*
X366581Y198192D01*
X366521Y198168D01*
X366463Y198139D01*
X366406Y198107D01*
X366352Y198072D01*
X366300Y198034D01*
X366250Y197992D01*
X366203Y197948D01*
X366159Y197901D01*
X366117Y197851D01*
X366079Y197799D01*
X366044Y197745D01*
X366012Y197688D01*
X365983Y197630D01*
X365959Y197570D01*
X365938Y197509D01*
X365920Y197447D01*
X365907Y197383D01*
X365897Y197319D01*
X365891Y197255D01*
X365889Y197190D01*
X365888Y197190D02*
X365888Y196922D01*
X365890Y196851D01*
X365896Y196779D01*
X365905Y196709D01*
X365918Y196639D01*
X365935Y196569D01*
X365956Y196501D01*
X365980Y196434D01*
X366008Y196368D01*
X366039Y196304D01*
X366074Y196241D01*
X366112Y196181D01*
X366153Y196122D01*
X366197Y196066D01*
X366244Y196012D01*
X366293Y195961D01*
X366346Y195913D01*
X366401Y195867D01*
X366458Y195825D01*
X366518Y195785D01*
X366579Y195749D01*
X366643Y195716D01*
X366708Y195687D01*
X366774Y195661D01*
X366842Y195638D01*
X366911Y195619D01*
X366981Y195604D01*
X367051Y195593D01*
X367122Y195585D01*
X367193Y195581D01*
X367265Y195581D01*
X367336Y195585D01*
X367407Y195593D01*
X367477Y195604D01*
X367547Y195619D01*
X367616Y195638D01*
X367684Y195661D01*
X367750Y195687D01*
X367815Y195716D01*
X367879Y195749D01*
X367940Y195785D01*
X368000Y195825D01*
X368057Y195867D01*
X368112Y195913D01*
X368165Y195961D01*
X368214Y196012D01*
X368261Y196066D01*
X368305Y196122D01*
X368346Y196181D01*
X368384Y196241D01*
X368419Y196304D01*
X368450Y196368D01*
X368478Y196434D01*
X368502Y196501D01*
X368523Y196569D01*
X368540Y196639D01*
X368553Y196709D01*
X368562Y196779D01*
X368568Y196851D01*
X368570Y196922D01*
X368569Y196922D02*
X368569Y198262D01*
X368567Y198353D01*
X368561Y198444D01*
X368552Y198534D01*
X368538Y198625D01*
X368521Y198714D01*
X368500Y198802D01*
X368475Y198890D01*
X368446Y198977D01*
X368414Y199062D01*
X368379Y199146D01*
X368339Y199228D01*
X368297Y199308D01*
X368251Y199387D01*
X368201Y199463D01*
X368149Y199537D01*
X368093Y199610D01*
X368034Y199679D01*
X367973Y199746D01*
X367908Y199811D01*
X367841Y199872D01*
X367772Y199931D01*
X367699Y199987D01*
X367625Y200039D01*
X367549Y200089D01*
X367470Y200135D01*
X367390Y200177D01*
X367308Y200217D01*
X367224Y200252D01*
X367139Y200284D01*
X367052Y200313D01*
X366964Y200338D01*
X366876Y200359D01*
X366787Y200376D01*
X366696Y200390D01*
X366606Y200399D01*
X366515Y200405D01*
X366424Y200407D01*
D17*
X101276Y328200D02*
X99695Y328200D01*
X101276Y328200D02*
X101354Y328202D01*
X101431Y328208D01*
X101508Y328217D01*
X101584Y328230D01*
X101660Y328247D01*
X101735Y328268D01*
X101808Y328292D01*
X101881Y328320D01*
X101952Y328352D01*
X102021Y328387D01*
X102088Y328425D01*
X102154Y328466D01*
X102217Y328511D01*
X102278Y328559D01*
X102337Y328609D01*
X102393Y328663D01*
X102447Y328719D01*
X102497Y328778D01*
X102545Y328839D01*
X102590Y328902D01*
X102631Y328968D01*
X102669Y329035D01*
X102704Y329104D01*
X102736Y329175D01*
X102764Y329248D01*
X102788Y329321D01*
X102809Y329396D01*
X102826Y329472D01*
X102839Y329548D01*
X102848Y329625D01*
X102854Y329702D01*
X102856Y329780D01*
X102856Y333732D01*
X102854Y333810D01*
X102848Y333887D01*
X102839Y333964D01*
X102826Y334040D01*
X102809Y334116D01*
X102788Y334191D01*
X102764Y334264D01*
X102736Y334337D01*
X102704Y334408D01*
X102669Y334477D01*
X102631Y334544D01*
X102590Y334610D01*
X102545Y334673D01*
X102497Y334734D01*
X102447Y334793D01*
X102393Y334849D01*
X102337Y334903D01*
X102278Y334953D01*
X102217Y335001D01*
X102154Y335046D01*
X102088Y335087D01*
X102021Y335125D01*
X101952Y335160D01*
X101881Y335192D01*
X101808Y335220D01*
X101735Y335244D01*
X101660Y335265D01*
X101584Y335282D01*
X101508Y335295D01*
X101431Y335304D01*
X101354Y335310D01*
X101276Y335312D01*
X99695Y335312D01*
X94950Y335312D02*
X94868Y335310D01*
X94786Y335304D01*
X94704Y335295D01*
X94623Y335282D01*
X94543Y335265D01*
X94463Y335244D01*
X94385Y335220D01*
X94308Y335192D01*
X94232Y335161D01*
X94157Y335126D01*
X94085Y335087D01*
X94014Y335046D01*
X93945Y335001D01*
X93879Y334953D01*
X93814Y334902D01*
X93752Y334848D01*
X93693Y334791D01*
X93636Y334732D01*
X93582Y334670D01*
X93531Y334605D01*
X93483Y334539D01*
X93438Y334470D01*
X93397Y334399D01*
X93358Y334327D01*
X93323Y334252D01*
X93292Y334176D01*
X93264Y334099D01*
X93240Y334021D01*
X93219Y333941D01*
X93202Y333861D01*
X93189Y333780D01*
X93180Y333698D01*
X93174Y333616D01*
X93172Y333534D01*
X94950Y335312D02*
X95043Y335310D01*
X95135Y335304D01*
X95227Y335295D01*
X95319Y335282D01*
X95410Y335265D01*
X95500Y335245D01*
X95590Y335221D01*
X95678Y335193D01*
X95766Y335161D01*
X95851Y335127D01*
X95936Y335088D01*
X96018Y335047D01*
X96099Y335002D01*
X96179Y334953D01*
X96256Y334902D01*
X96331Y334848D01*
X96403Y334790D01*
X96474Y334730D01*
X96541Y334666D01*
X96606Y334601D01*
X96669Y334532D01*
X96728Y334461D01*
X96785Y334388D01*
X96839Y334312D01*
X96889Y334235D01*
X96937Y334155D01*
X96981Y334073D01*
X97021Y333990D01*
X97059Y333905D01*
X97093Y333819D01*
X97123Y333732D01*
X93764Y332151D02*
X93703Y332212D01*
X93645Y332275D01*
X93590Y332341D01*
X93537Y332409D01*
X93488Y332480D01*
X93443Y332552D01*
X93400Y332627D01*
X93361Y332703D01*
X93325Y332782D01*
X93293Y332861D01*
X93265Y332942D01*
X93240Y333025D01*
X93219Y333108D01*
X93202Y333192D01*
X93188Y333277D01*
X93179Y333362D01*
X93173Y333448D01*
X93171Y333534D01*
X93764Y332151D02*
X97123Y328200D01*
X93172Y328200D01*
X946772Y27258D02*
X946772Y20146D01*
X948748Y27258D02*
X944797Y27258D01*
X942025Y27258D02*
X942025Y20146D01*
X942025Y27258D02*
X940050Y27258D01*
X939963Y27256D01*
X939875Y27250D01*
X939788Y27241D01*
X939702Y27227D01*
X939616Y27210D01*
X939532Y27189D01*
X939448Y27164D01*
X939365Y27135D01*
X939284Y27103D01*
X939204Y27068D01*
X939126Y27029D01*
X939049Y26986D01*
X938975Y26940D01*
X938903Y26891D01*
X938833Y26839D01*
X938765Y26783D01*
X938700Y26725D01*
X938637Y26664D01*
X938578Y26600D01*
X938521Y26533D01*
X938467Y26465D01*
X938416Y26393D01*
X938369Y26320D01*
X938324Y26245D01*
X938283Y26167D01*
X938246Y26088D01*
X938212Y26008D01*
X938182Y25926D01*
X938155Y25843D01*
X938132Y25758D01*
X938113Y25673D01*
X938098Y25587D01*
X938086Y25500D01*
X938078Y25413D01*
X938074Y25326D01*
X938074Y25238D01*
X938078Y25151D01*
X938086Y25064D01*
X938098Y24977D01*
X938113Y24891D01*
X938132Y24806D01*
X938155Y24721D01*
X938182Y24638D01*
X938212Y24556D01*
X938246Y24476D01*
X938283Y24397D01*
X938324Y24319D01*
X938369Y24244D01*
X938416Y24171D01*
X938467Y24099D01*
X938521Y24031D01*
X938578Y23964D01*
X938637Y23900D01*
X938700Y23839D01*
X938765Y23781D01*
X938833Y23725D01*
X938903Y23673D01*
X938975Y23624D01*
X939049Y23578D01*
X939126Y23535D01*
X939204Y23496D01*
X939284Y23461D01*
X939365Y23429D01*
X939448Y23400D01*
X939532Y23375D01*
X939616Y23354D01*
X939702Y23337D01*
X939788Y23323D01*
X939875Y23314D01*
X939963Y23308D01*
X940050Y23306D01*
X940050Y23307D02*
X942025Y23307D01*
X935489Y25678D02*
X933514Y27258D01*
X933514Y20146D01*
X935489Y20146D02*
X931538Y20146D01*
D21*
X640664Y174564D02*
X640664Y177866D01*
X640664Y248732D02*
X643966Y248732D01*
X714832Y248732D02*
X714832Y245430D01*
X714832Y174564D02*
X711530Y174564D01*
X643966Y174564D02*
X640664Y174564D01*
X640664Y245430D02*
X640664Y248732D01*
X711530Y248732D02*
X714832Y248732D01*
X714832Y177866D02*
X714832Y174564D01*
D10*
X716215Y153955D02*
X712236Y153955D01*
X709251Y156276D01*
X712236Y153955D02*
X709251Y151633D01*
X712236Y153955D02*
X713562Y157602D01*
X712236Y153955D02*
X713562Y150307D01*
D17*
X733740Y247924D02*
X733740Y253060D01*
X733740Y247924D02*
X733738Y247837D01*
X733732Y247749D01*
X733723Y247662D01*
X733709Y247576D01*
X733692Y247490D01*
X733671Y247406D01*
X733646Y247322D01*
X733617Y247239D01*
X733585Y247158D01*
X733550Y247078D01*
X733511Y247000D01*
X733468Y246923D01*
X733422Y246849D01*
X733373Y246777D01*
X733321Y246707D01*
X733265Y246639D01*
X733207Y246574D01*
X733146Y246511D01*
X733082Y246452D01*
X733015Y246395D01*
X732947Y246341D01*
X732875Y246290D01*
X732802Y246243D01*
X732727Y246198D01*
X732649Y246157D01*
X732570Y246120D01*
X732490Y246086D01*
X732408Y246056D01*
X732325Y246029D01*
X732240Y246006D01*
X732155Y245987D01*
X732069Y245972D01*
X731982Y245960D01*
X731895Y245952D01*
X731808Y245948D01*
X731720Y245948D01*
X731633Y245952D01*
X731546Y245960D01*
X731459Y245972D01*
X731373Y245987D01*
X731288Y246006D01*
X731203Y246029D01*
X731120Y246056D01*
X731038Y246086D01*
X730958Y246120D01*
X730879Y246157D01*
X730801Y246198D01*
X730726Y246243D01*
X730653Y246290D01*
X730581Y246341D01*
X730513Y246395D01*
X730446Y246452D01*
X730382Y246511D01*
X730321Y246574D01*
X730263Y246639D01*
X730207Y246707D01*
X730155Y246777D01*
X730106Y246849D01*
X730060Y246923D01*
X730017Y247000D01*
X729978Y247078D01*
X729943Y247158D01*
X729911Y247239D01*
X729882Y247322D01*
X729857Y247406D01*
X729836Y247490D01*
X729819Y247576D01*
X729805Y247662D01*
X729796Y247749D01*
X729790Y247837D01*
X729788Y247924D01*
X729789Y247924D02*
X729789Y253060D01*
X724480Y253060D02*
X724398Y253058D01*
X724316Y253052D01*
X724234Y253043D01*
X724153Y253030D01*
X724073Y253013D01*
X723993Y252992D01*
X723915Y252968D01*
X723838Y252940D01*
X723762Y252909D01*
X723687Y252874D01*
X723615Y252835D01*
X723544Y252794D01*
X723475Y252749D01*
X723409Y252701D01*
X723344Y252650D01*
X723282Y252596D01*
X723223Y252539D01*
X723166Y252480D01*
X723112Y252418D01*
X723061Y252353D01*
X723013Y252287D01*
X722968Y252218D01*
X722927Y252147D01*
X722888Y252075D01*
X722853Y252000D01*
X722822Y251924D01*
X722794Y251847D01*
X722770Y251769D01*
X722749Y251689D01*
X722732Y251609D01*
X722719Y251528D01*
X722710Y251446D01*
X722704Y251364D01*
X722702Y251282D01*
X724480Y253060D02*
X724573Y253058D01*
X724665Y253052D01*
X724757Y253043D01*
X724849Y253030D01*
X724940Y253013D01*
X725030Y252993D01*
X725120Y252969D01*
X725208Y252941D01*
X725296Y252909D01*
X725381Y252875D01*
X725466Y252836D01*
X725548Y252795D01*
X725629Y252750D01*
X725709Y252701D01*
X725786Y252650D01*
X725861Y252596D01*
X725933Y252538D01*
X726004Y252478D01*
X726071Y252414D01*
X726136Y252349D01*
X726199Y252280D01*
X726258Y252209D01*
X726315Y252136D01*
X726369Y252060D01*
X726419Y251983D01*
X726467Y251903D01*
X726511Y251821D01*
X726551Y251738D01*
X726589Y251653D01*
X726623Y251567D01*
X726653Y251480D01*
X723295Y249899D02*
X723234Y249960D01*
X723176Y250023D01*
X723121Y250089D01*
X723068Y250157D01*
X723019Y250228D01*
X722974Y250300D01*
X722931Y250375D01*
X722892Y250451D01*
X722856Y250530D01*
X722824Y250609D01*
X722796Y250690D01*
X722771Y250773D01*
X722750Y250856D01*
X722733Y250940D01*
X722719Y251025D01*
X722710Y251110D01*
X722704Y251196D01*
X722702Y251282D01*
X723295Y249899D02*
X726653Y245948D01*
X722702Y245948D01*
D21*
X460698Y229438D02*
X460698Y186766D01*
X563314Y186766D02*
X563314Y229438D01*
D10*
X557585Y190287D02*
X553606Y190287D01*
X550621Y192608D01*
X553606Y190287D02*
X550621Y187965D01*
X553606Y190287D02*
X554932Y193934D01*
X553606Y190287D02*
X554932Y186639D01*
X517975Y175717D02*
X509353Y175717D01*
X509239Y175719D01*
X509124Y175725D01*
X509010Y175735D01*
X508897Y175749D01*
X508783Y175766D01*
X508671Y175788D01*
X508559Y175813D01*
X508449Y175843D01*
X508339Y175876D01*
X508231Y175913D01*
X508124Y175953D01*
X508018Y175998D01*
X507914Y176045D01*
X507812Y176097D01*
X507712Y176152D01*
X507613Y176210D01*
X507517Y176272D01*
X507422Y176337D01*
X507331Y176405D01*
X507241Y176477D01*
X507154Y176551D01*
X507070Y176628D01*
X506988Y176709D01*
X506909Y176792D01*
X506833Y176877D01*
X506760Y176966D01*
X506691Y177056D01*
X506624Y177149D01*
X506561Y177245D01*
X506501Y177342D01*
X506444Y177442D01*
X506391Y177543D01*
X506341Y177646D01*
X506295Y177751D01*
X506252Y177857D01*
X506214Y177965D01*
X506179Y178074D01*
X506148Y178184D01*
X506120Y178295D01*
X506097Y178407D01*
X506077Y178520D01*
X506061Y178633D01*
X506049Y178747D01*
X506041Y178861D01*
X506037Y178976D01*
X506037Y179090D01*
X506041Y179205D01*
X506049Y179319D01*
X506061Y179433D01*
X506077Y179546D01*
X506097Y179659D01*
X506120Y179771D01*
X506148Y179882D01*
X506179Y179992D01*
X506214Y180101D01*
X506252Y180209D01*
X506295Y180315D01*
X506341Y180420D01*
X506391Y180523D01*
X506444Y180624D01*
X506501Y180724D01*
X506561Y180821D01*
X506624Y180917D01*
X506691Y181010D01*
X506760Y181100D01*
X506833Y181189D01*
X506909Y181274D01*
X506988Y181357D01*
X507070Y181438D01*
X507154Y181515D01*
X507241Y181589D01*
X507331Y181661D01*
X507422Y181729D01*
X507517Y181794D01*
X507613Y181856D01*
X507712Y181914D01*
X507812Y181969D01*
X507914Y182021D01*
X508018Y182068D01*
X508124Y182113D01*
X508231Y182153D01*
X508339Y182190D01*
X508449Y182223D01*
X508559Y182253D01*
X508671Y182278D01*
X508783Y182300D01*
X508897Y182317D01*
X509010Y182331D01*
X509124Y182341D01*
X509239Y182347D01*
X509353Y182349D01*
X517975Y182349D01*
X517975Y190181D02*
X508690Y187528D01*
X508690Y194160D01*
X511343Y192171D02*
X506037Y192171D01*
D17*
X1046535Y268691D02*
X1046535Y275803D01*
X1044560Y275803D02*
X1048511Y275803D01*
X1041788Y275803D02*
X1041788Y268691D01*
X1041788Y275803D02*
X1039813Y275803D01*
X1039726Y275801D01*
X1039638Y275795D01*
X1039551Y275786D01*
X1039465Y275772D01*
X1039379Y275755D01*
X1039295Y275734D01*
X1039211Y275709D01*
X1039128Y275680D01*
X1039047Y275648D01*
X1038967Y275613D01*
X1038889Y275574D01*
X1038812Y275531D01*
X1038738Y275485D01*
X1038666Y275436D01*
X1038596Y275384D01*
X1038528Y275328D01*
X1038463Y275270D01*
X1038400Y275209D01*
X1038341Y275145D01*
X1038284Y275078D01*
X1038230Y275010D01*
X1038179Y274938D01*
X1038132Y274865D01*
X1038087Y274790D01*
X1038046Y274712D01*
X1038009Y274633D01*
X1037975Y274553D01*
X1037945Y274471D01*
X1037918Y274388D01*
X1037895Y274303D01*
X1037876Y274218D01*
X1037861Y274132D01*
X1037849Y274045D01*
X1037841Y273958D01*
X1037837Y273871D01*
X1037837Y273783D01*
X1037841Y273696D01*
X1037849Y273609D01*
X1037861Y273522D01*
X1037876Y273436D01*
X1037895Y273351D01*
X1037918Y273266D01*
X1037945Y273183D01*
X1037975Y273101D01*
X1038009Y273021D01*
X1038046Y272942D01*
X1038087Y272864D01*
X1038132Y272789D01*
X1038179Y272716D01*
X1038230Y272644D01*
X1038284Y272576D01*
X1038341Y272509D01*
X1038400Y272445D01*
X1038463Y272384D01*
X1038528Y272326D01*
X1038596Y272270D01*
X1038666Y272218D01*
X1038738Y272169D01*
X1038812Y272123D01*
X1038889Y272080D01*
X1038967Y272041D01*
X1039047Y272006D01*
X1039128Y271974D01*
X1039211Y271945D01*
X1039295Y271920D01*
X1039379Y271899D01*
X1039465Y271882D01*
X1039551Y271868D01*
X1039638Y271859D01*
X1039726Y271853D01*
X1039813Y271851D01*
X1039813Y271852D02*
X1041788Y271852D01*
X1033079Y275803D02*
X1032997Y275801D01*
X1032915Y275795D01*
X1032833Y275786D01*
X1032752Y275773D01*
X1032672Y275756D01*
X1032592Y275735D01*
X1032514Y275711D01*
X1032437Y275683D01*
X1032361Y275652D01*
X1032286Y275617D01*
X1032214Y275578D01*
X1032143Y275537D01*
X1032074Y275492D01*
X1032008Y275444D01*
X1031943Y275393D01*
X1031881Y275339D01*
X1031822Y275282D01*
X1031765Y275223D01*
X1031711Y275161D01*
X1031660Y275096D01*
X1031612Y275030D01*
X1031567Y274961D01*
X1031526Y274890D01*
X1031487Y274818D01*
X1031452Y274743D01*
X1031421Y274667D01*
X1031393Y274590D01*
X1031369Y274512D01*
X1031348Y274432D01*
X1031331Y274352D01*
X1031318Y274271D01*
X1031309Y274189D01*
X1031303Y274107D01*
X1031301Y274025D01*
X1033079Y275803D02*
X1033172Y275801D01*
X1033264Y275795D01*
X1033356Y275786D01*
X1033448Y275773D01*
X1033539Y275756D01*
X1033629Y275736D01*
X1033719Y275712D01*
X1033807Y275684D01*
X1033895Y275652D01*
X1033980Y275618D01*
X1034065Y275579D01*
X1034147Y275538D01*
X1034228Y275493D01*
X1034308Y275444D01*
X1034385Y275393D01*
X1034460Y275339D01*
X1034532Y275281D01*
X1034603Y275221D01*
X1034670Y275157D01*
X1034735Y275092D01*
X1034798Y275023D01*
X1034857Y274952D01*
X1034914Y274879D01*
X1034968Y274803D01*
X1035018Y274726D01*
X1035066Y274646D01*
X1035110Y274564D01*
X1035150Y274481D01*
X1035188Y274396D01*
X1035222Y274310D01*
X1035252Y274223D01*
X1031894Y272642D02*
X1031833Y272703D01*
X1031775Y272766D01*
X1031720Y272832D01*
X1031667Y272900D01*
X1031618Y272971D01*
X1031573Y273043D01*
X1031530Y273118D01*
X1031491Y273194D01*
X1031455Y273273D01*
X1031423Y273352D01*
X1031395Y273433D01*
X1031370Y273516D01*
X1031349Y273599D01*
X1031332Y273683D01*
X1031318Y273768D01*
X1031309Y273853D01*
X1031303Y273939D01*
X1031301Y274025D01*
X1031894Y272642D02*
X1035252Y268691D01*
X1031301Y268691D01*
X128501Y271183D02*
X128501Y264071D01*
X130477Y271183D02*
X126526Y271183D01*
X123754Y271183D02*
X123754Y264071D01*
X123754Y271183D02*
X121779Y271183D01*
X121692Y271181D01*
X121604Y271175D01*
X121517Y271166D01*
X121431Y271152D01*
X121345Y271135D01*
X121261Y271114D01*
X121177Y271089D01*
X121094Y271060D01*
X121013Y271028D01*
X120933Y270993D01*
X120855Y270954D01*
X120778Y270911D01*
X120704Y270865D01*
X120632Y270816D01*
X120562Y270764D01*
X120494Y270708D01*
X120429Y270650D01*
X120366Y270589D01*
X120307Y270525D01*
X120250Y270458D01*
X120196Y270390D01*
X120145Y270318D01*
X120098Y270245D01*
X120053Y270170D01*
X120012Y270092D01*
X119975Y270013D01*
X119941Y269933D01*
X119911Y269851D01*
X119884Y269768D01*
X119861Y269683D01*
X119842Y269598D01*
X119827Y269512D01*
X119815Y269425D01*
X119807Y269338D01*
X119803Y269251D01*
X119803Y269163D01*
X119807Y269076D01*
X119815Y268989D01*
X119827Y268902D01*
X119842Y268816D01*
X119861Y268731D01*
X119884Y268646D01*
X119911Y268563D01*
X119941Y268481D01*
X119975Y268401D01*
X120012Y268322D01*
X120053Y268244D01*
X120098Y268169D01*
X120145Y268096D01*
X120196Y268024D01*
X120250Y267956D01*
X120307Y267889D01*
X120366Y267825D01*
X120429Y267764D01*
X120494Y267706D01*
X120562Y267650D01*
X120632Y267598D01*
X120704Y267549D01*
X120778Y267503D01*
X120855Y267460D01*
X120933Y267421D01*
X121013Y267386D01*
X121094Y267354D01*
X121177Y267325D01*
X121261Y267300D01*
X121345Y267279D01*
X121431Y267262D01*
X121517Y267248D01*
X121604Y267239D01*
X121692Y267233D01*
X121779Y267231D01*
X121779Y267232D02*
X123754Y267232D01*
X117218Y264071D02*
X115243Y264071D01*
X115156Y264073D01*
X115068Y264079D01*
X114981Y264088D01*
X114895Y264102D01*
X114809Y264119D01*
X114725Y264140D01*
X114641Y264165D01*
X114558Y264194D01*
X114477Y264226D01*
X114397Y264261D01*
X114319Y264300D01*
X114242Y264343D01*
X114168Y264389D01*
X114096Y264438D01*
X114026Y264490D01*
X113958Y264546D01*
X113893Y264604D01*
X113830Y264665D01*
X113771Y264729D01*
X113714Y264796D01*
X113660Y264864D01*
X113609Y264936D01*
X113562Y265009D01*
X113517Y265084D01*
X113476Y265162D01*
X113439Y265241D01*
X113405Y265321D01*
X113375Y265403D01*
X113348Y265486D01*
X113325Y265571D01*
X113306Y265656D01*
X113291Y265742D01*
X113279Y265829D01*
X113271Y265916D01*
X113267Y266003D01*
X113267Y266091D01*
X113271Y266178D01*
X113279Y266265D01*
X113291Y266352D01*
X113306Y266438D01*
X113325Y266523D01*
X113348Y266608D01*
X113375Y266691D01*
X113405Y266773D01*
X113439Y266853D01*
X113476Y266932D01*
X113517Y267010D01*
X113562Y267085D01*
X113609Y267158D01*
X113660Y267230D01*
X113714Y267298D01*
X113771Y267365D01*
X113830Y267429D01*
X113893Y267490D01*
X113958Y267548D01*
X114026Y267604D01*
X114096Y267656D01*
X114168Y267705D01*
X114242Y267751D01*
X114319Y267794D01*
X114397Y267833D01*
X114477Y267868D01*
X114558Y267900D01*
X114641Y267929D01*
X114725Y267954D01*
X114809Y267975D01*
X114895Y267992D01*
X114981Y268006D01*
X115068Y268015D01*
X115156Y268021D01*
X115243Y268023D01*
X114848Y271183D02*
X117218Y271183D01*
X114848Y271183D02*
X114769Y271181D01*
X114691Y271175D01*
X114613Y271165D01*
X114535Y271152D01*
X114458Y271134D01*
X114382Y271113D01*
X114308Y271088D01*
X114234Y271059D01*
X114162Y271027D01*
X114092Y270991D01*
X114024Y270951D01*
X113958Y270908D01*
X113894Y270862D01*
X113832Y270813D01*
X113773Y270761D01*
X113717Y270706D01*
X113663Y270648D01*
X113613Y270588D01*
X113565Y270525D01*
X113521Y270460D01*
X113480Y270393D01*
X113442Y270324D01*
X113408Y270253D01*
X113377Y270180D01*
X113350Y270106D01*
X113327Y270031D01*
X113308Y269955D01*
X113292Y269877D01*
X113280Y269799D01*
X113272Y269721D01*
X113268Y269642D01*
X113268Y269564D01*
X113272Y269485D01*
X113280Y269407D01*
X113292Y269329D01*
X113308Y269251D01*
X113327Y269175D01*
X113350Y269100D01*
X113377Y269026D01*
X113408Y268953D01*
X113442Y268882D01*
X113480Y268813D01*
X113521Y268746D01*
X113565Y268681D01*
X113613Y268618D01*
X113663Y268558D01*
X113717Y268500D01*
X113773Y268445D01*
X113832Y268393D01*
X113894Y268344D01*
X113958Y268298D01*
X114024Y268255D01*
X114092Y268215D01*
X114162Y268179D01*
X114234Y268147D01*
X114308Y268118D01*
X114382Y268093D01*
X114458Y268072D01*
X114535Y268054D01*
X114613Y268041D01*
X114691Y268031D01*
X114769Y268025D01*
X114848Y268023D01*
X114848Y268022D02*
X116428Y268022D01*
X97259Y272199D02*
X97259Y279311D01*
X95284Y279311D02*
X99235Y279311D01*
X92512Y279311D02*
X92512Y272199D01*
X92512Y279311D02*
X90537Y279311D01*
X90450Y279309D01*
X90362Y279303D01*
X90275Y279294D01*
X90189Y279280D01*
X90103Y279263D01*
X90019Y279242D01*
X89935Y279217D01*
X89852Y279188D01*
X89771Y279156D01*
X89691Y279121D01*
X89613Y279082D01*
X89536Y279039D01*
X89462Y278993D01*
X89390Y278944D01*
X89320Y278892D01*
X89252Y278836D01*
X89187Y278778D01*
X89124Y278717D01*
X89065Y278653D01*
X89008Y278586D01*
X88954Y278518D01*
X88903Y278446D01*
X88856Y278373D01*
X88811Y278298D01*
X88770Y278220D01*
X88733Y278141D01*
X88699Y278061D01*
X88669Y277979D01*
X88642Y277896D01*
X88619Y277811D01*
X88600Y277726D01*
X88585Y277640D01*
X88573Y277553D01*
X88565Y277466D01*
X88561Y277379D01*
X88561Y277291D01*
X88565Y277204D01*
X88573Y277117D01*
X88585Y277030D01*
X88600Y276944D01*
X88619Y276859D01*
X88642Y276774D01*
X88669Y276691D01*
X88699Y276609D01*
X88733Y276529D01*
X88770Y276450D01*
X88811Y276372D01*
X88856Y276297D01*
X88903Y276224D01*
X88954Y276152D01*
X89008Y276084D01*
X89065Y276017D01*
X89124Y275953D01*
X89187Y275892D01*
X89252Y275834D01*
X89320Y275778D01*
X89390Y275726D01*
X89462Y275677D01*
X89536Y275631D01*
X89613Y275588D01*
X89691Y275549D01*
X89771Y275514D01*
X89852Y275482D01*
X89935Y275453D01*
X90019Y275428D01*
X90103Y275407D01*
X90189Y275390D01*
X90275Y275376D01*
X90362Y275367D01*
X90450Y275361D01*
X90537Y275359D01*
X90537Y275360D02*
X92512Y275360D01*
X85976Y273779D02*
X84396Y279311D01*
X85976Y273779D02*
X82025Y273779D01*
X83211Y272199D02*
X83211Y275360D01*
X1046457Y224193D02*
X1046457Y217081D01*
X1048433Y224193D02*
X1044482Y224193D01*
X1041710Y224193D02*
X1041710Y217081D01*
X1041710Y224193D02*
X1039735Y224193D01*
X1039648Y224191D01*
X1039560Y224185D01*
X1039473Y224176D01*
X1039387Y224162D01*
X1039301Y224145D01*
X1039217Y224124D01*
X1039133Y224099D01*
X1039050Y224070D01*
X1038969Y224038D01*
X1038889Y224003D01*
X1038811Y223964D01*
X1038734Y223921D01*
X1038660Y223875D01*
X1038588Y223826D01*
X1038518Y223774D01*
X1038450Y223718D01*
X1038385Y223660D01*
X1038322Y223599D01*
X1038263Y223535D01*
X1038206Y223468D01*
X1038152Y223400D01*
X1038101Y223328D01*
X1038054Y223255D01*
X1038009Y223180D01*
X1037968Y223102D01*
X1037931Y223023D01*
X1037897Y222943D01*
X1037867Y222861D01*
X1037840Y222778D01*
X1037817Y222693D01*
X1037798Y222608D01*
X1037783Y222522D01*
X1037771Y222435D01*
X1037763Y222348D01*
X1037759Y222261D01*
X1037759Y222173D01*
X1037763Y222086D01*
X1037771Y221999D01*
X1037783Y221912D01*
X1037798Y221826D01*
X1037817Y221741D01*
X1037840Y221656D01*
X1037867Y221573D01*
X1037897Y221491D01*
X1037931Y221411D01*
X1037968Y221332D01*
X1038009Y221254D01*
X1038054Y221179D01*
X1038101Y221106D01*
X1038152Y221034D01*
X1038206Y220966D01*
X1038263Y220899D01*
X1038322Y220835D01*
X1038385Y220774D01*
X1038450Y220716D01*
X1038518Y220660D01*
X1038588Y220608D01*
X1038660Y220559D01*
X1038734Y220513D01*
X1038811Y220470D01*
X1038889Y220431D01*
X1038969Y220396D01*
X1039050Y220364D01*
X1039133Y220335D01*
X1039217Y220310D01*
X1039301Y220289D01*
X1039387Y220272D01*
X1039473Y220258D01*
X1039560Y220249D01*
X1039648Y220243D01*
X1039735Y220241D01*
X1039735Y220242D02*
X1041710Y220242D01*
X1035174Y217081D02*
X1032804Y217081D01*
X1032726Y217083D01*
X1032649Y217089D01*
X1032572Y217098D01*
X1032496Y217111D01*
X1032420Y217128D01*
X1032345Y217149D01*
X1032272Y217173D01*
X1032199Y217201D01*
X1032128Y217233D01*
X1032059Y217268D01*
X1031992Y217306D01*
X1031926Y217347D01*
X1031863Y217392D01*
X1031802Y217440D01*
X1031743Y217490D01*
X1031687Y217544D01*
X1031633Y217600D01*
X1031583Y217659D01*
X1031535Y217720D01*
X1031490Y217783D01*
X1031449Y217849D01*
X1031411Y217916D01*
X1031376Y217985D01*
X1031344Y218056D01*
X1031316Y218129D01*
X1031292Y218202D01*
X1031271Y218277D01*
X1031254Y218353D01*
X1031241Y218429D01*
X1031232Y218506D01*
X1031226Y218583D01*
X1031224Y218661D01*
X1031223Y218661D02*
X1031223Y219452D01*
X1031224Y219452D02*
X1031226Y219530D01*
X1031232Y219607D01*
X1031241Y219684D01*
X1031254Y219760D01*
X1031271Y219836D01*
X1031292Y219911D01*
X1031316Y219984D01*
X1031344Y220057D01*
X1031376Y220128D01*
X1031411Y220197D01*
X1031449Y220264D01*
X1031490Y220330D01*
X1031535Y220393D01*
X1031583Y220454D01*
X1031633Y220513D01*
X1031687Y220569D01*
X1031743Y220623D01*
X1031802Y220673D01*
X1031863Y220721D01*
X1031926Y220766D01*
X1031992Y220807D01*
X1032059Y220845D01*
X1032128Y220880D01*
X1032199Y220912D01*
X1032272Y220940D01*
X1032345Y220964D01*
X1032420Y220985D01*
X1032496Y221002D01*
X1032572Y221015D01*
X1032649Y221024D01*
X1032726Y221030D01*
X1032804Y221032D01*
X1035174Y221032D01*
X1035174Y224193D01*
X1031223Y224193D01*
X399519Y123355D02*
X399519Y116243D01*
X401495Y123355D02*
X397544Y123355D01*
X394772Y123355D02*
X394772Y116243D01*
X394772Y123355D02*
X392797Y123355D01*
X392710Y123353D01*
X392622Y123347D01*
X392535Y123338D01*
X392449Y123324D01*
X392363Y123307D01*
X392279Y123286D01*
X392195Y123261D01*
X392112Y123232D01*
X392031Y123200D01*
X391951Y123165D01*
X391873Y123126D01*
X391796Y123083D01*
X391722Y123037D01*
X391650Y122988D01*
X391580Y122936D01*
X391512Y122880D01*
X391447Y122822D01*
X391384Y122761D01*
X391325Y122697D01*
X391268Y122630D01*
X391214Y122562D01*
X391163Y122490D01*
X391116Y122417D01*
X391071Y122342D01*
X391030Y122264D01*
X390993Y122185D01*
X390959Y122105D01*
X390929Y122023D01*
X390902Y121940D01*
X390879Y121855D01*
X390860Y121770D01*
X390845Y121684D01*
X390833Y121597D01*
X390825Y121510D01*
X390821Y121423D01*
X390821Y121335D01*
X390825Y121248D01*
X390833Y121161D01*
X390845Y121074D01*
X390860Y120988D01*
X390879Y120903D01*
X390902Y120818D01*
X390929Y120735D01*
X390959Y120653D01*
X390993Y120573D01*
X391030Y120494D01*
X391071Y120416D01*
X391116Y120341D01*
X391163Y120268D01*
X391214Y120196D01*
X391268Y120128D01*
X391325Y120061D01*
X391384Y119997D01*
X391447Y119936D01*
X391512Y119878D01*
X391580Y119822D01*
X391650Y119770D01*
X391722Y119721D01*
X391796Y119675D01*
X391873Y119632D01*
X391951Y119593D01*
X392031Y119558D01*
X392112Y119526D01*
X392195Y119497D01*
X392279Y119472D01*
X392363Y119451D01*
X392449Y119434D01*
X392535Y119420D01*
X392622Y119411D01*
X392710Y119405D01*
X392797Y119403D01*
X392797Y119404D02*
X394772Y119404D01*
X388236Y120194D02*
X385866Y120194D01*
X385788Y120192D01*
X385711Y120186D01*
X385634Y120177D01*
X385558Y120164D01*
X385482Y120147D01*
X385407Y120126D01*
X385334Y120102D01*
X385261Y120074D01*
X385190Y120042D01*
X385121Y120007D01*
X385054Y119969D01*
X384988Y119928D01*
X384925Y119883D01*
X384864Y119835D01*
X384805Y119785D01*
X384749Y119731D01*
X384695Y119675D01*
X384645Y119616D01*
X384597Y119555D01*
X384552Y119492D01*
X384511Y119426D01*
X384473Y119359D01*
X384438Y119290D01*
X384406Y119219D01*
X384378Y119146D01*
X384354Y119073D01*
X384333Y118998D01*
X384316Y118922D01*
X384303Y118846D01*
X384294Y118769D01*
X384288Y118692D01*
X384286Y118614D01*
X384285Y118614D02*
X384285Y118219D01*
X384287Y118132D01*
X384293Y118044D01*
X384302Y117957D01*
X384316Y117871D01*
X384333Y117785D01*
X384354Y117701D01*
X384379Y117617D01*
X384408Y117534D01*
X384440Y117453D01*
X384475Y117373D01*
X384514Y117295D01*
X384557Y117218D01*
X384603Y117144D01*
X384652Y117072D01*
X384704Y117002D01*
X384760Y116934D01*
X384818Y116869D01*
X384879Y116806D01*
X384943Y116747D01*
X385010Y116690D01*
X385078Y116636D01*
X385150Y116585D01*
X385223Y116538D01*
X385298Y116493D01*
X385376Y116452D01*
X385455Y116415D01*
X385535Y116381D01*
X385617Y116351D01*
X385700Y116324D01*
X385785Y116301D01*
X385870Y116282D01*
X385956Y116267D01*
X386043Y116255D01*
X386130Y116247D01*
X386217Y116243D01*
X386305Y116243D01*
X386392Y116247D01*
X386479Y116255D01*
X386566Y116267D01*
X386652Y116282D01*
X386737Y116301D01*
X386822Y116324D01*
X386905Y116351D01*
X386987Y116381D01*
X387067Y116415D01*
X387146Y116452D01*
X387224Y116493D01*
X387299Y116538D01*
X387372Y116585D01*
X387444Y116636D01*
X387512Y116690D01*
X387579Y116747D01*
X387643Y116806D01*
X387704Y116869D01*
X387762Y116934D01*
X387818Y117002D01*
X387870Y117072D01*
X387919Y117144D01*
X387965Y117218D01*
X388008Y117295D01*
X388047Y117373D01*
X388082Y117453D01*
X388114Y117534D01*
X388143Y117617D01*
X388168Y117701D01*
X388189Y117785D01*
X388206Y117871D01*
X388220Y117957D01*
X388229Y118044D01*
X388235Y118132D01*
X388237Y118219D01*
X388236Y118219D02*
X388236Y120194D01*
X388234Y120304D01*
X388228Y120415D01*
X388219Y120524D01*
X388205Y120634D01*
X388188Y120743D01*
X388167Y120851D01*
X388142Y120959D01*
X388114Y121065D01*
X388081Y121171D01*
X388045Y121275D01*
X388006Y121378D01*
X387963Y121480D01*
X387916Y121580D01*
X387866Y121678D01*
X387813Y121775D01*
X387756Y121869D01*
X387696Y121962D01*
X387632Y122052D01*
X387566Y122140D01*
X387496Y122226D01*
X387424Y122309D01*
X387349Y122390D01*
X387271Y122468D01*
X387190Y122543D01*
X387107Y122615D01*
X387021Y122685D01*
X386933Y122751D01*
X386843Y122815D01*
X386750Y122875D01*
X386656Y122932D01*
X386559Y122985D01*
X386461Y123035D01*
X386361Y123082D01*
X386259Y123125D01*
X386156Y123164D01*
X386052Y123200D01*
X385946Y123233D01*
X385840Y123261D01*
X385732Y123286D01*
X385624Y123307D01*
X385515Y123324D01*
X385405Y123338D01*
X385296Y123347D01*
X385185Y123353D01*
X385075Y123355D01*
X117269Y187617D02*
X117269Y192189D01*
X118539Y192189D02*
X115999Y192189D01*
X114043Y192189D02*
X114043Y187617D01*
X114043Y192189D02*
X112773Y192189D01*
X112703Y192187D01*
X112633Y192181D01*
X112564Y192172D01*
X112495Y192158D01*
X112427Y192141D01*
X112361Y192120D01*
X112295Y192096D01*
X112231Y192068D01*
X112169Y192036D01*
X112108Y192001D01*
X112049Y191963D01*
X111993Y191921D01*
X111939Y191877D01*
X111887Y191829D01*
X111839Y191779D01*
X111793Y191726D01*
X111750Y191671D01*
X111710Y191614D01*
X111673Y191554D01*
X111640Y191492D01*
X111610Y191429D01*
X111584Y191364D01*
X111561Y191298D01*
X111542Y191231D01*
X111527Y191162D01*
X111515Y191093D01*
X111507Y191024D01*
X111503Y190954D01*
X111503Y190884D01*
X111507Y190814D01*
X111515Y190745D01*
X111527Y190676D01*
X111542Y190607D01*
X111561Y190540D01*
X111584Y190474D01*
X111610Y190409D01*
X111640Y190346D01*
X111673Y190284D01*
X111710Y190224D01*
X111750Y190167D01*
X111793Y190112D01*
X111839Y190059D01*
X111887Y190009D01*
X111939Y189961D01*
X111993Y189917D01*
X112049Y189875D01*
X112108Y189837D01*
X112169Y189802D01*
X112231Y189770D01*
X112295Y189742D01*
X112361Y189718D01*
X112427Y189697D01*
X112495Y189680D01*
X112564Y189666D01*
X112633Y189657D01*
X112703Y189651D01*
X112773Y189649D01*
X114043Y189649D01*
X109700Y191681D02*
X109700Y192189D01*
X107160Y192189D01*
X108430Y187617D01*
X117269Y170345D02*
X117269Y165773D01*
X118539Y170345D02*
X115999Y170345D01*
X114043Y170345D02*
X114043Y165773D01*
X114043Y170345D02*
X112773Y170345D01*
X112703Y170343D01*
X112633Y170337D01*
X112564Y170328D01*
X112495Y170314D01*
X112427Y170297D01*
X112361Y170276D01*
X112295Y170252D01*
X112231Y170224D01*
X112169Y170192D01*
X112108Y170157D01*
X112049Y170119D01*
X111993Y170077D01*
X111939Y170033D01*
X111887Y169985D01*
X111839Y169935D01*
X111793Y169882D01*
X111750Y169827D01*
X111710Y169770D01*
X111673Y169710D01*
X111640Y169648D01*
X111610Y169585D01*
X111584Y169520D01*
X111561Y169454D01*
X111542Y169387D01*
X111527Y169318D01*
X111515Y169249D01*
X111507Y169180D01*
X111503Y169110D01*
X111503Y169040D01*
X111507Y168970D01*
X111515Y168901D01*
X111527Y168832D01*
X111542Y168763D01*
X111561Y168696D01*
X111584Y168630D01*
X111610Y168565D01*
X111640Y168502D01*
X111673Y168440D01*
X111710Y168380D01*
X111750Y168323D01*
X111793Y168268D01*
X111839Y168215D01*
X111887Y168165D01*
X111939Y168117D01*
X111993Y168073D01*
X112049Y168031D01*
X112108Y167993D01*
X112169Y167958D01*
X112231Y167926D01*
X112295Y167898D01*
X112361Y167874D01*
X112427Y167853D01*
X112495Y167836D01*
X112564Y167822D01*
X112633Y167813D01*
X112703Y167807D01*
X112773Y167805D01*
X114043Y167805D01*
X109700Y167043D02*
X109698Y167113D01*
X109692Y167183D01*
X109683Y167252D01*
X109669Y167321D01*
X109652Y167389D01*
X109631Y167455D01*
X109607Y167521D01*
X109579Y167585D01*
X109547Y167647D01*
X109512Y167708D01*
X109474Y167767D01*
X109432Y167823D01*
X109388Y167877D01*
X109340Y167929D01*
X109290Y167977D01*
X109237Y168023D01*
X109182Y168066D01*
X109125Y168106D01*
X109065Y168143D01*
X109003Y168176D01*
X108940Y168206D01*
X108875Y168232D01*
X108809Y168255D01*
X108742Y168274D01*
X108673Y168289D01*
X108604Y168301D01*
X108535Y168309D01*
X108465Y168313D01*
X108395Y168313D01*
X108325Y168309D01*
X108256Y168301D01*
X108187Y168289D01*
X108118Y168274D01*
X108051Y168255D01*
X107985Y168232D01*
X107920Y168206D01*
X107857Y168176D01*
X107795Y168143D01*
X107735Y168106D01*
X107678Y168066D01*
X107623Y168023D01*
X107570Y167977D01*
X107520Y167929D01*
X107472Y167877D01*
X107428Y167823D01*
X107386Y167767D01*
X107348Y167708D01*
X107313Y167647D01*
X107281Y167585D01*
X107253Y167521D01*
X107229Y167455D01*
X107208Y167389D01*
X107191Y167321D01*
X107177Y167252D01*
X107168Y167183D01*
X107162Y167113D01*
X107160Y167043D01*
X107162Y166973D01*
X107168Y166903D01*
X107177Y166834D01*
X107191Y166765D01*
X107208Y166697D01*
X107229Y166631D01*
X107253Y166565D01*
X107281Y166501D01*
X107313Y166439D01*
X107348Y166378D01*
X107386Y166319D01*
X107428Y166263D01*
X107472Y166209D01*
X107520Y166157D01*
X107570Y166109D01*
X107623Y166063D01*
X107678Y166020D01*
X107735Y165980D01*
X107795Y165943D01*
X107857Y165910D01*
X107920Y165880D01*
X107985Y165854D01*
X108051Y165831D01*
X108118Y165812D01*
X108187Y165797D01*
X108256Y165785D01*
X108325Y165777D01*
X108395Y165773D01*
X108465Y165773D01*
X108535Y165777D01*
X108604Y165785D01*
X108673Y165797D01*
X108742Y165812D01*
X108809Y165831D01*
X108875Y165854D01*
X108940Y165880D01*
X109003Y165910D01*
X109065Y165943D01*
X109125Y165980D01*
X109182Y166020D01*
X109237Y166063D01*
X109290Y166109D01*
X109340Y166157D01*
X109388Y166209D01*
X109432Y166263D01*
X109474Y166319D01*
X109512Y166378D01*
X109547Y166439D01*
X109579Y166501D01*
X109607Y166565D01*
X109631Y166631D01*
X109652Y166697D01*
X109669Y166765D01*
X109683Y166834D01*
X109692Y166903D01*
X109698Y166973D01*
X109700Y167043D01*
X109446Y169329D02*
X109444Y169392D01*
X109438Y169454D01*
X109429Y169516D01*
X109415Y169577D01*
X109398Y169637D01*
X109377Y169696D01*
X109353Y169754D01*
X109325Y169810D01*
X109294Y169864D01*
X109259Y169916D01*
X109222Y169966D01*
X109181Y170013D01*
X109137Y170058D01*
X109091Y170101D01*
X109042Y170140D01*
X108991Y170176D01*
X108938Y170209D01*
X108883Y170238D01*
X108826Y170265D01*
X108768Y170287D01*
X108708Y170306D01*
X108647Y170321D01*
X108586Y170333D01*
X108524Y170341D01*
X108461Y170345D01*
X108399Y170345D01*
X108336Y170341D01*
X108274Y170333D01*
X108213Y170321D01*
X108152Y170306D01*
X108092Y170287D01*
X108034Y170265D01*
X107977Y170238D01*
X107922Y170209D01*
X107869Y170176D01*
X107818Y170140D01*
X107769Y170101D01*
X107723Y170058D01*
X107679Y170013D01*
X107638Y169966D01*
X107601Y169916D01*
X107566Y169864D01*
X107535Y169810D01*
X107507Y169754D01*
X107483Y169696D01*
X107462Y169637D01*
X107445Y169577D01*
X107431Y169516D01*
X107422Y169454D01*
X107416Y169392D01*
X107414Y169329D01*
X107416Y169266D01*
X107422Y169204D01*
X107431Y169142D01*
X107445Y169081D01*
X107462Y169021D01*
X107483Y168962D01*
X107507Y168904D01*
X107535Y168848D01*
X107566Y168794D01*
X107601Y168742D01*
X107638Y168692D01*
X107679Y168645D01*
X107723Y168600D01*
X107769Y168557D01*
X107818Y168518D01*
X107869Y168482D01*
X107922Y168449D01*
X107977Y168420D01*
X108034Y168393D01*
X108092Y168371D01*
X108152Y168352D01*
X108213Y168337D01*
X108274Y168325D01*
X108336Y168317D01*
X108399Y168313D01*
X108461Y168313D01*
X108524Y168317D01*
X108586Y168325D01*
X108647Y168337D01*
X108708Y168352D01*
X108768Y168371D01*
X108826Y168393D01*
X108883Y168420D01*
X108938Y168449D01*
X108991Y168482D01*
X109042Y168518D01*
X109091Y168557D01*
X109137Y168600D01*
X109181Y168645D01*
X109222Y168692D01*
X109259Y168742D01*
X109294Y168794D01*
X109325Y168848D01*
X109353Y168904D01*
X109377Y168962D01*
X109398Y169021D01*
X109415Y169081D01*
X109429Y169142D01*
X109438Y169204D01*
X109444Y169266D01*
X109446Y169329D01*
X36045Y186601D02*
X36045Y193713D01*
X34070Y193713D02*
X38021Y193713D01*
X31298Y193713D02*
X31298Y186601D01*
X31298Y193713D02*
X29323Y193713D01*
X29236Y193711D01*
X29148Y193705D01*
X29061Y193696D01*
X28975Y193682D01*
X28889Y193665D01*
X28805Y193644D01*
X28721Y193619D01*
X28638Y193590D01*
X28557Y193558D01*
X28477Y193523D01*
X28399Y193484D01*
X28322Y193441D01*
X28248Y193395D01*
X28176Y193346D01*
X28106Y193294D01*
X28038Y193238D01*
X27973Y193180D01*
X27910Y193119D01*
X27851Y193055D01*
X27794Y192988D01*
X27740Y192920D01*
X27689Y192848D01*
X27642Y192775D01*
X27597Y192700D01*
X27556Y192622D01*
X27519Y192543D01*
X27485Y192463D01*
X27455Y192381D01*
X27428Y192298D01*
X27405Y192213D01*
X27386Y192128D01*
X27371Y192042D01*
X27359Y191955D01*
X27351Y191868D01*
X27347Y191781D01*
X27347Y191693D01*
X27351Y191606D01*
X27359Y191519D01*
X27371Y191432D01*
X27386Y191346D01*
X27405Y191261D01*
X27428Y191176D01*
X27455Y191093D01*
X27485Y191011D01*
X27519Y190931D01*
X27556Y190852D01*
X27597Y190774D01*
X27642Y190699D01*
X27689Y190626D01*
X27740Y190554D01*
X27794Y190486D01*
X27851Y190419D01*
X27910Y190355D01*
X27973Y190294D01*
X28038Y190236D01*
X28106Y190180D01*
X28176Y190128D01*
X28248Y190079D01*
X28322Y190033D01*
X28399Y189990D01*
X28477Y189951D01*
X28557Y189916D01*
X28638Y189884D01*
X28721Y189855D01*
X28805Y189830D01*
X28889Y189809D01*
X28975Y189792D01*
X29061Y189778D01*
X29148Y189769D01*
X29236Y189763D01*
X29323Y189761D01*
X29323Y189762D02*
X31298Y189762D01*
X23182Y189762D02*
X20811Y189762D01*
X23182Y189762D02*
X23260Y189764D01*
X23337Y189770D01*
X23414Y189779D01*
X23490Y189792D01*
X23566Y189809D01*
X23641Y189830D01*
X23714Y189854D01*
X23787Y189882D01*
X23858Y189914D01*
X23927Y189949D01*
X23994Y189987D01*
X24060Y190028D01*
X24123Y190073D01*
X24184Y190121D01*
X24243Y190171D01*
X24299Y190225D01*
X24353Y190281D01*
X24403Y190340D01*
X24451Y190401D01*
X24496Y190464D01*
X24537Y190530D01*
X24575Y190597D01*
X24610Y190666D01*
X24642Y190737D01*
X24670Y190810D01*
X24694Y190883D01*
X24715Y190958D01*
X24732Y191034D01*
X24745Y191110D01*
X24754Y191187D01*
X24760Y191264D01*
X24762Y191342D01*
X24762Y191737D01*
X24763Y191737D02*
X24761Y191824D01*
X24755Y191912D01*
X24746Y191999D01*
X24732Y192085D01*
X24715Y192171D01*
X24694Y192255D01*
X24669Y192339D01*
X24640Y192422D01*
X24608Y192503D01*
X24573Y192583D01*
X24534Y192661D01*
X24491Y192738D01*
X24445Y192812D01*
X24396Y192884D01*
X24344Y192954D01*
X24288Y193022D01*
X24230Y193087D01*
X24169Y193150D01*
X24105Y193209D01*
X24038Y193266D01*
X23970Y193320D01*
X23898Y193371D01*
X23825Y193418D01*
X23750Y193463D01*
X23672Y193504D01*
X23593Y193541D01*
X23513Y193575D01*
X23431Y193605D01*
X23348Y193632D01*
X23263Y193655D01*
X23178Y193674D01*
X23092Y193689D01*
X23005Y193701D01*
X22918Y193709D01*
X22831Y193713D01*
X22743Y193713D01*
X22656Y193709D01*
X22569Y193701D01*
X22482Y193689D01*
X22396Y193674D01*
X22311Y193655D01*
X22226Y193632D01*
X22143Y193605D01*
X22061Y193575D01*
X21981Y193541D01*
X21902Y193504D01*
X21824Y193463D01*
X21749Y193418D01*
X21676Y193371D01*
X21604Y193320D01*
X21536Y193266D01*
X21469Y193209D01*
X21405Y193150D01*
X21344Y193087D01*
X21286Y193022D01*
X21230Y192954D01*
X21178Y192884D01*
X21129Y192812D01*
X21083Y192738D01*
X21040Y192661D01*
X21001Y192583D01*
X20966Y192503D01*
X20934Y192422D01*
X20905Y192339D01*
X20880Y192255D01*
X20859Y192171D01*
X20842Y192085D01*
X20828Y191999D01*
X20819Y191912D01*
X20813Y191824D01*
X20811Y191737D01*
X20811Y189762D01*
X20813Y189652D01*
X20819Y189541D01*
X20828Y189432D01*
X20842Y189322D01*
X20859Y189213D01*
X20880Y189105D01*
X20905Y188997D01*
X20933Y188891D01*
X20966Y188785D01*
X21002Y188681D01*
X21041Y188578D01*
X21084Y188476D01*
X21131Y188376D01*
X21181Y188278D01*
X21234Y188182D01*
X21291Y188087D01*
X21351Y187994D01*
X21415Y187904D01*
X21481Y187816D01*
X21551Y187730D01*
X21623Y187647D01*
X21698Y187566D01*
X21776Y187488D01*
X21857Y187413D01*
X21940Y187341D01*
X22026Y187271D01*
X22114Y187205D01*
X22204Y187141D01*
X22297Y187081D01*
X22391Y187024D01*
X22488Y186971D01*
X22586Y186921D01*
X22686Y186874D01*
X22788Y186831D01*
X22891Y186792D01*
X22995Y186756D01*
X23101Y186723D01*
X23207Y186695D01*
X23315Y186670D01*
X23423Y186649D01*
X23532Y186632D01*
X23642Y186618D01*
X23751Y186609D01*
X23862Y186603D01*
X23972Y186601D01*
X34775Y171361D02*
X34775Y164249D01*
X36751Y171361D02*
X32800Y171361D01*
X30028Y171361D02*
X30028Y164249D01*
X30028Y171361D02*
X28053Y171361D01*
X27966Y171359D01*
X27878Y171353D01*
X27791Y171344D01*
X27705Y171330D01*
X27619Y171313D01*
X27535Y171292D01*
X27451Y171267D01*
X27368Y171238D01*
X27287Y171206D01*
X27207Y171171D01*
X27129Y171132D01*
X27052Y171089D01*
X26978Y171043D01*
X26906Y170994D01*
X26836Y170942D01*
X26768Y170886D01*
X26703Y170828D01*
X26640Y170767D01*
X26581Y170703D01*
X26524Y170636D01*
X26470Y170568D01*
X26419Y170496D01*
X26372Y170423D01*
X26327Y170348D01*
X26286Y170270D01*
X26249Y170191D01*
X26215Y170111D01*
X26185Y170029D01*
X26158Y169946D01*
X26135Y169861D01*
X26116Y169776D01*
X26101Y169690D01*
X26089Y169603D01*
X26081Y169516D01*
X26077Y169429D01*
X26077Y169341D01*
X26081Y169254D01*
X26089Y169167D01*
X26101Y169080D01*
X26116Y168994D01*
X26135Y168909D01*
X26158Y168824D01*
X26185Y168741D01*
X26215Y168659D01*
X26249Y168579D01*
X26286Y168500D01*
X26327Y168422D01*
X26372Y168347D01*
X26419Y168274D01*
X26470Y168202D01*
X26524Y168134D01*
X26581Y168067D01*
X26640Y168003D01*
X26703Y167942D01*
X26768Y167884D01*
X26836Y167828D01*
X26906Y167776D01*
X26978Y167727D01*
X27052Y167681D01*
X27129Y167638D01*
X27207Y167599D01*
X27287Y167564D01*
X27368Y167532D01*
X27451Y167503D01*
X27535Y167478D01*
X27619Y167457D01*
X27705Y167440D01*
X27791Y167426D01*
X27878Y167417D01*
X27966Y167411D01*
X28053Y167409D01*
X28053Y167410D02*
X30028Y167410D01*
X23492Y169781D02*
X21517Y171361D01*
X21517Y164249D01*
X23492Y164249D02*
X19541Y164249D01*
X16634Y167805D02*
X16632Y167953D01*
X16627Y168100D01*
X16617Y168248D01*
X16604Y168395D01*
X16588Y168542D01*
X16567Y168688D01*
X16543Y168834D01*
X16515Y168979D01*
X16484Y169123D01*
X16449Y169266D01*
X16410Y169409D01*
X16368Y169550D01*
X16322Y169691D01*
X16273Y169830D01*
X16220Y169968D01*
X16164Y170105D01*
X16104Y170240D01*
X16041Y170373D01*
X16042Y170373D02*
X16016Y170444D01*
X15986Y170513D01*
X15952Y170581D01*
X15915Y170647D01*
X15875Y170711D01*
X15831Y170773D01*
X15785Y170832D01*
X15735Y170889D01*
X15682Y170943D01*
X15627Y170995D01*
X15569Y171043D01*
X15509Y171089D01*
X15446Y171131D01*
X15381Y171170D01*
X15315Y171206D01*
X15246Y171238D01*
X15177Y171266D01*
X15105Y171291D01*
X15033Y171312D01*
X14959Y171330D01*
X14885Y171343D01*
X14810Y171353D01*
X14735Y171359D01*
X14659Y171361D01*
X14583Y171359D01*
X14508Y171353D01*
X14433Y171343D01*
X14359Y171330D01*
X14285Y171312D01*
X14213Y171291D01*
X14142Y171266D01*
X14072Y171238D01*
X14003Y171206D01*
X13937Y171170D01*
X13872Y171131D01*
X13809Y171089D01*
X13749Y171043D01*
X13691Y170995D01*
X13636Y170943D01*
X13583Y170889D01*
X13533Y170832D01*
X13487Y170773D01*
X13443Y170711D01*
X13403Y170647D01*
X13366Y170581D01*
X13332Y170513D01*
X13302Y170444D01*
X13276Y170373D01*
X13213Y170240D01*
X13153Y170105D01*
X13097Y169968D01*
X13044Y169830D01*
X12995Y169691D01*
X12949Y169550D01*
X12907Y169409D01*
X12868Y169266D01*
X12833Y169123D01*
X12802Y168979D01*
X12774Y168834D01*
X12750Y168688D01*
X12729Y168542D01*
X12713Y168395D01*
X12700Y168248D01*
X12690Y168100D01*
X12685Y167953D01*
X12683Y167805D01*
X16634Y167805D02*
X16632Y167657D01*
X16627Y167510D01*
X16617Y167362D01*
X16604Y167215D01*
X16588Y167068D01*
X16567Y166922D01*
X16543Y166777D01*
X16515Y166631D01*
X16484Y166487D01*
X16449Y166344D01*
X16410Y166201D01*
X16368Y166060D01*
X16322Y165919D01*
X16273Y165780D01*
X16220Y165642D01*
X16164Y165505D01*
X16104Y165370D01*
X16041Y165237D01*
X16042Y165237D02*
X16016Y165166D01*
X15986Y165097D01*
X15952Y165029D01*
X15915Y164963D01*
X15875Y164899D01*
X15831Y164837D01*
X15785Y164778D01*
X15735Y164721D01*
X15682Y164667D01*
X15627Y164615D01*
X15569Y164567D01*
X15509Y164521D01*
X15446Y164479D01*
X15381Y164440D01*
X15315Y164404D01*
X15246Y164372D01*
X15176Y164344D01*
X15105Y164319D01*
X15033Y164298D01*
X14959Y164280D01*
X14885Y164267D01*
X14810Y164257D01*
X14735Y164251D01*
X14659Y164249D01*
X13276Y165237D02*
X13213Y165370D01*
X13153Y165505D01*
X13097Y165642D01*
X13044Y165780D01*
X12995Y165919D01*
X12949Y166060D01*
X12907Y166201D01*
X12868Y166344D01*
X12833Y166487D01*
X12802Y166631D01*
X12774Y166777D01*
X12750Y166922D01*
X12729Y167068D01*
X12713Y167215D01*
X12700Y167362D01*
X12690Y167510D01*
X12685Y167657D01*
X12683Y167805D01*
X13276Y165237D02*
X13302Y165166D01*
X13332Y165097D01*
X13366Y165029D01*
X13403Y164963D01*
X13443Y164899D01*
X13487Y164837D01*
X13533Y164778D01*
X13583Y164721D01*
X13636Y164667D01*
X13691Y164615D01*
X13749Y164567D01*
X13809Y164521D01*
X13872Y164479D01*
X13937Y164440D01*
X14003Y164404D01*
X14072Y164372D01*
X14142Y164344D01*
X14213Y164319D01*
X14285Y164298D01*
X14359Y164280D01*
X14433Y164267D01*
X14508Y164257D01*
X14583Y164251D01*
X14659Y164249D01*
X16239Y165829D02*
X13078Y169781D01*
X216075Y329349D02*
X216075Y333921D01*
X217345Y333921D02*
X214805Y333921D01*
X212849Y333921D02*
X212849Y329349D01*
X212849Y333921D02*
X211579Y333921D01*
X211509Y333919D01*
X211439Y333913D01*
X211370Y333904D01*
X211301Y333890D01*
X211233Y333873D01*
X211167Y333852D01*
X211101Y333828D01*
X211037Y333800D01*
X210975Y333768D01*
X210914Y333733D01*
X210855Y333695D01*
X210799Y333653D01*
X210745Y333609D01*
X210693Y333561D01*
X210645Y333511D01*
X210599Y333458D01*
X210556Y333403D01*
X210516Y333346D01*
X210479Y333286D01*
X210446Y333224D01*
X210416Y333161D01*
X210390Y333096D01*
X210367Y333030D01*
X210348Y332963D01*
X210333Y332894D01*
X210321Y332825D01*
X210313Y332756D01*
X210309Y332686D01*
X210309Y332616D01*
X210313Y332546D01*
X210321Y332477D01*
X210333Y332408D01*
X210348Y332339D01*
X210367Y332272D01*
X210390Y332206D01*
X210416Y332141D01*
X210446Y332078D01*
X210479Y332016D01*
X210516Y331956D01*
X210556Y331899D01*
X210599Y331844D01*
X210645Y331791D01*
X210693Y331741D01*
X210745Y331693D01*
X210799Y331649D01*
X210855Y331607D01*
X210914Y331569D01*
X210975Y331534D01*
X211037Y331502D01*
X211101Y331474D01*
X211167Y331450D01*
X211233Y331429D01*
X211301Y331412D01*
X211370Y331398D01*
X211439Y331389D01*
X211509Y331383D01*
X211579Y331381D01*
X212849Y331381D01*
X208506Y332905D02*
X207236Y333921D01*
X207236Y329349D01*
X208506Y329349D02*
X205966Y329349D01*
X203934Y332905D02*
X202664Y333921D01*
X202664Y329349D01*
X203934Y329349D02*
X201394Y329349D01*
X189405Y329349D02*
X189405Y333921D01*
X190675Y333921D02*
X188135Y333921D01*
X186179Y333921D02*
X186179Y329349D01*
X186179Y333921D02*
X184909Y333921D01*
X184839Y333919D01*
X184769Y333913D01*
X184700Y333904D01*
X184631Y333890D01*
X184563Y333873D01*
X184497Y333852D01*
X184431Y333828D01*
X184367Y333800D01*
X184305Y333768D01*
X184244Y333733D01*
X184185Y333695D01*
X184129Y333653D01*
X184075Y333609D01*
X184023Y333561D01*
X183975Y333511D01*
X183929Y333458D01*
X183886Y333403D01*
X183846Y333346D01*
X183809Y333286D01*
X183776Y333224D01*
X183746Y333161D01*
X183720Y333096D01*
X183697Y333030D01*
X183678Y332963D01*
X183663Y332894D01*
X183651Y332825D01*
X183643Y332756D01*
X183639Y332686D01*
X183639Y332616D01*
X183643Y332546D01*
X183651Y332477D01*
X183663Y332408D01*
X183678Y332339D01*
X183697Y332272D01*
X183720Y332206D01*
X183746Y332141D01*
X183776Y332078D01*
X183809Y332016D01*
X183846Y331956D01*
X183886Y331899D01*
X183929Y331844D01*
X183975Y331791D01*
X184023Y331741D01*
X184075Y331693D01*
X184129Y331649D01*
X184185Y331607D01*
X184244Y331569D01*
X184305Y331534D01*
X184367Y331502D01*
X184431Y331474D01*
X184497Y331450D01*
X184563Y331429D01*
X184631Y331412D01*
X184700Y331398D01*
X184769Y331389D01*
X184839Y331383D01*
X184909Y331381D01*
X186179Y331381D01*
X181836Y332905D02*
X180566Y333921D01*
X180566Y329349D01*
X181836Y329349D02*
X179296Y329349D01*
X175867Y333921D02*
X175801Y333919D01*
X175734Y333913D01*
X175669Y333904D01*
X175603Y333890D01*
X175539Y333873D01*
X175476Y333852D01*
X175414Y333828D01*
X175354Y333799D01*
X175296Y333768D01*
X175239Y333733D01*
X175184Y333695D01*
X175132Y333654D01*
X175083Y333609D01*
X175036Y333562D01*
X174991Y333513D01*
X174950Y333461D01*
X174912Y333406D01*
X174877Y333350D01*
X174846Y333291D01*
X174817Y333231D01*
X174793Y333169D01*
X174772Y333106D01*
X174755Y333042D01*
X174741Y332976D01*
X174732Y332911D01*
X174726Y332844D01*
X174724Y332778D01*
X175867Y333921D02*
X175941Y333919D01*
X176014Y333914D01*
X176088Y333904D01*
X176160Y333891D01*
X176232Y333875D01*
X176303Y333855D01*
X176373Y333831D01*
X176442Y333804D01*
X176509Y333773D01*
X176575Y333739D01*
X176638Y333702D01*
X176700Y333662D01*
X176760Y333618D01*
X176817Y333572D01*
X176873Y333523D01*
X176925Y333471D01*
X176975Y333416D01*
X177022Y333359D01*
X177066Y333300D01*
X177107Y333239D01*
X177145Y333175D01*
X177180Y333110D01*
X177211Y333043D01*
X177239Y332975D01*
X177264Y332905D01*
X175105Y331889D02*
X175058Y331936D01*
X175014Y331985D01*
X174973Y332037D01*
X174934Y332091D01*
X174899Y332147D01*
X174866Y332205D01*
X174837Y332264D01*
X174811Y332325D01*
X174788Y332387D01*
X174768Y332451D01*
X174753Y332515D01*
X174740Y332580D01*
X174731Y332646D01*
X174726Y332712D01*
X174724Y332778D01*
X175105Y331889D02*
X177264Y329349D01*
X174724Y329349D01*
X215567Y75349D02*
X215567Y70777D01*
X216837Y75349D02*
X214297Y75349D01*
X212341Y75349D02*
X212341Y70777D01*
X212341Y75349D02*
X211071Y75349D01*
X211001Y75347D01*
X210931Y75341D01*
X210862Y75332D01*
X210793Y75318D01*
X210725Y75301D01*
X210659Y75280D01*
X210593Y75256D01*
X210529Y75228D01*
X210467Y75196D01*
X210406Y75161D01*
X210347Y75123D01*
X210291Y75081D01*
X210237Y75037D01*
X210185Y74989D01*
X210137Y74939D01*
X210091Y74886D01*
X210048Y74831D01*
X210008Y74774D01*
X209971Y74714D01*
X209938Y74652D01*
X209908Y74589D01*
X209882Y74524D01*
X209859Y74458D01*
X209840Y74391D01*
X209825Y74322D01*
X209813Y74253D01*
X209805Y74184D01*
X209801Y74114D01*
X209801Y74044D01*
X209805Y73974D01*
X209813Y73905D01*
X209825Y73836D01*
X209840Y73767D01*
X209859Y73700D01*
X209882Y73634D01*
X209908Y73569D01*
X209938Y73506D01*
X209971Y73444D01*
X210008Y73384D01*
X210048Y73327D01*
X210091Y73272D01*
X210137Y73219D01*
X210185Y73169D01*
X210237Y73121D01*
X210291Y73077D01*
X210347Y73035D01*
X210406Y72997D01*
X210467Y72962D01*
X210529Y72930D01*
X210593Y72902D01*
X210659Y72878D01*
X210725Y72857D01*
X210793Y72840D01*
X210862Y72826D01*
X210931Y72817D01*
X211001Y72811D01*
X211071Y72809D01*
X212341Y72809D01*
X207998Y74333D02*
X206728Y75349D01*
X206728Y70777D01*
X207998Y70777D02*
X205458Y70777D01*
X203426Y70777D02*
X202156Y70777D01*
X202086Y70779D01*
X202016Y70785D01*
X201947Y70794D01*
X201878Y70808D01*
X201810Y70825D01*
X201744Y70846D01*
X201678Y70870D01*
X201614Y70898D01*
X201552Y70930D01*
X201491Y70965D01*
X201432Y71003D01*
X201376Y71045D01*
X201322Y71089D01*
X201270Y71137D01*
X201222Y71187D01*
X201176Y71240D01*
X201133Y71295D01*
X201093Y71352D01*
X201056Y71412D01*
X201023Y71474D01*
X200993Y71537D01*
X200967Y71602D01*
X200944Y71668D01*
X200925Y71735D01*
X200910Y71804D01*
X200898Y71873D01*
X200890Y71942D01*
X200886Y72012D01*
X200886Y72082D01*
X200890Y72152D01*
X200898Y72221D01*
X200910Y72290D01*
X200925Y72359D01*
X200944Y72426D01*
X200967Y72492D01*
X200993Y72557D01*
X201023Y72620D01*
X201056Y72682D01*
X201093Y72742D01*
X201133Y72799D01*
X201176Y72854D01*
X201222Y72907D01*
X201270Y72957D01*
X201322Y73005D01*
X201376Y73049D01*
X201432Y73091D01*
X201491Y73129D01*
X201552Y73164D01*
X201614Y73196D01*
X201678Y73224D01*
X201744Y73248D01*
X201810Y73269D01*
X201878Y73286D01*
X201947Y73300D01*
X202016Y73309D01*
X202086Y73315D01*
X202156Y73317D01*
X201902Y75349D02*
X203426Y75349D01*
X201902Y75349D02*
X201839Y75347D01*
X201777Y75341D01*
X201715Y75332D01*
X201654Y75318D01*
X201594Y75301D01*
X201535Y75280D01*
X201477Y75256D01*
X201421Y75228D01*
X201367Y75197D01*
X201315Y75162D01*
X201265Y75125D01*
X201218Y75084D01*
X201173Y75040D01*
X201130Y74994D01*
X201091Y74945D01*
X201055Y74894D01*
X201022Y74841D01*
X200993Y74786D01*
X200966Y74729D01*
X200944Y74671D01*
X200925Y74611D01*
X200910Y74550D01*
X200898Y74489D01*
X200890Y74427D01*
X200886Y74364D01*
X200886Y74302D01*
X200890Y74239D01*
X200898Y74177D01*
X200910Y74116D01*
X200925Y74055D01*
X200944Y73995D01*
X200966Y73937D01*
X200993Y73880D01*
X201022Y73825D01*
X201055Y73772D01*
X201091Y73721D01*
X201130Y73672D01*
X201173Y73626D01*
X201218Y73582D01*
X201265Y73541D01*
X201315Y73504D01*
X201367Y73469D01*
X201421Y73438D01*
X201477Y73410D01*
X201535Y73386D01*
X201594Y73365D01*
X201654Y73348D01*
X201715Y73334D01*
X201777Y73325D01*
X201839Y73319D01*
X201902Y73317D01*
X202918Y73317D01*
X189405Y74079D02*
X189405Y69507D01*
X190675Y74079D02*
X188135Y74079D01*
X186179Y74079D02*
X186179Y69507D01*
X186179Y74079D02*
X184909Y74079D01*
X184839Y74077D01*
X184769Y74071D01*
X184700Y74062D01*
X184631Y74048D01*
X184563Y74031D01*
X184497Y74010D01*
X184431Y73986D01*
X184367Y73958D01*
X184305Y73926D01*
X184244Y73891D01*
X184185Y73853D01*
X184129Y73811D01*
X184075Y73767D01*
X184023Y73719D01*
X183975Y73669D01*
X183929Y73616D01*
X183886Y73561D01*
X183846Y73504D01*
X183809Y73444D01*
X183776Y73382D01*
X183746Y73319D01*
X183720Y73254D01*
X183697Y73188D01*
X183678Y73121D01*
X183663Y73052D01*
X183651Y72983D01*
X183643Y72914D01*
X183639Y72844D01*
X183639Y72774D01*
X183643Y72704D01*
X183651Y72635D01*
X183663Y72566D01*
X183678Y72497D01*
X183697Y72430D01*
X183720Y72364D01*
X183746Y72299D01*
X183776Y72236D01*
X183809Y72174D01*
X183846Y72114D01*
X183886Y72057D01*
X183929Y72002D01*
X183975Y71949D01*
X184023Y71899D01*
X184075Y71851D01*
X184129Y71807D01*
X184185Y71765D01*
X184244Y71727D01*
X184305Y71692D01*
X184367Y71660D01*
X184431Y71632D01*
X184497Y71608D01*
X184563Y71587D01*
X184631Y71570D01*
X184700Y71556D01*
X184769Y71547D01*
X184839Y71541D01*
X184909Y71539D01*
X186179Y71539D01*
X181836Y73063D02*
X180566Y74079D01*
X180566Y69507D01*
X181836Y69507D02*
X179296Y69507D01*
X177264Y70523D02*
X176248Y74079D01*
X177264Y70523D02*
X174724Y70523D01*
X175486Y71539D02*
X175486Y69507D01*
X771827Y57823D02*
X771827Y53251D01*
X773097Y57823D02*
X770557Y57823D01*
X768601Y57823D02*
X768601Y53251D01*
X768601Y57823D02*
X767331Y57823D01*
X767261Y57821D01*
X767191Y57815D01*
X767122Y57806D01*
X767053Y57792D01*
X766985Y57775D01*
X766919Y57754D01*
X766853Y57730D01*
X766789Y57702D01*
X766727Y57670D01*
X766666Y57635D01*
X766607Y57597D01*
X766551Y57555D01*
X766497Y57511D01*
X766445Y57463D01*
X766397Y57413D01*
X766351Y57360D01*
X766308Y57305D01*
X766268Y57248D01*
X766231Y57188D01*
X766198Y57126D01*
X766168Y57063D01*
X766142Y56998D01*
X766119Y56932D01*
X766100Y56865D01*
X766085Y56796D01*
X766073Y56727D01*
X766065Y56658D01*
X766061Y56588D01*
X766061Y56518D01*
X766065Y56448D01*
X766073Y56379D01*
X766085Y56310D01*
X766100Y56241D01*
X766119Y56174D01*
X766142Y56108D01*
X766168Y56043D01*
X766198Y55980D01*
X766231Y55918D01*
X766268Y55858D01*
X766308Y55801D01*
X766351Y55746D01*
X766397Y55693D01*
X766445Y55643D01*
X766497Y55595D01*
X766551Y55551D01*
X766607Y55509D01*
X766666Y55471D01*
X766727Y55436D01*
X766789Y55404D01*
X766853Y55376D01*
X766919Y55352D01*
X766985Y55331D01*
X767053Y55314D01*
X767122Y55300D01*
X767191Y55291D01*
X767261Y55285D01*
X767331Y55283D01*
X768601Y55283D01*
X764258Y56807D02*
X762988Y57823D01*
X762988Y53251D01*
X764258Y53251D02*
X761718Y53251D01*
X759686Y53251D02*
X758162Y53251D01*
X758101Y53253D01*
X758040Y53258D01*
X757979Y53268D01*
X757919Y53281D01*
X757860Y53297D01*
X757802Y53317D01*
X757745Y53341D01*
X757690Y53367D01*
X757636Y53398D01*
X757585Y53431D01*
X757535Y53467D01*
X757488Y53507D01*
X757444Y53549D01*
X757402Y53593D01*
X757362Y53640D01*
X757326Y53690D01*
X757293Y53741D01*
X757262Y53795D01*
X757236Y53850D01*
X757212Y53907D01*
X757192Y53965D01*
X757176Y54024D01*
X757163Y54084D01*
X757153Y54145D01*
X757148Y54206D01*
X757146Y54267D01*
X757146Y54775D01*
X757148Y54836D01*
X757153Y54897D01*
X757163Y54958D01*
X757176Y55018D01*
X757192Y55077D01*
X757212Y55135D01*
X757236Y55192D01*
X757262Y55247D01*
X757293Y55301D01*
X757326Y55352D01*
X757362Y55402D01*
X757402Y55449D01*
X757444Y55493D01*
X757488Y55535D01*
X757535Y55575D01*
X757585Y55611D01*
X757636Y55644D01*
X757690Y55675D01*
X757745Y55701D01*
X757802Y55725D01*
X757860Y55745D01*
X757919Y55761D01*
X757979Y55774D01*
X758040Y55784D01*
X758101Y55789D01*
X758162Y55791D01*
X759686Y55791D01*
X759686Y57823D01*
X757146Y57823D01*
X791131Y58585D02*
X791131Y54013D01*
X792401Y58585D02*
X789861Y58585D01*
X787905Y58585D02*
X787905Y54013D01*
X787905Y58585D02*
X786635Y58585D01*
X786565Y58583D01*
X786495Y58577D01*
X786426Y58568D01*
X786357Y58554D01*
X786289Y58537D01*
X786223Y58516D01*
X786157Y58492D01*
X786093Y58464D01*
X786031Y58432D01*
X785970Y58397D01*
X785911Y58359D01*
X785855Y58317D01*
X785801Y58273D01*
X785749Y58225D01*
X785701Y58175D01*
X785655Y58122D01*
X785612Y58067D01*
X785572Y58010D01*
X785535Y57950D01*
X785502Y57888D01*
X785472Y57825D01*
X785446Y57760D01*
X785423Y57694D01*
X785404Y57627D01*
X785389Y57558D01*
X785377Y57489D01*
X785369Y57420D01*
X785365Y57350D01*
X785365Y57280D01*
X785369Y57210D01*
X785377Y57141D01*
X785389Y57072D01*
X785404Y57003D01*
X785423Y56936D01*
X785446Y56870D01*
X785472Y56805D01*
X785502Y56742D01*
X785535Y56680D01*
X785572Y56620D01*
X785612Y56563D01*
X785655Y56508D01*
X785701Y56455D01*
X785749Y56405D01*
X785801Y56357D01*
X785855Y56313D01*
X785911Y56271D01*
X785970Y56233D01*
X786031Y56198D01*
X786093Y56166D01*
X786157Y56138D01*
X786223Y56114D01*
X786289Y56093D01*
X786357Y56076D01*
X786426Y56062D01*
X786495Y56053D01*
X786565Y56047D01*
X786635Y56045D01*
X787905Y56045D01*
X783562Y57569D02*
X782292Y58585D01*
X782292Y54013D01*
X783562Y54013D02*
X781022Y54013D01*
X778990Y56553D02*
X777466Y56553D01*
X777405Y56551D01*
X777344Y56546D01*
X777283Y56536D01*
X777223Y56523D01*
X777164Y56507D01*
X777106Y56487D01*
X777049Y56463D01*
X776994Y56437D01*
X776940Y56406D01*
X776889Y56373D01*
X776839Y56337D01*
X776792Y56297D01*
X776748Y56255D01*
X776706Y56211D01*
X776666Y56164D01*
X776630Y56114D01*
X776597Y56063D01*
X776566Y56009D01*
X776540Y55954D01*
X776516Y55897D01*
X776496Y55839D01*
X776480Y55780D01*
X776467Y55720D01*
X776457Y55659D01*
X776452Y55598D01*
X776450Y55537D01*
X776450Y55283D01*
X776452Y55213D01*
X776458Y55143D01*
X776467Y55074D01*
X776481Y55005D01*
X776498Y54937D01*
X776519Y54871D01*
X776543Y54805D01*
X776571Y54741D01*
X776603Y54679D01*
X776638Y54618D01*
X776676Y54559D01*
X776718Y54503D01*
X776762Y54449D01*
X776810Y54397D01*
X776860Y54349D01*
X776913Y54303D01*
X776968Y54260D01*
X777025Y54220D01*
X777085Y54183D01*
X777147Y54150D01*
X777210Y54120D01*
X777275Y54094D01*
X777341Y54071D01*
X777408Y54052D01*
X777477Y54037D01*
X777546Y54025D01*
X777615Y54017D01*
X777685Y54013D01*
X777755Y54013D01*
X777825Y54017D01*
X777894Y54025D01*
X777963Y54037D01*
X778032Y54052D01*
X778099Y54071D01*
X778165Y54094D01*
X778230Y54120D01*
X778293Y54150D01*
X778355Y54183D01*
X778415Y54220D01*
X778472Y54260D01*
X778527Y54303D01*
X778580Y54349D01*
X778630Y54397D01*
X778678Y54449D01*
X778722Y54503D01*
X778764Y54559D01*
X778802Y54618D01*
X778837Y54679D01*
X778869Y54741D01*
X778897Y54805D01*
X778921Y54871D01*
X778942Y54937D01*
X778959Y55005D01*
X778973Y55074D01*
X778982Y55143D01*
X778988Y55213D01*
X778990Y55283D01*
X778990Y56553D01*
X778988Y56642D01*
X778982Y56730D01*
X778973Y56818D01*
X778959Y56906D01*
X778942Y56993D01*
X778921Y57079D01*
X778896Y57164D01*
X778867Y57248D01*
X778835Y57331D01*
X778800Y57412D01*
X778760Y57491D01*
X778718Y57569D01*
X778672Y57645D01*
X778623Y57719D01*
X778570Y57790D01*
X778515Y57859D01*
X778456Y57926D01*
X778395Y57990D01*
X778331Y58051D01*
X778264Y58110D01*
X778195Y58165D01*
X778124Y58218D01*
X778050Y58267D01*
X777974Y58313D01*
X777896Y58355D01*
X777817Y58395D01*
X777736Y58430D01*
X777653Y58462D01*
X777569Y58491D01*
X777484Y58516D01*
X777398Y58537D01*
X777311Y58554D01*
X777223Y58568D01*
X777135Y58577D01*
X777047Y58583D01*
X776958Y58585D01*
X859711Y321221D02*
X859711Y325793D01*
X860981Y325793D02*
X858441Y325793D01*
X856485Y325793D02*
X856485Y321221D01*
X856485Y325793D02*
X855215Y325793D01*
X855145Y325791D01*
X855075Y325785D01*
X855006Y325776D01*
X854937Y325762D01*
X854869Y325745D01*
X854803Y325724D01*
X854737Y325700D01*
X854673Y325672D01*
X854611Y325640D01*
X854550Y325605D01*
X854491Y325567D01*
X854435Y325525D01*
X854381Y325481D01*
X854329Y325433D01*
X854281Y325383D01*
X854235Y325330D01*
X854192Y325275D01*
X854152Y325218D01*
X854115Y325158D01*
X854082Y325096D01*
X854052Y325033D01*
X854026Y324968D01*
X854003Y324902D01*
X853984Y324835D01*
X853969Y324766D01*
X853957Y324697D01*
X853949Y324628D01*
X853945Y324558D01*
X853945Y324488D01*
X853949Y324418D01*
X853957Y324349D01*
X853969Y324280D01*
X853984Y324211D01*
X854003Y324144D01*
X854026Y324078D01*
X854052Y324013D01*
X854082Y323950D01*
X854115Y323888D01*
X854152Y323828D01*
X854192Y323771D01*
X854235Y323716D01*
X854281Y323663D01*
X854329Y323613D01*
X854381Y323565D01*
X854435Y323521D01*
X854491Y323479D01*
X854550Y323441D01*
X854611Y323406D01*
X854673Y323374D01*
X854737Y323346D01*
X854803Y323322D01*
X854869Y323301D01*
X854937Y323284D01*
X855006Y323270D01*
X855075Y323261D01*
X855145Y323255D01*
X855215Y323253D01*
X856485Y323253D01*
X852142Y324777D02*
X850872Y325793D01*
X850872Y321221D01*
X852142Y321221D02*
X849602Y321221D01*
X847570Y325285D02*
X847570Y325793D01*
X845030Y325793D01*
X846300Y321221D01*
X835581Y321729D02*
X835581Y326301D01*
X836851Y326301D02*
X834311Y326301D01*
X832355Y326301D02*
X832355Y321729D01*
X832355Y326301D02*
X831085Y326301D01*
X831015Y326299D01*
X830945Y326293D01*
X830876Y326284D01*
X830807Y326270D01*
X830739Y326253D01*
X830673Y326232D01*
X830607Y326208D01*
X830543Y326180D01*
X830481Y326148D01*
X830420Y326113D01*
X830361Y326075D01*
X830305Y326033D01*
X830251Y325989D01*
X830199Y325941D01*
X830151Y325891D01*
X830105Y325838D01*
X830062Y325783D01*
X830022Y325726D01*
X829985Y325666D01*
X829952Y325604D01*
X829922Y325541D01*
X829896Y325476D01*
X829873Y325410D01*
X829854Y325343D01*
X829839Y325274D01*
X829827Y325205D01*
X829819Y325136D01*
X829815Y325066D01*
X829815Y324996D01*
X829819Y324926D01*
X829827Y324857D01*
X829839Y324788D01*
X829854Y324719D01*
X829873Y324652D01*
X829896Y324586D01*
X829922Y324521D01*
X829952Y324458D01*
X829985Y324396D01*
X830022Y324336D01*
X830062Y324279D01*
X830105Y324224D01*
X830151Y324171D01*
X830199Y324121D01*
X830251Y324073D01*
X830305Y324029D01*
X830361Y323987D01*
X830420Y323949D01*
X830481Y323914D01*
X830543Y323882D01*
X830607Y323854D01*
X830673Y323830D01*
X830739Y323809D01*
X830807Y323792D01*
X830876Y323778D01*
X830945Y323769D01*
X831015Y323763D01*
X831085Y323761D01*
X832355Y323761D01*
X828012Y325285D02*
X826742Y326301D01*
X826742Y321729D01*
X828012Y321729D02*
X825472Y321729D01*
X823440Y322999D02*
X823438Y323069D01*
X823432Y323139D01*
X823423Y323208D01*
X823409Y323277D01*
X823392Y323345D01*
X823371Y323411D01*
X823347Y323477D01*
X823319Y323541D01*
X823287Y323603D01*
X823252Y323664D01*
X823214Y323723D01*
X823172Y323779D01*
X823128Y323833D01*
X823080Y323885D01*
X823030Y323933D01*
X822977Y323979D01*
X822922Y324022D01*
X822865Y324062D01*
X822805Y324099D01*
X822743Y324132D01*
X822680Y324162D01*
X822615Y324188D01*
X822549Y324211D01*
X822482Y324230D01*
X822413Y324245D01*
X822344Y324257D01*
X822275Y324265D01*
X822205Y324269D01*
X822135Y324269D01*
X822065Y324265D01*
X821996Y324257D01*
X821927Y324245D01*
X821858Y324230D01*
X821791Y324211D01*
X821725Y324188D01*
X821660Y324162D01*
X821597Y324132D01*
X821535Y324099D01*
X821475Y324062D01*
X821418Y324022D01*
X821363Y323979D01*
X821310Y323933D01*
X821260Y323885D01*
X821212Y323833D01*
X821168Y323779D01*
X821126Y323723D01*
X821088Y323664D01*
X821053Y323603D01*
X821021Y323541D01*
X820993Y323477D01*
X820969Y323411D01*
X820948Y323345D01*
X820931Y323277D01*
X820917Y323208D01*
X820908Y323139D01*
X820902Y323069D01*
X820900Y322999D01*
X820902Y322929D01*
X820908Y322859D01*
X820917Y322790D01*
X820931Y322721D01*
X820948Y322653D01*
X820969Y322587D01*
X820993Y322521D01*
X821021Y322457D01*
X821053Y322395D01*
X821088Y322334D01*
X821126Y322275D01*
X821168Y322219D01*
X821212Y322165D01*
X821260Y322113D01*
X821310Y322065D01*
X821363Y322019D01*
X821418Y321976D01*
X821475Y321936D01*
X821535Y321899D01*
X821597Y321866D01*
X821660Y321836D01*
X821725Y321810D01*
X821791Y321787D01*
X821858Y321768D01*
X821927Y321753D01*
X821996Y321741D01*
X822065Y321733D01*
X822135Y321729D01*
X822205Y321729D01*
X822275Y321733D01*
X822344Y321741D01*
X822413Y321753D01*
X822482Y321768D01*
X822549Y321787D01*
X822615Y321810D01*
X822680Y321836D01*
X822743Y321866D01*
X822805Y321899D01*
X822865Y321936D01*
X822922Y321976D01*
X822977Y322019D01*
X823030Y322065D01*
X823080Y322113D01*
X823128Y322165D01*
X823172Y322219D01*
X823214Y322275D01*
X823252Y322334D01*
X823287Y322395D01*
X823319Y322457D01*
X823347Y322521D01*
X823371Y322587D01*
X823392Y322653D01*
X823409Y322721D01*
X823423Y322790D01*
X823432Y322859D01*
X823438Y322929D01*
X823440Y322999D01*
X823186Y325285D02*
X823184Y325348D01*
X823178Y325410D01*
X823169Y325472D01*
X823155Y325533D01*
X823138Y325593D01*
X823117Y325652D01*
X823093Y325710D01*
X823065Y325766D01*
X823034Y325820D01*
X822999Y325872D01*
X822962Y325922D01*
X822921Y325969D01*
X822877Y326014D01*
X822831Y326057D01*
X822782Y326096D01*
X822731Y326132D01*
X822678Y326165D01*
X822623Y326194D01*
X822566Y326221D01*
X822508Y326243D01*
X822448Y326262D01*
X822387Y326277D01*
X822326Y326289D01*
X822264Y326297D01*
X822201Y326301D01*
X822139Y326301D01*
X822076Y326297D01*
X822014Y326289D01*
X821953Y326277D01*
X821892Y326262D01*
X821832Y326243D01*
X821774Y326221D01*
X821717Y326194D01*
X821662Y326165D01*
X821609Y326132D01*
X821558Y326096D01*
X821509Y326057D01*
X821463Y326014D01*
X821419Y325969D01*
X821378Y325922D01*
X821341Y325872D01*
X821306Y325820D01*
X821275Y325766D01*
X821247Y325710D01*
X821223Y325652D01*
X821202Y325593D01*
X821185Y325533D01*
X821171Y325472D01*
X821162Y325410D01*
X821156Y325348D01*
X821154Y325285D01*
X821156Y325222D01*
X821162Y325160D01*
X821171Y325098D01*
X821185Y325037D01*
X821202Y324977D01*
X821223Y324918D01*
X821247Y324860D01*
X821275Y324804D01*
X821306Y324750D01*
X821341Y324698D01*
X821378Y324648D01*
X821419Y324601D01*
X821463Y324556D01*
X821509Y324513D01*
X821558Y324474D01*
X821609Y324438D01*
X821662Y324405D01*
X821717Y324376D01*
X821774Y324349D01*
X821832Y324327D01*
X821892Y324308D01*
X821953Y324293D01*
X822014Y324281D01*
X822076Y324273D01*
X822139Y324269D01*
X822201Y324269D01*
X822264Y324273D01*
X822326Y324281D01*
X822387Y324293D01*
X822448Y324308D01*
X822508Y324327D01*
X822566Y324349D01*
X822623Y324376D01*
X822678Y324405D01*
X822731Y324438D01*
X822782Y324474D01*
X822831Y324513D01*
X822877Y324556D01*
X822921Y324601D01*
X822962Y324648D01*
X822999Y324698D01*
X823034Y324750D01*
X823065Y324804D01*
X823093Y324860D01*
X823117Y324918D01*
X823138Y324977D01*
X823155Y325037D01*
X823169Y325098D01*
X823178Y325160D01*
X823184Y325222D01*
X823186Y325285D01*
X759691Y235623D02*
X759691Y228511D01*
X761667Y235623D02*
X757716Y235623D01*
X754944Y235623D02*
X754944Y228511D01*
X754944Y235623D02*
X752969Y235623D01*
X752882Y235621D01*
X752794Y235615D01*
X752707Y235606D01*
X752621Y235592D01*
X752535Y235575D01*
X752451Y235554D01*
X752367Y235529D01*
X752284Y235500D01*
X752203Y235468D01*
X752123Y235433D01*
X752045Y235394D01*
X751968Y235351D01*
X751894Y235305D01*
X751822Y235256D01*
X751752Y235204D01*
X751684Y235148D01*
X751619Y235090D01*
X751556Y235029D01*
X751497Y234965D01*
X751440Y234898D01*
X751386Y234830D01*
X751335Y234758D01*
X751288Y234685D01*
X751243Y234610D01*
X751202Y234532D01*
X751165Y234453D01*
X751131Y234373D01*
X751101Y234291D01*
X751074Y234208D01*
X751051Y234123D01*
X751032Y234038D01*
X751017Y233952D01*
X751005Y233865D01*
X750997Y233778D01*
X750993Y233691D01*
X750993Y233603D01*
X750997Y233516D01*
X751005Y233429D01*
X751017Y233342D01*
X751032Y233256D01*
X751051Y233171D01*
X751074Y233086D01*
X751101Y233003D01*
X751131Y232921D01*
X751165Y232841D01*
X751202Y232762D01*
X751243Y232684D01*
X751288Y232609D01*
X751335Y232536D01*
X751386Y232464D01*
X751440Y232396D01*
X751497Y232329D01*
X751556Y232265D01*
X751619Y232204D01*
X751684Y232146D01*
X751752Y232090D01*
X751822Y232038D01*
X751894Y231989D01*
X751968Y231943D01*
X752045Y231900D01*
X752123Y231861D01*
X752203Y231826D01*
X752284Y231794D01*
X752367Y231765D01*
X752451Y231740D01*
X752535Y231719D01*
X752621Y231702D01*
X752707Y231688D01*
X752794Y231679D01*
X752882Y231673D01*
X752969Y231671D01*
X752969Y231672D02*
X754944Y231672D01*
X748408Y234043D02*
X746433Y235623D01*
X746433Y228511D01*
X748408Y228511D02*
X744457Y228511D01*
X739970Y231672D02*
X737599Y231672D01*
X739970Y231672D02*
X740048Y231674D01*
X740125Y231680D01*
X740202Y231689D01*
X740278Y231702D01*
X740354Y231719D01*
X740429Y231740D01*
X740502Y231764D01*
X740575Y231792D01*
X740646Y231824D01*
X740715Y231859D01*
X740782Y231897D01*
X740848Y231938D01*
X740911Y231983D01*
X740972Y232031D01*
X741031Y232081D01*
X741087Y232135D01*
X741141Y232191D01*
X741191Y232250D01*
X741239Y232311D01*
X741284Y232374D01*
X741325Y232440D01*
X741363Y232507D01*
X741398Y232576D01*
X741430Y232647D01*
X741458Y232720D01*
X741482Y232793D01*
X741503Y232868D01*
X741520Y232944D01*
X741533Y233020D01*
X741542Y233097D01*
X741548Y233174D01*
X741550Y233252D01*
X741550Y233647D01*
X741551Y233647D02*
X741549Y233734D01*
X741543Y233822D01*
X741534Y233909D01*
X741520Y233995D01*
X741503Y234081D01*
X741482Y234165D01*
X741457Y234249D01*
X741428Y234332D01*
X741396Y234413D01*
X741361Y234493D01*
X741322Y234571D01*
X741279Y234648D01*
X741233Y234722D01*
X741184Y234794D01*
X741132Y234864D01*
X741076Y234932D01*
X741018Y234997D01*
X740957Y235060D01*
X740893Y235119D01*
X740826Y235176D01*
X740758Y235230D01*
X740686Y235281D01*
X740613Y235328D01*
X740538Y235373D01*
X740460Y235414D01*
X740381Y235451D01*
X740301Y235485D01*
X740219Y235515D01*
X740136Y235542D01*
X740051Y235565D01*
X739966Y235584D01*
X739880Y235599D01*
X739793Y235611D01*
X739706Y235619D01*
X739619Y235623D01*
X739531Y235623D01*
X739444Y235619D01*
X739357Y235611D01*
X739270Y235599D01*
X739184Y235584D01*
X739099Y235565D01*
X739014Y235542D01*
X738931Y235515D01*
X738849Y235485D01*
X738769Y235451D01*
X738690Y235414D01*
X738612Y235373D01*
X738537Y235328D01*
X738464Y235281D01*
X738392Y235230D01*
X738324Y235176D01*
X738257Y235119D01*
X738193Y235060D01*
X738132Y234997D01*
X738074Y234932D01*
X738018Y234864D01*
X737966Y234794D01*
X737917Y234722D01*
X737871Y234648D01*
X737828Y234571D01*
X737789Y234493D01*
X737754Y234413D01*
X737722Y234332D01*
X737693Y234249D01*
X737668Y234165D01*
X737647Y234081D01*
X737630Y233995D01*
X737616Y233909D01*
X737607Y233822D01*
X737601Y233734D01*
X737599Y233647D01*
X737599Y231672D01*
X737601Y231562D01*
X737607Y231451D01*
X737616Y231342D01*
X737630Y231232D01*
X737647Y231123D01*
X737668Y231015D01*
X737693Y230907D01*
X737721Y230801D01*
X737754Y230695D01*
X737790Y230591D01*
X737829Y230488D01*
X737872Y230386D01*
X737919Y230286D01*
X737969Y230188D01*
X738022Y230092D01*
X738079Y229997D01*
X738139Y229904D01*
X738203Y229814D01*
X738269Y229726D01*
X738339Y229640D01*
X738411Y229557D01*
X738486Y229476D01*
X738564Y229398D01*
X738645Y229323D01*
X738728Y229251D01*
X738814Y229181D01*
X738902Y229115D01*
X738992Y229051D01*
X739085Y228991D01*
X739180Y228934D01*
X739276Y228881D01*
X739374Y228831D01*
X739474Y228784D01*
X739576Y228741D01*
X739679Y228702D01*
X739783Y228666D01*
X739889Y228633D01*
X739995Y228605D01*
X740103Y228580D01*
X740211Y228559D01*
X740320Y228542D01*
X740430Y228528D01*
X740539Y228519D01*
X740650Y228513D01*
X740760Y228511D01*
X924537Y37249D02*
X924537Y30137D01*
X926513Y37249D02*
X922562Y37249D01*
X919790Y37249D02*
X919790Y30137D01*
X919790Y37249D02*
X917815Y37249D01*
X917728Y37247D01*
X917640Y37241D01*
X917553Y37232D01*
X917467Y37218D01*
X917381Y37201D01*
X917297Y37180D01*
X917213Y37155D01*
X917130Y37126D01*
X917049Y37094D01*
X916969Y37059D01*
X916891Y37020D01*
X916814Y36977D01*
X916740Y36931D01*
X916668Y36882D01*
X916598Y36830D01*
X916530Y36774D01*
X916465Y36716D01*
X916402Y36655D01*
X916343Y36591D01*
X916286Y36524D01*
X916232Y36456D01*
X916181Y36384D01*
X916134Y36311D01*
X916089Y36236D01*
X916048Y36158D01*
X916011Y36079D01*
X915977Y35999D01*
X915947Y35917D01*
X915920Y35834D01*
X915897Y35749D01*
X915878Y35664D01*
X915863Y35578D01*
X915851Y35491D01*
X915843Y35404D01*
X915839Y35317D01*
X915839Y35229D01*
X915843Y35142D01*
X915851Y35055D01*
X915863Y34968D01*
X915878Y34882D01*
X915897Y34797D01*
X915920Y34712D01*
X915947Y34629D01*
X915977Y34547D01*
X916011Y34467D01*
X916048Y34388D01*
X916089Y34310D01*
X916134Y34235D01*
X916181Y34162D01*
X916232Y34090D01*
X916286Y34022D01*
X916343Y33955D01*
X916402Y33891D01*
X916465Y33830D01*
X916530Y33772D01*
X916598Y33716D01*
X916668Y33664D01*
X916740Y33615D01*
X916814Y33569D01*
X916891Y33526D01*
X916969Y33487D01*
X917049Y33452D01*
X917130Y33420D01*
X917213Y33391D01*
X917297Y33366D01*
X917381Y33345D01*
X917467Y33328D01*
X917553Y33314D01*
X917640Y33305D01*
X917728Y33299D01*
X917815Y33297D01*
X917815Y33298D02*
X919790Y33298D01*
X911081Y37249D02*
X910999Y37247D01*
X910917Y37241D01*
X910835Y37232D01*
X910754Y37219D01*
X910674Y37202D01*
X910594Y37181D01*
X910516Y37157D01*
X910439Y37129D01*
X910363Y37098D01*
X910288Y37063D01*
X910216Y37024D01*
X910145Y36983D01*
X910076Y36938D01*
X910010Y36890D01*
X909945Y36839D01*
X909883Y36785D01*
X909824Y36728D01*
X909767Y36669D01*
X909713Y36607D01*
X909662Y36542D01*
X909614Y36476D01*
X909569Y36407D01*
X909528Y36336D01*
X909489Y36264D01*
X909454Y36189D01*
X909423Y36113D01*
X909395Y36036D01*
X909371Y35958D01*
X909350Y35878D01*
X909333Y35798D01*
X909320Y35717D01*
X909311Y35635D01*
X909305Y35553D01*
X909303Y35471D01*
X911081Y37249D02*
X911174Y37247D01*
X911266Y37241D01*
X911358Y37232D01*
X911450Y37219D01*
X911541Y37202D01*
X911631Y37182D01*
X911721Y37158D01*
X911809Y37130D01*
X911897Y37098D01*
X911982Y37064D01*
X912067Y37025D01*
X912149Y36984D01*
X912230Y36939D01*
X912310Y36890D01*
X912387Y36839D01*
X912462Y36785D01*
X912534Y36727D01*
X912605Y36667D01*
X912672Y36603D01*
X912737Y36538D01*
X912800Y36469D01*
X912859Y36398D01*
X912916Y36325D01*
X912970Y36249D01*
X913020Y36172D01*
X913068Y36092D01*
X913112Y36010D01*
X913152Y35927D01*
X913190Y35842D01*
X913224Y35756D01*
X913254Y35669D01*
X909896Y34088D02*
X909835Y34149D01*
X909777Y34212D01*
X909722Y34278D01*
X909669Y34346D01*
X909620Y34417D01*
X909575Y34489D01*
X909532Y34564D01*
X909493Y34640D01*
X909457Y34719D01*
X909425Y34798D01*
X909397Y34879D01*
X909372Y34962D01*
X909351Y35045D01*
X909334Y35129D01*
X909320Y35214D01*
X909311Y35299D01*
X909305Y35385D01*
X909303Y35471D01*
X909896Y34088D02*
X913254Y30137D01*
X909303Y30137D01*
X906396Y35669D02*
X904421Y37249D01*
X904421Y30137D01*
X906396Y30137D02*
X902445Y30137D01*
X901169Y25565D02*
X901169Y18453D01*
X903145Y25565D02*
X899194Y25565D01*
X896422Y25565D02*
X896422Y18453D01*
X896422Y25565D02*
X894447Y25565D01*
X894360Y25563D01*
X894272Y25557D01*
X894185Y25548D01*
X894099Y25534D01*
X894013Y25517D01*
X893929Y25496D01*
X893845Y25471D01*
X893762Y25442D01*
X893681Y25410D01*
X893601Y25375D01*
X893523Y25336D01*
X893446Y25293D01*
X893372Y25247D01*
X893300Y25198D01*
X893230Y25146D01*
X893162Y25090D01*
X893097Y25032D01*
X893034Y24971D01*
X892975Y24907D01*
X892918Y24840D01*
X892864Y24772D01*
X892813Y24700D01*
X892766Y24627D01*
X892721Y24552D01*
X892680Y24474D01*
X892643Y24395D01*
X892609Y24315D01*
X892579Y24233D01*
X892552Y24150D01*
X892529Y24065D01*
X892510Y23980D01*
X892495Y23894D01*
X892483Y23807D01*
X892475Y23720D01*
X892471Y23633D01*
X892471Y23545D01*
X892475Y23458D01*
X892483Y23371D01*
X892495Y23284D01*
X892510Y23198D01*
X892529Y23113D01*
X892552Y23028D01*
X892579Y22945D01*
X892609Y22863D01*
X892643Y22783D01*
X892680Y22704D01*
X892721Y22626D01*
X892766Y22551D01*
X892813Y22478D01*
X892864Y22406D01*
X892918Y22338D01*
X892975Y22271D01*
X893034Y22207D01*
X893097Y22146D01*
X893162Y22088D01*
X893230Y22032D01*
X893300Y21980D01*
X893372Y21931D01*
X893446Y21885D01*
X893523Y21842D01*
X893601Y21803D01*
X893681Y21768D01*
X893762Y21736D01*
X893845Y21707D01*
X893929Y21682D01*
X894013Y21661D01*
X894099Y21644D01*
X894185Y21630D01*
X894272Y21621D01*
X894360Y21615D01*
X894447Y21613D01*
X894447Y21614D02*
X896422Y21614D01*
X887713Y25565D02*
X887631Y25563D01*
X887549Y25557D01*
X887467Y25548D01*
X887386Y25535D01*
X887306Y25518D01*
X887226Y25497D01*
X887148Y25473D01*
X887071Y25445D01*
X886995Y25414D01*
X886920Y25379D01*
X886848Y25340D01*
X886777Y25299D01*
X886708Y25254D01*
X886642Y25206D01*
X886577Y25155D01*
X886515Y25101D01*
X886456Y25044D01*
X886399Y24985D01*
X886345Y24923D01*
X886294Y24858D01*
X886246Y24792D01*
X886201Y24723D01*
X886160Y24652D01*
X886121Y24580D01*
X886086Y24505D01*
X886055Y24429D01*
X886027Y24352D01*
X886003Y24274D01*
X885982Y24194D01*
X885965Y24114D01*
X885952Y24033D01*
X885943Y23951D01*
X885937Y23869D01*
X885935Y23787D01*
X887713Y25565D02*
X887806Y25563D01*
X887898Y25557D01*
X887990Y25548D01*
X888082Y25535D01*
X888173Y25518D01*
X888263Y25498D01*
X888353Y25474D01*
X888441Y25446D01*
X888529Y25414D01*
X888614Y25380D01*
X888699Y25341D01*
X888781Y25300D01*
X888862Y25255D01*
X888942Y25206D01*
X889019Y25155D01*
X889094Y25101D01*
X889166Y25043D01*
X889237Y24983D01*
X889304Y24919D01*
X889369Y24854D01*
X889432Y24785D01*
X889491Y24714D01*
X889548Y24641D01*
X889602Y24565D01*
X889652Y24488D01*
X889700Y24408D01*
X889744Y24326D01*
X889784Y24243D01*
X889822Y24158D01*
X889856Y24072D01*
X889886Y23985D01*
X886528Y22404D02*
X886467Y22465D01*
X886409Y22528D01*
X886354Y22594D01*
X886301Y22662D01*
X886252Y22733D01*
X886207Y22805D01*
X886164Y22880D01*
X886125Y22956D01*
X886089Y23035D01*
X886057Y23114D01*
X886029Y23195D01*
X886004Y23278D01*
X885983Y23361D01*
X885966Y23445D01*
X885952Y23530D01*
X885943Y23615D01*
X885937Y23701D01*
X885935Y23787D01*
X886528Y22404D02*
X889886Y18453D01*
X885935Y18453D01*
X879077Y23787D02*
X879079Y23869D01*
X879085Y23951D01*
X879094Y24033D01*
X879107Y24114D01*
X879124Y24194D01*
X879145Y24274D01*
X879169Y24352D01*
X879197Y24429D01*
X879228Y24505D01*
X879263Y24580D01*
X879302Y24652D01*
X879343Y24723D01*
X879388Y24792D01*
X879436Y24858D01*
X879487Y24923D01*
X879541Y24985D01*
X879598Y25044D01*
X879657Y25101D01*
X879719Y25155D01*
X879784Y25206D01*
X879850Y25254D01*
X879919Y25299D01*
X879990Y25340D01*
X880062Y25379D01*
X880137Y25414D01*
X880213Y25445D01*
X880290Y25473D01*
X880368Y25497D01*
X880448Y25518D01*
X880528Y25535D01*
X880609Y25548D01*
X880691Y25557D01*
X880773Y25563D01*
X880855Y25565D01*
X880948Y25563D01*
X881040Y25557D01*
X881132Y25548D01*
X881224Y25535D01*
X881315Y25518D01*
X881405Y25498D01*
X881495Y25474D01*
X881583Y25446D01*
X881671Y25414D01*
X881756Y25380D01*
X881841Y25341D01*
X881923Y25300D01*
X882004Y25255D01*
X882084Y25206D01*
X882161Y25155D01*
X882236Y25101D01*
X882308Y25043D01*
X882379Y24983D01*
X882446Y24919D01*
X882511Y24854D01*
X882574Y24785D01*
X882633Y24714D01*
X882690Y24641D01*
X882744Y24565D01*
X882794Y24488D01*
X882842Y24408D01*
X882886Y24326D01*
X882926Y24243D01*
X882964Y24158D01*
X882998Y24072D01*
X883028Y23985D01*
X879670Y22404D02*
X879609Y22465D01*
X879551Y22528D01*
X879496Y22594D01*
X879443Y22662D01*
X879394Y22733D01*
X879349Y22805D01*
X879306Y22880D01*
X879267Y22956D01*
X879231Y23035D01*
X879199Y23114D01*
X879171Y23195D01*
X879146Y23278D01*
X879125Y23361D01*
X879108Y23445D01*
X879094Y23530D01*
X879085Y23615D01*
X879079Y23701D01*
X879077Y23787D01*
X879670Y22404D02*
X883028Y18453D01*
X879077Y18453D01*
X757405Y253149D02*
X757405Y260261D01*
X755430Y260261D02*
X759381Y260261D01*
X752658Y260261D02*
X752658Y253149D01*
X752658Y260261D02*
X750683Y260261D01*
X750596Y260259D01*
X750508Y260253D01*
X750421Y260244D01*
X750335Y260230D01*
X750249Y260213D01*
X750165Y260192D01*
X750081Y260167D01*
X749998Y260138D01*
X749917Y260106D01*
X749837Y260071D01*
X749759Y260032D01*
X749682Y259989D01*
X749608Y259943D01*
X749536Y259894D01*
X749466Y259842D01*
X749398Y259786D01*
X749333Y259728D01*
X749270Y259667D01*
X749211Y259603D01*
X749154Y259536D01*
X749100Y259468D01*
X749049Y259396D01*
X749002Y259323D01*
X748957Y259248D01*
X748916Y259170D01*
X748879Y259091D01*
X748845Y259011D01*
X748815Y258929D01*
X748788Y258846D01*
X748765Y258761D01*
X748746Y258676D01*
X748731Y258590D01*
X748719Y258503D01*
X748711Y258416D01*
X748707Y258329D01*
X748707Y258241D01*
X748711Y258154D01*
X748719Y258067D01*
X748731Y257980D01*
X748746Y257894D01*
X748765Y257809D01*
X748788Y257724D01*
X748815Y257641D01*
X748845Y257559D01*
X748879Y257479D01*
X748916Y257400D01*
X748957Y257322D01*
X749002Y257247D01*
X749049Y257174D01*
X749100Y257102D01*
X749154Y257034D01*
X749211Y256967D01*
X749270Y256903D01*
X749333Y256842D01*
X749398Y256784D01*
X749466Y256728D01*
X749536Y256676D01*
X749608Y256627D01*
X749682Y256581D01*
X749759Y256538D01*
X749837Y256499D01*
X749917Y256464D01*
X749998Y256432D01*
X750081Y256403D01*
X750165Y256378D01*
X750249Y256357D01*
X750335Y256340D01*
X750421Y256326D01*
X750508Y256317D01*
X750596Y256311D01*
X750683Y256309D01*
X750683Y256310D02*
X752658Y256310D01*
X743949Y260261D02*
X743867Y260259D01*
X743785Y260253D01*
X743703Y260244D01*
X743622Y260231D01*
X743542Y260214D01*
X743462Y260193D01*
X743384Y260169D01*
X743307Y260141D01*
X743231Y260110D01*
X743156Y260075D01*
X743084Y260036D01*
X743013Y259995D01*
X742944Y259950D01*
X742878Y259902D01*
X742813Y259851D01*
X742751Y259797D01*
X742692Y259740D01*
X742635Y259681D01*
X742581Y259619D01*
X742530Y259554D01*
X742482Y259488D01*
X742437Y259419D01*
X742396Y259348D01*
X742357Y259276D01*
X742322Y259201D01*
X742291Y259125D01*
X742263Y259048D01*
X742239Y258970D01*
X742218Y258890D01*
X742201Y258810D01*
X742188Y258729D01*
X742179Y258647D01*
X742173Y258565D01*
X742171Y258483D01*
X743949Y260261D02*
X744042Y260259D01*
X744134Y260253D01*
X744226Y260244D01*
X744318Y260231D01*
X744409Y260214D01*
X744499Y260194D01*
X744589Y260170D01*
X744677Y260142D01*
X744765Y260110D01*
X744850Y260076D01*
X744935Y260037D01*
X745017Y259996D01*
X745098Y259951D01*
X745178Y259902D01*
X745255Y259851D01*
X745330Y259797D01*
X745402Y259739D01*
X745473Y259679D01*
X745540Y259615D01*
X745605Y259550D01*
X745668Y259481D01*
X745727Y259410D01*
X745784Y259337D01*
X745838Y259261D01*
X745888Y259184D01*
X745936Y259104D01*
X745980Y259022D01*
X746020Y258939D01*
X746058Y258854D01*
X746092Y258768D01*
X746122Y258681D01*
X742764Y257100D02*
X742703Y257161D01*
X742645Y257224D01*
X742590Y257290D01*
X742537Y257358D01*
X742488Y257429D01*
X742443Y257501D01*
X742400Y257576D01*
X742361Y257652D01*
X742325Y257731D01*
X742293Y257810D01*
X742265Y257891D01*
X742240Y257974D01*
X742219Y258057D01*
X742202Y258141D01*
X742188Y258226D01*
X742179Y258311D01*
X742173Y258397D01*
X742171Y258483D01*
X742764Y257100D02*
X746122Y253149D01*
X742171Y253149D01*
X739264Y253149D02*
X737289Y253149D01*
X737202Y253151D01*
X737114Y253157D01*
X737027Y253166D01*
X736941Y253180D01*
X736855Y253197D01*
X736771Y253218D01*
X736687Y253243D01*
X736604Y253272D01*
X736523Y253304D01*
X736443Y253339D01*
X736365Y253378D01*
X736288Y253421D01*
X736214Y253467D01*
X736142Y253516D01*
X736072Y253568D01*
X736004Y253624D01*
X735939Y253682D01*
X735876Y253743D01*
X735817Y253807D01*
X735760Y253874D01*
X735706Y253942D01*
X735655Y254014D01*
X735608Y254087D01*
X735563Y254162D01*
X735522Y254240D01*
X735485Y254319D01*
X735451Y254399D01*
X735421Y254481D01*
X735394Y254564D01*
X735371Y254649D01*
X735352Y254734D01*
X735337Y254820D01*
X735325Y254907D01*
X735317Y254994D01*
X735313Y255081D01*
X735313Y255169D01*
X735317Y255256D01*
X735325Y255343D01*
X735337Y255430D01*
X735352Y255516D01*
X735371Y255601D01*
X735394Y255686D01*
X735421Y255769D01*
X735451Y255851D01*
X735485Y255931D01*
X735522Y256010D01*
X735563Y256088D01*
X735608Y256163D01*
X735655Y256236D01*
X735706Y256308D01*
X735760Y256376D01*
X735817Y256443D01*
X735876Y256507D01*
X735939Y256568D01*
X736004Y256626D01*
X736072Y256682D01*
X736142Y256734D01*
X736214Y256783D01*
X736288Y256829D01*
X736365Y256872D01*
X736443Y256911D01*
X736523Y256946D01*
X736604Y256978D01*
X736687Y257007D01*
X736771Y257032D01*
X736855Y257053D01*
X736941Y257070D01*
X737027Y257084D01*
X737114Y257093D01*
X737202Y257099D01*
X737289Y257101D01*
X736894Y260261D02*
X739264Y260261D01*
X736894Y260261D02*
X736815Y260259D01*
X736737Y260253D01*
X736659Y260243D01*
X736581Y260230D01*
X736504Y260212D01*
X736428Y260191D01*
X736354Y260166D01*
X736280Y260137D01*
X736208Y260105D01*
X736138Y260069D01*
X736070Y260029D01*
X736004Y259986D01*
X735940Y259940D01*
X735878Y259891D01*
X735819Y259839D01*
X735763Y259784D01*
X735709Y259726D01*
X735659Y259666D01*
X735611Y259603D01*
X735567Y259538D01*
X735526Y259471D01*
X735488Y259402D01*
X735454Y259331D01*
X735423Y259258D01*
X735396Y259184D01*
X735373Y259109D01*
X735354Y259033D01*
X735338Y258955D01*
X735326Y258877D01*
X735318Y258799D01*
X735314Y258720D01*
X735314Y258642D01*
X735318Y258563D01*
X735326Y258485D01*
X735338Y258407D01*
X735354Y258329D01*
X735373Y258253D01*
X735396Y258178D01*
X735423Y258104D01*
X735454Y258031D01*
X735488Y257960D01*
X735526Y257891D01*
X735567Y257824D01*
X735611Y257759D01*
X735659Y257696D01*
X735709Y257636D01*
X735763Y257578D01*
X735819Y257523D01*
X735878Y257471D01*
X735940Y257422D01*
X736004Y257376D01*
X736070Y257333D01*
X736138Y257293D01*
X736208Y257257D01*
X736280Y257225D01*
X736354Y257196D01*
X736428Y257171D01*
X736504Y257150D01*
X736581Y257132D01*
X736659Y257119D01*
X736737Y257109D01*
X736815Y257103D01*
X736894Y257101D01*
X736894Y257100D02*
X738474Y257100D01*
X737339Y269913D02*
X737339Y277025D01*
X735364Y277025D02*
X739315Y277025D01*
X732592Y277025D02*
X732592Y269913D01*
X732592Y277025D02*
X730617Y277025D01*
X730530Y277023D01*
X730442Y277017D01*
X730355Y277008D01*
X730269Y276994D01*
X730183Y276977D01*
X730099Y276956D01*
X730015Y276931D01*
X729932Y276902D01*
X729851Y276870D01*
X729771Y276835D01*
X729693Y276796D01*
X729616Y276753D01*
X729542Y276707D01*
X729470Y276658D01*
X729400Y276606D01*
X729332Y276550D01*
X729267Y276492D01*
X729204Y276431D01*
X729145Y276367D01*
X729088Y276300D01*
X729034Y276232D01*
X728983Y276160D01*
X728936Y276087D01*
X728891Y276012D01*
X728850Y275934D01*
X728813Y275855D01*
X728779Y275775D01*
X728749Y275693D01*
X728722Y275610D01*
X728699Y275525D01*
X728680Y275440D01*
X728665Y275354D01*
X728653Y275267D01*
X728645Y275180D01*
X728641Y275093D01*
X728641Y275005D01*
X728645Y274918D01*
X728653Y274831D01*
X728665Y274744D01*
X728680Y274658D01*
X728699Y274573D01*
X728722Y274488D01*
X728749Y274405D01*
X728779Y274323D01*
X728813Y274243D01*
X728850Y274164D01*
X728891Y274086D01*
X728936Y274011D01*
X728983Y273938D01*
X729034Y273866D01*
X729088Y273798D01*
X729145Y273731D01*
X729204Y273667D01*
X729267Y273606D01*
X729332Y273548D01*
X729400Y273492D01*
X729470Y273440D01*
X729542Y273391D01*
X729616Y273345D01*
X729693Y273302D01*
X729771Y273263D01*
X729851Y273228D01*
X729932Y273196D01*
X730015Y273167D01*
X730099Y273142D01*
X730183Y273121D01*
X730269Y273104D01*
X730355Y273090D01*
X730442Y273081D01*
X730530Y273075D01*
X730617Y273073D01*
X730617Y273074D02*
X732592Y273074D01*
X723883Y277025D02*
X723801Y277023D01*
X723719Y277017D01*
X723637Y277008D01*
X723556Y276995D01*
X723476Y276978D01*
X723396Y276957D01*
X723318Y276933D01*
X723241Y276905D01*
X723165Y276874D01*
X723090Y276839D01*
X723018Y276800D01*
X722947Y276759D01*
X722878Y276714D01*
X722812Y276666D01*
X722747Y276615D01*
X722685Y276561D01*
X722626Y276504D01*
X722569Y276445D01*
X722515Y276383D01*
X722464Y276318D01*
X722416Y276252D01*
X722371Y276183D01*
X722330Y276112D01*
X722291Y276040D01*
X722256Y275965D01*
X722225Y275889D01*
X722197Y275812D01*
X722173Y275734D01*
X722152Y275654D01*
X722135Y275574D01*
X722122Y275493D01*
X722113Y275411D01*
X722107Y275329D01*
X722105Y275247D01*
X723883Y277025D02*
X723976Y277023D01*
X724068Y277017D01*
X724160Y277008D01*
X724252Y276995D01*
X724343Y276978D01*
X724433Y276958D01*
X724523Y276934D01*
X724611Y276906D01*
X724699Y276874D01*
X724784Y276840D01*
X724869Y276801D01*
X724951Y276760D01*
X725032Y276715D01*
X725112Y276666D01*
X725189Y276615D01*
X725264Y276561D01*
X725336Y276503D01*
X725407Y276443D01*
X725474Y276379D01*
X725539Y276314D01*
X725602Y276245D01*
X725661Y276174D01*
X725718Y276101D01*
X725772Y276025D01*
X725822Y275948D01*
X725870Y275868D01*
X725914Y275786D01*
X725954Y275703D01*
X725992Y275618D01*
X726026Y275532D01*
X726056Y275445D01*
X722698Y273864D02*
X722637Y273925D01*
X722579Y273988D01*
X722524Y274054D01*
X722471Y274122D01*
X722422Y274193D01*
X722377Y274265D01*
X722334Y274340D01*
X722295Y274416D01*
X722259Y274495D01*
X722227Y274574D01*
X722199Y274655D01*
X722174Y274738D01*
X722153Y274821D01*
X722136Y274905D01*
X722122Y274990D01*
X722113Y275075D01*
X722107Y275161D01*
X722105Y275247D01*
X722698Y273864D02*
X726056Y269913D01*
X722105Y269913D01*
X719198Y271493D02*
X717618Y277025D01*
X719198Y271493D02*
X715247Y271493D01*
X716433Y269913D02*
X716433Y273074D01*
X650979Y152565D02*
X650979Y145453D01*
X652955Y152565D02*
X649004Y152565D01*
X646232Y152565D02*
X646232Y145453D01*
X646232Y152565D02*
X644257Y152565D01*
X644170Y152563D01*
X644082Y152557D01*
X643995Y152548D01*
X643909Y152534D01*
X643823Y152517D01*
X643739Y152496D01*
X643655Y152471D01*
X643572Y152442D01*
X643491Y152410D01*
X643411Y152375D01*
X643333Y152336D01*
X643256Y152293D01*
X643182Y152247D01*
X643110Y152198D01*
X643040Y152146D01*
X642972Y152090D01*
X642907Y152032D01*
X642844Y151971D01*
X642785Y151907D01*
X642728Y151840D01*
X642674Y151772D01*
X642623Y151700D01*
X642576Y151627D01*
X642531Y151552D01*
X642490Y151474D01*
X642453Y151395D01*
X642419Y151315D01*
X642389Y151233D01*
X642362Y151150D01*
X642339Y151065D01*
X642320Y150980D01*
X642305Y150894D01*
X642293Y150807D01*
X642285Y150720D01*
X642281Y150633D01*
X642281Y150545D01*
X642285Y150458D01*
X642293Y150371D01*
X642305Y150284D01*
X642320Y150198D01*
X642339Y150113D01*
X642362Y150028D01*
X642389Y149945D01*
X642419Y149863D01*
X642453Y149783D01*
X642490Y149704D01*
X642531Y149626D01*
X642576Y149551D01*
X642623Y149478D01*
X642674Y149406D01*
X642728Y149338D01*
X642785Y149271D01*
X642844Y149207D01*
X642907Y149146D01*
X642972Y149088D01*
X643040Y149032D01*
X643110Y148980D01*
X643182Y148931D01*
X643256Y148885D01*
X643333Y148842D01*
X643411Y148803D01*
X643491Y148768D01*
X643572Y148736D01*
X643655Y148707D01*
X643739Y148682D01*
X643823Y148661D01*
X643909Y148644D01*
X643995Y148630D01*
X644082Y148621D01*
X644170Y148615D01*
X644257Y148613D01*
X644257Y148614D02*
X646232Y148614D01*
X637523Y152565D02*
X637441Y152563D01*
X637359Y152557D01*
X637277Y152548D01*
X637196Y152535D01*
X637116Y152518D01*
X637036Y152497D01*
X636958Y152473D01*
X636881Y152445D01*
X636805Y152414D01*
X636730Y152379D01*
X636658Y152340D01*
X636587Y152299D01*
X636518Y152254D01*
X636452Y152206D01*
X636387Y152155D01*
X636325Y152101D01*
X636266Y152044D01*
X636209Y151985D01*
X636155Y151923D01*
X636104Y151858D01*
X636056Y151792D01*
X636011Y151723D01*
X635970Y151652D01*
X635931Y151580D01*
X635896Y151505D01*
X635865Y151429D01*
X635837Y151352D01*
X635813Y151274D01*
X635792Y151194D01*
X635775Y151114D01*
X635762Y151033D01*
X635753Y150951D01*
X635747Y150869D01*
X635745Y150787D01*
X637523Y152565D02*
X637616Y152563D01*
X637708Y152557D01*
X637800Y152548D01*
X637892Y152535D01*
X637983Y152518D01*
X638073Y152498D01*
X638163Y152474D01*
X638251Y152446D01*
X638339Y152414D01*
X638424Y152380D01*
X638509Y152341D01*
X638591Y152300D01*
X638672Y152255D01*
X638752Y152206D01*
X638829Y152155D01*
X638904Y152101D01*
X638976Y152043D01*
X639047Y151983D01*
X639114Y151919D01*
X639179Y151854D01*
X639242Y151785D01*
X639301Y151714D01*
X639358Y151641D01*
X639412Y151565D01*
X639462Y151488D01*
X639510Y151408D01*
X639554Y151326D01*
X639594Y151243D01*
X639632Y151158D01*
X639666Y151072D01*
X639696Y150985D01*
X636338Y149404D02*
X636277Y149465D01*
X636219Y149528D01*
X636164Y149594D01*
X636111Y149662D01*
X636062Y149733D01*
X636017Y149805D01*
X635974Y149880D01*
X635935Y149956D01*
X635899Y150035D01*
X635867Y150114D01*
X635839Y150195D01*
X635814Y150278D01*
X635793Y150361D01*
X635776Y150445D01*
X635762Y150530D01*
X635753Y150615D01*
X635747Y150701D01*
X635745Y150787D01*
X636338Y149404D02*
X639696Y145453D01*
X635745Y145453D01*
X632838Y145453D02*
X630468Y145453D01*
X630390Y145455D01*
X630313Y145461D01*
X630236Y145470D01*
X630160Y145483D01*
X630084Y145500D01*
X630009Y145521D01*
X629936Y145545D01*
X629863Y145573D01*
X629792Y145605D01*
X629723Y145640D01*
X629656Y145678D01*
X629590Y145719D01*
X629527Y145764D01*
X629466Y145812D01*
X629407Y145862D01*
X629351Y145916D01*
X629297Y145972D01*
X629247Y146031D01*
X629199Y146092D01*
X629154Y146155D01*
X629113Y146221D01*
X629075Y146288D01*
X629040Y146357D01*
X629008Y146428D01*
X628980Y146501D01*
X628956Y146574D01*
X628935Y146649D01*
X628918Y146725D01*
X628905Y146801D01*
X628896Y146878D01*
X628890Y146955D01*
X628888Y147033D01*
X628887Y147033D02*
X628887Y147824D01*
X628888Y147824D02*
X628890Y147902D01*
X628896Y147979D01*
X628905Y148056D01*
X628918Y148132D01*
X628935Y148208D01*
X628956Y148283D01*
X628980Y148356D01*
X629008Y148429D01*
X629040Y148500D01*
X629075Y148569D01*
X629113Y148636D01*
X629154Y148702D01*
X629199Y148765D01*
X629247Y148826D01*
X629297Y148885D01*
X629351Y148941D01*
X629407Y148995D01*
X629466Y149045D01*
X629527Y149093D01*
X629590Y149138D01*
X629656Y149179D01*
X629723Y149217D01*
X629792Y149252D01*
X629863Y149284D01*
X629936Y149312D01*
X630009Y149336D01*
X630084Y149357D01*
X630160Y149374D01*
X630236Y149387D01*
X630313Y149396D01*
X630390Y149402D01*
X630468Y149404D01*
X632838Y149404D01*
X632838Y152565D01*
X628887Y152565D01*
X141963Y74333D02*
X141963Y67221D01*
X143939Y74333D02*
X139988Y74333D01*
X137216Y74333D02*
X137216Y67221D01*
X137216Y74333D02*
X135241Y74333D01*
X135154Y74331D01*
X135066Y74325D01*
X134979Y74316D01*
X134893Y74302D01*
X134807Y74285D01*
X134723Y74264D01*
X134639Y74239D01*
X134556Y74210D01*
X134475Y74178D01*
X134395Y74143D01*
X134317Y74104D01*
X134240Y74061D01*
X134166Y74015D01*
X134094Y73966D01*
X134024Y73914D01*
X133956Y73858D01*
X133891Y73800D01*
X133828Y73739D01*
X133769Y73675D01*
X133712Y73608D01*
X133658Y73540D01*
X133607Y73468D01*
X133560Y73395D01*
X133515Y73320D01*
X133474Y73242D01*
X133437Y73163D01*
X133403Y73083D01*
X133373Y73001D01*
X133346Y72918D01*
X133323Y72833D01*
X133304Y72748D01*
X133289Y72662D01*
X133277Y72575D01*
X133269Y72488D01*
X133265Y72401D01*
X133265Y72313D01*
X133269Y72226D01*
X133277Y72139D01*
X133289Y72052D01*
X133304Y71966D01*
X133323Y71881D01*
X133346Y71796D01*
X133373Y71713D01*
X133403Y71631D01*
X133437Y71551D01*
X133474Y71472D01*
X133515Y71394D01*
X133560Y71319D01*
X133607Y71246D01*
X133658Y71174D01*
X133712Y71106D01*
X133769Y71039D01*
X133828Y70975D01*
X133891Y70914D01*
X133956Y70856D01*
X134024Y70800D01*
X134094Y70748D01*
X134166Y70699D01*
X134240Y70653D01*
X134317Y70610D01*
X134395Y70571D01*
X134475Y70536D01*
X134556Y70504D01*
X134639Y70475D01*
X134723Y70450D01*
X134807Y70429D01*
X134893Y70412D01*
X134979Y70398D01*
X135066Y70389D01*
X135154Y70383D01*
X135241Y70381D01*
X135241Y70382D02*
X137216Y70382D01*
X128507Y74333D02*
X128425Y74331D01*
X128343Y74325D01*
X128261Y74316D01*
X128180Y74303D01*
X128100Y74286D01*
X128020Y74265D01*
X127942Y74241D01*
X127865Y74213D01*
X127789Y74182D01*
X127714Y74147D01*
X127642Y74108D01*
X127571Y74067D01*
X127502Y74022D01*
X127436Y73974D01*
X127371Y73923D01*
X127309Y73869D01*
X127250Y73812D01*
X127193Y73753D01*
X127139Y73691D01*
X127088Y73626D01*
X127040Y73560D01*
X126995Y73491D01*
X126954Y73420D01*
X126915Y73348D01*
X126880Y73273D01*
X126849Y73197D01*
X126821Y73120D01*
X126797Y73042D01*
X126776Y72962D01*
X126759Y72882D01*
X126746Y72801D01*
X126737Y72719D01*
X126731Y72637D01*
X126729Y72555D01*
X128507Y74333D02*
X128600Y74331D01*
X128692Y74325D01*
X128784Y74316D01*
X128876Y74303D01*
X128967Y74286D01*
X129057Y74266D01*
X129147Y74242D01*
X129235Y74214D01*
X129323Y74182D01*
X129408Y74148D01*
X129493Y74109D01*
X129575Y74068D01*
X129656Y74023D01*
X129736Y73974D01*
X129813Y73923D01*
X129888Y73869D01*
X129960Y73811D01*
X130031Y73751D01*
X130098Y73687D01*
X130163Y73622D01*
X130226Y73553D01*
X130285Y73482D01*
X130342Y73409D01*
X130396Y73333D01*
X130446Y73256D01*
X130494Y73176D01*
X130538Y73094D01*
X130578Y73011D01*
X130616Y72926D01*
X130650Y72840D01*
X130680Y72753D01*
X127322Y71172D02*
X127261Y71233D01*
X127203Y71296D01*
X127148Y71362D01*
X127095Y71430D01*
X127046Y71501D01*
X127001Y71573D01*
X126958Y71648D01*
X126919Y71724D01*
X126883Y71803D01*
X126851Y71882D01*
X126823Y71963D01*
X126798Y72046D01*
X126777Y72129D01*
X126760Y72213D01*
X126746Y72298D01*
X126737Y72383D01*
X126731Y72469D01*
X126729Y72555D01*
X127322Y71172D02*
X130680Y67221D01*
X126729Y67221D01*
X123822Y71172D02*
X121452Y71172D01*
X121374Y71170D01*
X121297Y71164D01*
X121220Y71155D01*
X121144Y71142D01*
X121068Y71125D01*
X120993Y71104D01*
X120920Y71080D01*
X120847Y71052D01*
X120776Y71020D01*
X120707Y70985D01*
X120640Y70947D01*
X120574Y70906D01*
X120511Y70861D01*
X120450Y70813D01*
X120391Y70763D01*
X120335Y70709D01*
X120281Y70653D01*
X120231Y70594D01*
X120183Y70533D01*
X120138Y70470D01*
X120097Y70404D01*
X120059Y70337D01*
X120024Y70268D01*
X119992Y70197D01*
X119964Y70124D01*
X119940Y70051D01*
X119919Y69976D01*
X119902Y69900D01*
X119889Y69824D01*
X119880Y69747D01*
X119874Y69670D01*
X119872Y69592D01*
X119871Y69592D02*
X119871Y69197D01*
X119873Y69110D01*
X119879Y69022D01*
X119888Y68935D01*
X119902Y68849D01*
X119919Y68763D01*
X119940Y68679D01*
X119965Y68595D01*
X119994Y68512D01*
X120026Y68431D01*
X120061Y68351D01*
X120100Y68273D01*
X120143Y68196D01*
X120189Y68122D01*
X120238Y68050D01*
X120290Y67980D01*
X120346Y67912D01*
X120404Y67847D01*
X120465Y67784D01*
X120529Y67725D01*
X120596Y67668D01*
X120664Y67614D01*
X120736Y67563D01*
X120809Y67516D01*
X120884Y67471D01*
X120962Y67430D01*
X121041Y67393D01*
X121121Y67359D01*
X121203Y67329D01*
X121286Y67302D01*
X121371Y67279D01*
X121456Y67260D01*
X121542Y67245D01*
X121629Y67233D01*
X121716Y67225D01*
X121803Y67221D01*
X121891Y67221D01*
X121978Y67225D01*
X122065Y67233D01*
X122152Y67245D01*
X122238Y67260D01*
X122323Y67279D01*
X122408Y67302D01*
X122491Y67329D01*
X122573Y67359D01*
X122653Y67393D01*
X122732Y67430D01*
X122810Y67471D01*
X122885Y67516D01*
X122958Y67563D01*
X123030Y67614D01*
X123098Y67668D01*
X123165Y67725D01*
X123229Y67784D01*
X123290Y67847D01*
X123348Y67912D01*
X123404Y67980D01*
X123456Y68050D01*
X123505Y68122D01*
X123551Y68196D01*
X123594Y68273D01*
X123633Y68351D01*
X123668Y68431D01*
X123700Y68512D01*
X123729Y68595D01*
X123754Y68679D01*
X123775Y68763D01*
X123792Y68849D01*
X123806Y68935D01*
X123815Y69022D01*
X123821Y69110D01*
X123823Y69197D01*
X123822Y69197D02*
X123822Y71172D01*
X123820Y71282D01*
X123814Y71393D01*
X123805Y71502D01*
X123791Y71612D01*
X123774Y71721D01*
X123753Y71829D01*
X123728Y71937D01*
X123700Y72043D01*
X123667Y72149D01*
X123631Y72253D01*
X123592Y72356D01*
X123549Y72458D01*
X123502Y72558D01*
X123452Y72656D01*
X123399Y72753D01*
X123342Y72847D01*
X123282Y72940D01*
X123218Y73030D01*
X123152Y73118D01*
X123082Y73204D01*
X123010Y73287D01*
X122935Y73368D01*
X122857Y73446D01*
X122776Y73521D01*
X122693Y73593D01*
X122607Y73663D01*
X122519Y73729D01*
X122429Y73793D01*
X122336Y73853D01*
X122242Y73910D01*
X122145Y73963D01*
X122047Y74013D01*
X121947Y74060D01*
X121845Y74103D01*
X121742Y74142D01*
X121638Y74178D01*
X121532Y74211D01*
X121426Y74239D01*
X121318Y74264D01*
X121210Y74285D01*
X121101Y74302D01*
X120991Y74316D01*
X120882Y74325D01*
X120771Y74331D01*
X120661Y74333D01*
X140439Y328841D02*
X140439Y335953D01*
X138464Y335953D02*
X142415Y335953D01*
X135692Y335953D02*
X135692Y328841D01*
X135692Y335953D02*
X133717Y335953D01*
X133630Y335951D01*
X133542Y335945D01*
X133455Y335936D01*
X133369Y335922D01*
X133283Y335905D01*
X133199Y335884D01*
X133115Y335859D01*
X133032Y335830D01*
X132951Y335798D01*
X132871Y335763D01*
X132793Y335724D01*
X132716Y335681D01*
X132642Y335635D01*
X132570Y335586D01*
X132500Y335534D01*
X132432Y335478D01*
X132367Y335420D01*
X132304Y335359D01*
X132245Y335295D01*
X132188Y335228D01*
X132134Y335160D01*
X132083Y335088D01*
X132036Y335015D01*
X131991Y334940D01*
X131950Y334862D01*
X131913Y334783D01*
X131879Y334703D01*
X131849Y334621D01*
X131822Y334538D01*
X131799Y334453D01*
X131780Y334368D01*
X131765Y334282D01*
X131753Y334195D01*
X131745Y334108D01*
X131741Y334021D01*
X131741Y333933D01*
X131745Y333846D01*
X131753Y333759D01*
X131765Y333672D01*
X131780Y333586D01*
X131799Y333501D01*
X131822Y333416D01*
X131849Y333333D01*
X131879Y333251D01*
X131913Y333171D01*
X131950Y333092D01*
X131991Y333014D01*
X132036Y332939D01*
X132083Y332866D01*
X132134Y332794D01*
X132188Y332726D01*
X132245Y332659D01*
X132304Y332595D01*
X132367Y332534D01*
X132432Y332476D01*
X132500Y332420D01*
X132570Y332368D01*
X132642Y332319D01*
X132716Y332273D01*
X132793Y332230D01*
X132871Y332191D01*
X132951Y332156D01*
X133032Y332124D01*
X133115Y332095D01*
X133199Y332070D01*
X133283Y332049D01*
X133369Y332032D01*
X133455Y332018D01*
X133542Y332009D01*
X133630Y332003D01*
X133717Y332001D01*
X133717Y332002D02*
X135692Y332002D01*
X126983Y335953D02*
X126901Y335951D01*
X126819Y335945D01*
X126737Y335936D01*
X126656Y335923D01*
X126576Y335906D01*
X126496Y335885D01*
X126418Y335861D01*
X126341Y335833D01*
X126265Y335802D01*
X126190Y335767D01*
X126118Y335728D01*
X126047Y335687D01*
X125978Y335642D01*
X125912Y335594D01*
X125847Y335543D01*
X125785Y335489D01*
X125726Y335432D01*
X125669Y335373D01*
X125615Y335311D01*
X125564Y335246D01*
X125516Y335180D01*
X125471Y335111D01*
X125430Y335040D01*
X125391Y334968D01*
X125356Y334893D01*
X125325Y334817D01*
X125297Y334740D01*
X125273Y334662D01*
X125252Y334582D01*
X125235Y334502D01*
X125222Y334421D01*
X125213Y334339D01*
X125207Y334257D01*
X125205Y334175D01*
X126983Y335953D02*
X127076Y335951D01*
X127168Y335945D01*
X127260Y335936D01*
X127352Y335923D01*
X127443Y335906D01*
X127533Y335886D01*
X127623Y335862D01*
X127711Y335834D01*
X127799Y335802D01*
X127884Y335768D01*
X127969Y335729D01*
X128051Y335688D01*
X128132Y335643D01*
X128212Y335594D01*
X128289Y335543D01*
X128364Y335489D01*
X128436Y335431D01*
X128507Y335371D01*
X128574Y335307D01*
X128639Y335242D01*
X128702Y335173D01*
X128761Y335102D01*
X128818Y335029D01*
X128872Y334953D01*
X128922Y334876D01*
X128970Y334796D01*
X129014Y334714D01*
X129054Y334631D01*
X129092Y334546D01*
X129126Y334460D01*
X129156Y334373D01*
X125798Y332792D02*
X125737Y332853D01*
X125679Y332916D01*
X125624Y332982D01*
X125571Y333050D01*
X125522Y333121D01*
X125477Y333193D01*
X125434Y333268D01*
X125395Y333344D01*
X125359Y333423D01*
X125327Y333502D01*
X125299Y333583D01*
X125274Y333666D01*
X125253Y333749D01*
X125236Y333833D01*
X125222Y333918D01*
X125213Y334003D01*
X125207Y334089D01*
X125205Y334175D01*
X125798Y332792D02*
X129156Y328841D01*
X125205Y328841D01*
X122298Y335163D02*
X122298Y335953D01*
X118347Y335953D01*
X120323Y328841D01*
X34521Y145707D02*
X34521Y138595D01*
X36497Y145707D02*
X32546Y145707D01*
X29774Y145707D02*
X29774Y138595D01*
X29774Y145707D02*
X27799Y145707D01*
X27712Y145705D01*
X27624Y145699D01*
X27537Y145690D01*
X27451Y145676D01*
X27365Y145659D01*
X27281Y145638D01*
X27197Y145613D01*
X27114Y145584D01*
X27033Y145552D01*
X26953Y145517D01*
X26875Y145478D01*
X26798Y145435D01*
X26724Y145389D01*
X26652Y145340D01*
X26582Y145288D01*
X26514Y145232D01*
X26449Y145174D01*
X26386Y145113D01*
X26327Y145049D01*
X26270Y144982D01*
X26216Y144914D01*
X26165Y144842D01*
X26118Y144769D01*
X26073Y144694D01*
X26032Y144616D01*
X25995Y144537D01*
X25961Y144457D01*
X25931Y144375D01*
X25904Y144292D01*
X25881Y144207D01*
X25862Y144122D01*
X25847Y144036D01*
X25835Y143949D01*
X25827Y143862D01*
X25823Y143775D01*
X25823Y143687D01*
X25827Y143600D01*
X25835Y143513D01*
X25847Y143426D01*
X25862Y143340D01*
X25881Y143255D01*
X25904Y143170D01*
X25931Y143087D01*
X25961Y143005D01*
X25995Y142925D01*
X26032Y142846D01*
X26073Y142768D01*
X26118Y142693D01*
X26165Y142620D01*
X26216Y142548D01*
X26270Y142480D01*
X26327Y142413D01*
X26386Y142349D01*
X26449Y142288D01*
X26514Y142230D01*
X26582Y142174D01*
X26652Y142122D01*
X26724Y142073D01*
X26798Y142027D01*
X26875Y141984D01*
X26953Y141945D01*
X27033Y141910D01*
X27114Y141878D01*
X27197Y141849D01*
X27281Y141824D01*
X27365Y141803D01*
X27451Y141786D01*
X27537Y141772D01*
X27624Y141763D01*
X27712Y141757D01*
X27799Y141755D01*
X27799Y141756D02*
X29774Y141756D01*
X21065Y145707D02*
X20983Y145705D01*
X20901Y145699D01*
X20819Y145690D01*
X20738Y145677D01*
X20658Y145660D01*
X20578Y145639D01*
X20500Y145615D01*
X20423Y145587D01*
X20347Y145556D01*
X20272Y145521D01*
X20200Y145482D01*
X20129Y145441D01*
X20060Y145396D01*
X19994Y145348D01*
X19929Y145297D01*
X19867Y145243D01*
X19808Y145186D01*
X19751Y145127D01*
X19697Y145065D01*
X19646Y145000D01*
X19598Y144934D01*
X19553Y144865D01*
X19512Y144794D01*
X19473Y144722D01*
X19438Y144647D01*
X19407Y144571D01*
X19379Y144494D01*
X19355Y144416D01*
X19334Y144336D01*
X19317Y144256D01*
X19304Y144175D01*
X19295Y144093D01*
X19289Y144011D01*
X19287Y143929D01*
X21065Y145707D02*
X21158Y145705D01*
X21250Y145699D01*
X21342Y145690D01*
X21434Y145677D01*
X21525Y145660D01*
X21615Y145640D01*
X21705Y145616D01*
X21793Y145588D01*
X21881Y145556D01*
X21966Y145522D01*
X22051Y145483D01*
X22133Y145442D01*
X22214Y145397D01*
X22294Y145348D01*
X22371Y145297D01*
X22446Y145243D01*
X22518Y145185D01*
X22589Y145125D01*
X22656Y145061D01*
X22721Y144996D01*
X22784Y144927D01*
X22843Y144856D01*
X22900Y144783D01*
X22954Y144707D01*
X23004Y144630D01*
X23052Y144550D01*
X23096Y144468D01*
X23136Y144385D01*
X23174Y144300D01*
X23208Y144214D01*
X23238Y144127D01*
X19880Y142546D02*
X19819Y142607D01*
X19761Y142670D01*
X19706Y142736D01*
X19653Y142804D01*
X19604Y142875D01*
X19559Y142947D01*
X19516Y143022D01*
X19477Y143098D01*
X19441Y143177D01*
X19409Y143256D01*
X19381Y143337D01*
X19356Y143420D01*
X19335Y143503D01*
X19318Y143587D01*
X19304Y143672D01*
X19295Y143757D01*
X19289Y143843D01*
X19287Y143929D01*
X19880Y142546D02*
X23238Y138595D01*
X19287Y138595D01*
X16381Y140571D02*
X16379Y140658D01*
X16373Y140746D01*
X16364Y140833D01*
X16350Y140919D01*
X16333Y141005D01*
X16312Y141089D01*
X16287Y141173D01*
X16258Y141256D01*
X16226Y141337D01*
X16191Y141417D01*
X16152Y141495D01*
X16109Y141572D01*
X16063Y141646D01*
X16014Y141718D01*
X15962Y141788D01*
X15906Y141856D01*
X15848Y141921D01*
X15787Y141984D01*
X15723Y142043D01*
X15656Y142100D01*
X15588Y142154D01*
X15516Y142205D01*
X15443Y142252D01*
X15368Y142297D01*
X15290Y142338D01*
X15211Y142375D01*
X15131Y142409D01*
X15049Y142439D01*
X14966Y142466D01*
X14881Y142489D01*
X14796Y142508D01*
X14710Y142523D01*
X14623Y142535D01*
X14536Y142543D01*
X14449Y142547D01*
X14361Y142547D01*
X14274Y142543D01*
X14187Y142535D01*
X14100Y142523D01*
X14014Y142508D01*
X13929Y142489D01*
X13844Y142466D01*
X13761Y142439D01*
X13679Y142409D01*
X13599Y142375D01*
X13520Y142338D01*
X13442Y142297D01*
X13367Y142252D01*
X13294Y142205D01*
X13222Y142154D01*
X13154Y142100D01*
X13087Y142043D01*
X13023Y141984D01*
X12962Y141921D01*
X12904Y141856D01*
X12848Y141788D01*
X12796Y141718D01*
X12747Y141646D01*
X12701Y141572D01*
X12658Y141495D01*
X12619Y141417D01*
X12584Y141337D01*
X12552Y141256D01*
X12523Y141173D01*
X12498Y141089D01*
X12477Y141005D01*
X12460Y140919D01*
X12446Y140833D01*
X12437Y140746D01*
X12431Y140658D01*
X12429Y140571D01*
X12431Y140484D01*
X12437Y140396D01*
X12446Y140309D01*
X12460Y140223D01*
X12477Y140137D01*
X12498Y140053D01*
X12523Y139969D01*
X12552Y139886D01*
X12584Y139805D01*
X12619Y139725D01*
X12658Y139647D01*
X12701Y139570D01*
X12747Y139496D01*
X12796Y139424D01*
X12848Y139354D01*
X12904Y139286D01*
X12962Y139221D01*
X13023Y139158D01*
X13087Y139099D01*
X13154Y139042D01*
X13222Y138988D01*
X13294Y138937D01*
X13367Y138890D01*
X13442Y138845D01*
X13520Y138804D01*
X13599Y138767D01*
X13679Y138733D01*
X13761Y138703D01*
X13844Y138676D01*
X13929Y138653D01*
X14014Y138634D01*
X14100Y138619D01*
X14187Y138607D01*
X14274Y138599D01*
X14361Y138595D01*
X14449Y138595D01*
X14536Y138599D01*
X14623Y138607D01*
X14710Y138619D01*
X14796Y138634D01*
X14881Y138653D01*
X14966Y138676D01*
X15049Y138703D01*
X15131Y138733D01*
X15211Y138767D01*
X15290Y138804D01*
X15368Y138845D01*
X15443Y138890D01*
X15516Y138937D01*
X15588Y138988D01*
X15656Y139042D01*
X15723Y139099D01*
X15787Y139158D01*
X15848Y139221D01*
X15906Y139286D01*
X15962Y139354D01*
X16014Y139424D01*
X16063Y139496D01*
X16109Y139570D01*
X16152Y139647D01*
X16191Y139725D01*
X16226Y139805D01*
X16258Y139886D01*
X16287Y139969D01*
X16312Y140053D01*
X16333Y140137D01*
X16350Y140223D01*
X16364Y140309D01*
X16373Y140396D01*
X16379Y140484D01*
X16381Y140571D01*
X15985Y144127D02*
X15983Y144206D01*
X15977Y144284D01*
X15967Y144362D01*
X15954Y144440D01*
X15936Y144517D01*
X15915Y144593D01*
X15890Y144667D01*
X15861Y144741D01*
X15829Y144813D01*
X15793Y144883D01*
X15753Y144951D01*
X15710Y145017D01*
X15664Y145081D01*
X15615Y145143D01*
X15563Y145202D01*
X15508Y145258D01*
X15450Y145312D01*
X15390Y145362D01*
X15327Y145410D01*
X15262Y145454D01*
X15195Y145495D01*
X15126Y145533D01*
X15055Y145567D01*
X14982Y145598D01*
X14908Y145625D01*
X14833Y145648D01*
X14757Y145667D01*
X14679Y145683D01*
X14601Y145695D01*
X14523Y145703D01*
X14444Y145707D01*
X14366Y145707D01*
X14287Y145703D01*
X14209Y145695D01*
X14131Y145683D01*
X14053Y145667D01*
X13977Y145648D01*
X13902Y145625D01*
X13828Y145598D01*
X13755Y145567D01*
X13684Y145533D01*
X13615Y145495D01*
X13548Y145454D01*
X13483Y145410D01*
X13420Y145362D01*
X13360Y145312D01*
X13302Y145258D01*
X13247Y145202D01*
X13195Y145143D01*
X13146Y145081D01*
X13100Y145017D01*
X13057Y144951D01*
X13017Y144883D01*
X12981Y144813D01*
X12949Y144741D01*
X12920Y144667D01*
X12895Y144593D01*
X12874Y144517D01*
X12856Y144440D01*
X12843Y144362D01*
X12833Y144284D01*
X12827Y144206D01*
X12825Y144127D01*
X12827Y144048D01*
X12833Y143970D01*
X12843Y143892D01*
X12856Y143814D01*
X12874Y143737D01*
X12895Y143661D01*
X12920Y143587D01*
X12949Y143513D01*
X12981Y143441D01*
X13017Y143371D01*
X13057Y143303D01*
X13100Y143237D01*
X13146Y143173D01*
X13195Y143111D01*
X13247Y143052D01*
X13302Y142996D01*
X13360Y142942D01*
X13420Y142892D01*
X13483Y142844D01*
X13548Y142800D01*
X13615Y142759D01*
X13684Y142721D01*
X13755Y142687D01*
X13828Y142656D01*
X13902Y142629D01*
X13977Y142606D01*
X14053Y142587D01*
X14131Y142571D01*
X14209Y142559D01*
X14287Y142551D01*
X14366Y142547D01*
X14444Y142547D01*
X14523Y142551D01*
X14601Y142559D01*
X14679Y142571D01*
X14757Y142587D01*
X14833Y142606D01*
X14908Y142629D01*
X14982Y142656D01*
X15055Y142687D01*
X15126Y142721D01*
X15195Y142759D01*
X15262Y142800D01*
X15327Y142844D01*
X15390Y142892D01*
X15450Y142942D01*
X15508Y142996D01*
X15563Y143052D01*
X15615Y143111D01*
X15664Y143173D01*
X15710Y143237D01*
X15753Y143303D01*
X15793Y143371D01*
X15829Y143441D01*
X15861Y143513D01*
X15890Y143587D01*
X15915Y143661D01*
X15936Y143737D01*
X15954Y143814D01*
X15967Y143892D01*
X15977Y143970D01*
X15983Y144048D01*
X15985Y144127D01*
D21*
X729488Y164084D02*
X757428Y164084D01*
X759968Y146304D02*
X759966Y146204D01*
X759960Y146105D01*
X759950Y146005D01*
X759937Y145907D01*
X759919Y145808D01*
X759898Y145711D01*
X759873Y145615D01*
X759844Y145519D01*
X759811Y145425D01*
X759775Y145332D01*
X759735Y145241D01*
X759691Y145151D01*
X759644Y145063D01*
X759594Y144977D01*
X759540Y144893D01*
X759483Y144811D01*
X759423Y144732D01*
X759359Y144654D01*
X759293Y144580D01*
X759224Y144508D01*
X759152Y144439D01*
X759078Y144373D01*
X759000Y144309D01*
X758921Y144249D01*
X758839Y144192D01*
X758755Y144138D01*
X758669Y144088D01*
X758581Y144041D01*
X758491Y143997D01*
X758400Y143957D01*
X758307Y143921D01*
X758213Y143888D01*
X758117Y143859D01*
X758021Y143834D01*
X757924Y143813D01*
X757825Y143795D01*
X757727Y143782D01*
X757627Y143772D01*
X757528Y143766D01*
X757428Y143764D01*
X729488Y143764D02*
X729388Y143766D01*
X729289Y143772D01*
X729189Y143782D01*
X729091Y143795D01*
X728992Y143813D01*
X728895Y143834D01*
X728799Y143859D01*
X728703Y143888D01*
X728609Y143921D01*
X728516Y143957D01*
X728425Y143997D01*
X728335Y144041D01*
X728247Y144088D01*
X728161Y144138D01*
X728077Y144192D01*
X727995Y144249D01*
X727916Y144309D01*
X727838Y144373D01*
X727764Y144439D01*
X727692Y144508D01*
X727623Y144580D01*
X727557Y144654D01*
X727493Y144732D01*
X727433Y144811D01*
X727376Y144893D01*
X727322Y144977D01*
X727272Y145063D01*
X727225Y145151D01*
X727181Y145241D01*
X727141Y145332D01*
X727105Y145425D01*
X727072Y145519D01*
X727043Y145615D01*
X727018Y145711D01*
X726997Y145808D01*
X726979Y145907D01*
X726966Y146005D01*
X726956Y146105D01*
X726950Y146204D01*
X726948Y146304D01*
X726948Y161544D02*
X726950Y161644D01*
X726956Y161743D01*
X726966Y161843D01*
X726979Y161941D01*
X726997Y162040D01*
X727018Y162137D01*
X727043Y162233D01*
X727072Y162329D01*
X727105Y162423D01*
X727141Y162516D01*
X727181Y162607D01*
X727225Y162697D01*
X727272Y162785D01*
X727322Y162871D01*
X727376Y162955D01*
X727433Y163037D01*
X727493Y163116D01*
X727557Y163194D01*
X727623Y163268D01*
X727692Y163340D01*
X727764Y163409D01*
X727838Y163475D01*
X727916Y163539D01*
X727995Y163599D01*
X728077Y163656D01*
X728161Y163710D01*
X728247Y163760D01*
X728335Y163807D01*
X728425Y163851D01*
X728516Y163891D01*
X728609Y163927D01*
X728703Y163960D01*
X728799Y163989D01*
X728895Y164014D01*
X728992Y164035D01*
X729091Y164053D01*
X729189Y164066D01*
X729289Y164076D01*
X729388Y164082D01*
X729488Y164084D01*
X757428Y164084D02*
X757528Y164082D01*
X757627Y164076D01*
X757727Y164066D01*
X757825Y164053D01*
X757924Y164035D01*
X758021Y164014D01*
X758117Y163989D01*
X758213Y163960D01*
X758307Y163927D01*
X758400Y163891D01*
X758491Y163851D01*
X758581Y163807D01*
X758669Y163760D01*
X758755Y163710D01*
X758839Y163656D01*
X758921Y163599D01*
X759000Y163539D01*
X759078Y163475D01*
X759152Y163409D01*
X759224Y163340D01*
X759293Y163268D01*
X759359Y163194D01*
X759423Y163116D01*
X759483Y163037D01*
X759540Y162955D01*
X759594Y162871D01*
X759644Y162785D01*
X759691Y162697D01*
X759735Y162607D01*
X759775Y162516D01*
X759811Y162423D01*
X759844Y162329D01*
X759873Y162233D01*
X759898Y162137D01*
X759919Y162040D01*
X759937Y161941D01*
X759950Y161843D01*
X759960Y161743D01*
X759966Y161644D01*
X759968Y161544D01*
X759968Y146304D01*
X726948Y146304D02*
X726948Y161544D01*
X729488Y143764D02*
X757428Y143764D01*
D17*
X740833Y166116D02*
X740755Y166118D01*
X740678Y166124D01*
X740601Y166133D01*
X740525Y166146D01*
X740449Y166163D01*
X740374Y166184D01*
X740301Y166208D01*
X740228Y166236D01*
X740157Y166268D01*
X740088Y166303D01*
X740021Y166341D01*
X739955Y166382D01*
X739892Y166427D01*
X739831Y166475D01*
X739772Y166525D01*
X739716Y166579D01*
X739662Y166635D01*
X739612Y166694D01*
X739564Y166755D01*
X739519Y166818D01*
X739478Y166884D01*
X739440Y166951D01*
X739405Y167020D01*
X739373Y167091D01*
X739345Y167164D01*
X739321Y167237D01*
X739300Y167312D01*
X739283Y167388D01*
X739270Y167464D01*
X739261Y167541D01*
X739255Y167618D01*
X739253Y167696D01*
X740833Y166116D02*
X740948Y166118D01*
X741062Y166124D01*
X741176Y166134D01*
X741290Y166147D01*
X741403Y166165D01*
X741516Y166187D01*
X741628Y166212D01*
X741739Y166241D01*
X741848Y166274D01*
X741957Y166311D01*
X742064Y166351D01*
X742170Y166395D01*
X742274Y166443D01*
X742377Y166494D01*
X742477Y166549D01*
X742576Y166607D01*
X742673Y166669D01*
X742767Y166733D01*
X742860Y166801D01*
X742950Y166873D01*
X743037Y166947D01*
X743122Y167024D01*
X743204Y167104D01*
X743006Y171648D02*
X743004Y171726D01*
X742998Y171803D01*
X742989Y171880D01*
X742976Y171956D01*
X742959Y172032D01*
X742938Y172107D01*
X742914Y172180D01*
X742886Y172253D01*
X742854Y172324D01*
X742819Y172393D01*
X742781Y172460D01*
X742740Y172526D01*
X742695Y172589D01*
X742647Y172650D01*
X742597Y172709D01*
X742543Y172765D01*
X742487Y172819D01*
X742428Y172869D01*
X742367Y172917D01*
X742304Y172962D01*
X742238Y173003D01*
X742171Y173041D01*
X742102Y173076D01*
X742031Y173108D01*
X741958Y173136D01*
X741885Y173160D01*
X741810Y173181D01*
X741734Y173198D01*
X741658Y173211D01*
X741581Y173220D01*
X741504Y173226D01*
X741426Y173228D01*
X741320Y173226D01*
X741214Y173220D01*
X741109Y173211D01*
X741004Y173198D01*
X740899Y173181D01*
X740795Y173160D01*
X740692Y173136D01*
X740590Y173108D01*
X740489Y173076D01*
X740389Y173041D01*
X740291Y173002D01*
X740193Y172959D01*
X740098Y172914D01*
X740004Y172865D01*
X739912Y172812D01*
X739822Y172756D01*
X739734Y172697D01*
X739648Y172635D01*
X742216Y170265D02*
X742283Y170307D01*
X742348Y170352D01*
X742411Y170401D01*
X742472Y170452D01*
X742529Y170507D01*
X742584Y170564D01*
X742637Y170624D01*
X742686Y170686D01*
X742732Y170751D01*
X742774Y170817D01*
X742814Y170886D01*
X742850Y170957D01*
X742882Y171030D01*
X742911Y171104D01*
X742936Y171179D01*
X742957Y171255D01*
X742975Y171333D01*
X742988Y171411D01*
X742998Y171490D01*
X743004Y171569D01*
X743006Y171648D01*
X740043Y169079D02*
X739976Y169037D01*
X739911Y168992D01*
X739848Y168943D01*
X739787Y168892D01*
X739730Y168837D01*
X739675Y168780D01*
X739622Y168720D01*
X739573Y168658D01*
X739527Y168593D01*
X739485Y168527D01*
X739445Y168458D01*
X739409Y168387D01*
X739377Y168314D01*
X739348Y168240D01*
X739323Y168165D01*
X739302Y168089D01*
X739284Y168011D01*
X739271Y167933D01*
X739261Y167854D01*
X739255Y167775D01*
X739253Y167696D01*
X740043Y169079D02*
X742216Y170265D01*
X734884Y167696D02*
X734884Y173228D01*
X734884Y167696D02*
X734886Y167618D01*
X734892Y167541D01*
X734901Y167464D01*
X734914Y167388D01*
X734931Y167312D01*
X734952Y167237D01*
X734976Y167164D01*
X735004Y167091D01*
X735036Y167020D01*
X735071Y166951D01*
X735109Y166884D01*
X735150Y166818D01*
X735195Y166755D01*
X735243Y166694D01*
X735293Y166635D01*
X735347Y166579D01*
X735403Y166525D01*
X735462Y166475D01*
X735523Y166427D01*
X735586Y166382D01*
X735652Y166341D01*
X735719Y166303D01*
X735788Y166268D01*
X735859Y166236D01*
X735932Y166208D01*
X736005Y166184D01*
X736080Y166163D01*
X736156Y166146D01*
X736232Y166133D01*
X736309Y166124D01*
X736386Y166118D01*
X736464Y166116D01*
X737255Y166116D01*
X729601Y173228D02*
X729519Y173226D01*
X729437Y173220D01*
X729355Y173211D01*
X729274Y173198D01*
X729194Y173181D01*
X729114Y173160D01*
X729036Y173136D01*
X728959Y173108D01*
X728883Y173077D01*
X728808Y173042D01*
X728736Y173003D01*
X728665Y172962D01*
X728596Y172917D01*
X728530Y172869D01*
X728465Y172818D01*
X728403Y172764D01*
X728344Y172707D01*
X728287Y172648D01*
X728233Y172586D01*
X728182Y172521D01*
X728134Y172455D01*
X728089Y172386D01*
X728048Y172315D01*
X728009Y172243D01*
X727974Y172168D01*
X727943Y172092D01*
X727915Y172015D01*
X727891Y171937D01*
X727870Y171857D01*
X727853Y171777D01*
X727840Y171696D01*
X727831Y171614D01*
X727825Y171532D01*
X727823Y171450D01*
X729601Y173228D02*
X729694Y173226D01*
X729786Y173220D01*
X729878Y173211D01*
X729970Y173198D01*
X730061Y173181D01*
X730151Y173161D01*
X730241Y173137D01*
X730329Y173109D01*
X730417Y173077D01*
X730502Y173043D01*
X730587Y173004D01*
X730669Y172963D01*
X730750Y172918D01*
X730830Y172869D01*
X730907Y172818D01*
X730982Y172764D01*
X731054Y172706D01*
X731125Y172646D01*
X731192Y172582D01*
X731257Y172517D01*
X731320Y172448D01*
X731379Y172377D01*
X731436Y172304D01*
X731490Y172228D01*
X731540Y172151D01*
X731588Y172071D01*
X731632Y171989D01*
X731672Y171906D01*
X731710Y171821D01*
X731744Y171735D01*
X731774Y171648D01*
X728416Y170067D02*
X728355Y170128D01*
X728297Y170191D01*
X728242Y170257D01*
X728189Y170325D01*
X728140Y170396D01*
X728095Y170468D01*
X728052Y170543D01*
X728013Y170619D01*
X727977Y170698D01*
X727945Y170777D01*
X727917Y170858D01*
X727892Y170941D01*
X727871Y171024D01*
X727854Y171108D01*
X727840Y171193D01*
X727831Y171278D01*
X727825Y171364D01*
X727823Y171450D01*
X728416Y170067D02*
X731774Y166116D01*
X727823Y166116D01*
M02*
