G04 EAGLE Gerber RS-274X export*
G75*
%MOMM*%
%FSLAX34Y34*%
%LPD*%
%INSolderpaste Top*%
%IPPOS*%
%AMOC8*
5,1,8,0,0,1.08239X$1,22.5*%
G01*
%ADD10R,1.600000X2.700000*%
%ADD11R,1.300000X1.500000*%
%ADD12R,1.150000X0.650000*%
%ADD13R,1.300000X0.450000*%
%ADD14R,1.700000X1.400000*%
%ADD15R,0.800000X0.540000*%
%ADD16R,1.200000X1.400000*%
%ADD17R,0.800000X1.200000*%
%ADD18R,5.511800X2.006600*%
%ADD19R,1.000000X1.100000*%
%ADD20C,0.300000*%
%ADD21R,1.100000X1.000000*%
%ADD22R,0.977900X0.431800*%
%ADD23R,0.558800X1.181100*%
%ADD24R,0.558800X2.108200*%


D10*
X979072Y263278D03*
X1007072Y263278D03*
D11*
X953216Y263464D03*
X934216Y263464D03*
D12*
X900700Y201950D03*
X900700Y176550D03*
X900700Y151150D03*
X900700Y214650D03*
X900700Y189250D03*
X900700Y163850D03*
D13*
X922400Y237100D03*
X942400Y237100D03*
D14*
X1038000Y235450D03*
X1038000Y113350D03*
D13*
X942400Y111700D03*
X922400Y111700D03*
D15*
X1032200Y149000D03*
X1032200Y199800D03*
D16*
X971852Y331054D03*
X1001852Y331054D03*
X885602Y331270D03*
X915602Y331270D03*
X795602Y330470D03*
X825602Y330470D03*
D17*
X776252Y330470D03*
X758252Y330470D03*
X867152Y331570D03*
X849152Y331570D03*
X954652Y332170D03*
X936652Y332170D03*
X780730Y95594D03*
X798730Y95594D03*
D11*
X886104Y262890D03*
X905104Y262890D03*
D17*
X861420Y93830D03*
X879420Y93830D03*
X941232Y93736D03*
X959232Y93736D03*
D18*
X703084Y229806D03*
X608088Y229806D03*
D19*
X747516Y203878D03*
X747516Y186878D03*
D20*
X1090612Y259390D02*
X1090612Y266390D01*
X1097612Y266390D01*
X1097612Y259390D01*
X1090612Y259390D01*
X1090612Y262240D02*
X1097612Y262240D01*
X1097612Y265090D02*
X1090612Y265090D01*
X1073072Y266390D02*
X1073072Y259390D01*
X1073072Y266390D02*
X1080072Y266390D01*
X1080072Y259390D01*
X1073072Y259390D01*
X1073072Y262240D02*
X1080072Y262240D01*
X1080072Y265090D02*
X1073072Y265090D01*
D21*
X1058282Y262636D03*
X1041282Y262636D03*
D22*
X759397Y63656D03*
X759397Y70156D03*
X759397Y76656D03*
X759397Y83156D03*
X732092Y83156D03*
X732092Y76656D03*
X732092Y70156D03*
X732092Y63656D03*
D20*
X1089850Y85146D02*
X1089850Y92146D01*
X1096850Y92146D01*
X1096850Y85146D01*
X1089850Y85146D01*
X1089850Y87996D02*
X1096850Y87996D01*
X1096850Y90846D02*
X1089850Y90846D01*
X1072310Y92146D02*
X1072310Y85146D01*
X1072310Y92146D02*
X1079310Y92146D01*
X1079310Y85146D01*
X1072310Y85146D01*
X1072310Y87996D02*
X1079310Y87996D01*
X1079310Y90846D02*
X1072310Y90846D01*
D21*
X1059298Y86614D03*
X1042298Y86614D03*
D23*
X829970Y219266D03*
X839470Y219266D03*
X848970Y219266D03*
X848970Y248603D03*
X839470Y248603D03*
X829970Y248603D03*
D24*
X828802Y22365D03*
X828802Y88379D03*
X911352Y19571D03*
X911352Y85585D03*
X997712Y19571D03*
X997712Y85585D03*
M02*
