G04 EAGLE Gerber RS-274X export*
G75*
%MOMM*%
%FSLAX34Y34*%
%LPD*%
%INSolderpaste Top*%
%IPPOS*%
%AMOC8*
5,1,8,0,0,1.08239X$1,22.5*%
G01*
%ADD10R,1.500000X1.300000*%
%ADD11R,1.150000X0.650000*%
%ADD12R,1.300000X0.450000*%
%ADD13R,1.700000X1.400000*%
%ADD14R,0.800000X0.540000*%
%ADD15R,1.200000X1.400000*%
%ADD16R,0.800000X1.200000*%
%ADD17R,2.000000X2.000000*%
%ADD18R,1.300000X1.500000*%
%ADD19R,0.660400X1.270000*%
%ADD20R,0.635000X1.270000*%
%ADD21R,1.000000X1.400000*%
%ADD22R,1.000000X1.100000*%
%ADD23R,1.200000X0.800000*%
%ADD24R,1.041400X2.260600*%
%ADD25R,1.041400X1.092200*%
%ADD26R,5.511800X2.006600*%
%ADD27R,1.100000X1.000000*%
%ADD28C,0.300000*%
%ADD29R,0.977900X0.431800*%
%ADD30R,1.080000X1.050000*%
%ADD31R,1.168400X1.600200*%


D10*
X863734Y148506D03*
X863734Y129506D03*
X838388Y148036D03*
X838388Y129036D03*
D11*
X900700Y201950D03*
X900700Y176550D03*
X900700Y151150D03*
X900700Y214650D03*
X900700Y189250D03*
X900700Y163850D03*
D12*
X922400Y237100D03*
X942400Y237100D03*
D13*
X1038000Y235450D03*
X1038000Y113350D03*
D12*
X942400Y111700D03*
X922400Y111700D03*
D14*
X1032200Y149000D03*
X1032200Y199800D03*
D15*
X943150Y336134D03*
X973150Y336134D03*
X856900Y336350D03*
X886900Y336350D03*
X766900Y335550D03*
X796900Y335550D03*
D16*
X747550Y335550D03*
X729550Y335550D03*
X838450Y336650D03*
X820450Y336650D03*
X925950Y337250D03*
X907950Y337250D03*
X811972Y103722D03*
X829972Y103722D03*
D17*
X820180Y80750D03*
X820180Y20750D03*
D18*
X897280Y256540D03*
X916280Y256540D03*
D10*
X244822Y98846D03*
X244822Y79846D03*
D16*
X861420Y93830D03*
X879420Y93830D03*
D17*
X902840Y80250D03*
X902840Y20250D03*
D16*
X941232Y93736D03*
X959232Y93736D03*
D17*
X981590Y81012D03*
X981590Y21012D03*
D19*
X838190Y224640D03*
D20*
X857190Y224640D03*
X838190Y250940D03*
X847690Y250940D03*
X857190Y250940D03*
D16*
X418460Y162904D03*
X436460Y162904D03*
X417698Y181806D03*
X435698Y181806D03*
D21*
X580888Y114188D03*
X590388Y92188D03*
X571388Y92188D03*
X676900Y113610D03*
X686400Y91610D03*
X667400Y91610D03*
D10*
X609952Y110014D03*
X609952Y91014D03*
X732266Y99536D03*
X732266Y118536D03*
X711896Y118650D03*
X711896Y99650D03*
D22*
X649852Y108466D03*
X649852Y91466D03*
X554326Y93464D03*
X554326Y110464D03*
X633390Y108720D03*
X633390Y91720D03*
X537792Y93464D03*
X537792Y110464D03*
D23*
X159586Y232790D03*
X159586Y250790D03*
X159280Y199262D03*
X159280Y217262D03*
X158780Y180976D03*
X158780Y162976D03*
X158324Y145416D03*
X158324Y127416D03*
D24*
G36*
X1030926Y291307D02*
X1023864Y298960D01*
X1040476Y314289D01*
X1047538Y306636D01*
X1030926Y291307D01*
G37*
G36*
X1050871Y269693D02*
X1043809Y277346D01*
X1060421Y292675D01*
X1067483Y285022D01*
X1050871Y269693D01*
G37*
D25*
G36*
X1033462Y273638D02*
X1026400Y281291D01*
X1034426Y288698D01*
X1041488Y281045D01*
X1033462Y273638D01*
G37*
D10*
X504924Y111604D03*
X504924Y92604D03*
D26*
X704354Y225996D03*
X609358Y225996D03*
D22*
X618160Y168446D03*
X618160Y185446D03*
X744722Y214292D03*
X744722Y197292D03*
X597200Y184574D03*
X597200Y167574D03*
D16*
X122008Y223094D03*
X140008Y223094D03*
X120484Y192920D03*
X138484Y192920D03*
X119976Y162492D03*
X137976Y162492D03*
X119722Y133080D03*
X137722Y133080D03*
X456350Y107914D03*
X438350Y107914D03*
D27*
X968422Y288844D03*
X951422Y288844D03*
X965882Y257310D03*
X948882Y257310D03*
D22*
X985932Y278920D03*
X985932Y261920D03*
D27*
X1021040Y258650D03*
X1004040Y258650D03*
D28*
X921322Y310444D02*
X921322Y317444D01*
X921322Y310444D02*
X914322Y310444D01*
X914322Y317444D01*
X921322Y317444D01*
X921322Y313294D02*
X914322Y313294D01*
X914322Y316144D02*
X921322Y316144D01*
X938862Y317444D02*
X938862Y310444D01*
X931862Y310444D01*
X931862Y317444D01*
X938862Y317444D01*
X938862Y313294D02*
X931862Y313294D01*
X931862Y316144D02*
X938862Y316144D01*
D27*
X950096Y313182D03*
X967096Y313182D03*
D23*
X219964Y256142D03*
X219964Y238142D03*
X199644Y256142D03*
X199644Y238142D03*
X201930Y83202D03*
X201930Y101202D03*
X178562Y82948D03*
X178562Y100948D03*
D29*
X762699Y55020D03*
X762699Y61520D03*
X762699Y68020D03*
X762699Y74520D03*
X735394Y74520D03*
X735394Y68020D03*
X735394Y61520D03*
X735394Y55020D03*
D24*
G36*
X1039839Y62404D02*
X1046928Y70033D01*
X1063487Y54646D01*
X1056398Y47017D01*
X1039839Y62404D01*
G37*
G36*
X1019819Y40860D02*
X1026908Y48489D01*
X1043467Y33102D01*
X1036378Y25473D01*
X1019819Y40860D01*
G37*
D25*
G36*
X1022418Y58521D02*
X1029507Y66148D01*
X1037506Y58713D01*
X1030417Y51086D01*
X1022418Y58521D01*
G37*
D27*
X1021216Y92202D03*
X1038216Y92202D03*
D30*
X1054354Y76340D03*
X1054354Y93840D03*
D31*
X366522Y103124D03*
X351282Y103124D03*
X336042Y103124D03*
D28*
X999800Y330390D02*
X1006800Y330390D01*
X999800Y330390D02*
X999800Y337390D01*
X1006800Y337390D01*
X1006800Y330390D01*
X1006800Y333240D02*
X999800Y333240D01*
X999800Y336090D02*
X1006800Y336090D01*
X1006800Y312850D02*
X999800Y312850D01*
X999800Y319850D01*
X1006800Y319850D01*
X1006800Y312850D01*
X1006800Y315700D02*
X999800Y315700D01*
X999800Y318550D02*
X1006800Y318550D01*
D22*
X1006602Y301362D03*
X1006602Y284362D03*
M02*
