G04 EAGLE Gerber RS-274X export*
G75*
%MOMM*%
%FSLAX34Y34*%
%LPD*%
%INSoldermask Bottom*%
%IPPOS*%
%AMOC8*
5,1,8,0,0,1.08239X$1,22.5*%
G01*
%ADD10C,3.101594*%
%ADD11R,1.601600X1.401600*%
%ADD12R,10.511600X10.901600*%
%ADD13R,2.260600X1.168400*%
%ADD14C,0.701600*%
%ADD15R,1.631600X1.631600*%
%ADD16C,1.631600*%
%ADD17R,1.301600X0.901600*%
%ADD18P,1.759533X8X202.500000*%
%ADD19C,1.509600*%
%ADD20C,1.524000*%
%ADD21C,3.429000*%
%ADD22C,1.101600*%
%ADD23R,1.101600X1.501600*%
%ADD24R,1.101600X1.201600*%
%ADD25R,1.143000X2.362200*%
%ADD26R,1.143000X1.193800*%
%ADD27R,0.609600X1.460500*%
%ADD28R,1.460500X0.609600*%
%ADD29R,0.660400X2.286000*%
%ADD30R,0.901600X1.301600*%
%ADD31R,1.201600X1.101600*%
%ADD32C,1.701600*%
%ADD33R,1.151600X1.181600*%


D10*
X1056640Y44450D03*
X1056640Y304800D03*
X58928Y304800D03*
X58928Y44450D03*
D11*
X384356Y112574D03*
X384356Y93574D03*
X359172Y114040D03*
X359172Y95040D03*
D12*
X246400Y171900D03*
D13*
X329712Y205936D03*
X329712Y188918D03*
X329712Y171900D03*
X329712Y154882D03*
X329712Y137864D03*
D14*
X977200Y59100D02*
X977200Y45100D01*
X967200Y45100D02*
X967200Y59100D01*
X957200Y59100D02*
X957200Y45100D01*
X947200Y45100D02*
X947200Y59100D01*
X937200Y59100D02*
X937200Y45100D01*
X927200Y45100D02*
X927200Y59100D01*
X917200Y59100D02*
X917200Y45100D01*
X907200Y45100D02*
X907200Y59100D01*
X897200Y59100D02*
X897200Y45100D01*
X887200Y45100D02*
X887200Y59100D01*
X877200Y59100D02*
X877200Y45100D01*
X867200Y45100D02*
X867200Y59100D01*
X857200Y59100D02*
X857200Y45100D01*
X847200Y45100D02*
X847200Y59100D01*
X837200Y59100D02*
X837200Y45100D01*
X827200Y45100D02*
X827200Y59100D01*
X817200Y59100D02*
X817200Y45100D01*
X784200Y92100D02*
X770200Y92100D01*
X770200Y102100D02*
X784200Y102100D01*
X784200Y112100D02*
X770200Y112100D01*
X770200Y122100D02*
X784200Y122100D01*
X784200Y132100D02*
X770200Y132100D01*
X770200Y142100D02*
X784200Y142100D01*
X784200Y152100D02*
X770200Y152100D01*
X770200Y162100D02*
X784200Y162100D01*
X784200Y172100D02*
X770200Y172100D01*
X770200Y182100D02*
X784200Y182100D01*
X784200Y192100D02*
X770200Y192100D01*
X770200Y202100D02*
X784200Y202100D01*
X784200Y212100D02*
X770200Y212100D01*
X770200Y222100D02*
X784200Y222100D01*
X784200Y232100D02*
X770200Y232100D01*
X770200Y242100D02*
X784200Y242100D01*
X784200Y252100D02*
X770200Y252100D01*
X817200Y285100D02*
X817200Y299100D01*
X827200Y299100D02*
X827200Y285100D01*
X837200Y285100D02*
X837200Y299100D01*
X847200Y299100D02*
X847200Y285100D01*
X857200Y285100D02*
X857200Y299100D01*
X867200Y299100D02*
X867200Y285100D01*
X877200Y285100D02*
X877200Y299100D01*
X887200Y299100D02*
X887200Y285100D01*
X897200Y285100D02*
X897200Y299100D01*
X907200Y299100D02*
X907200Y285100D01*
X917200Y285100D02*
X917200Y299100D01*
X927200Y299100D02*
X927200Y285100D01*
X937200Y285100D02*
X937200Y299100D01*
X947200Y299100D02*
X947200Y285100D01*
X957200Y285100D02*
X957200Y299100D01*
X967200Y299100D02*
X967200Y285100D01*
X977200Y285100D02*
X977200Y299100D01*
X1010200Y252100D02*
X1024200Y252100D01*
X1024200Y242100D02*
X1010200Y242100D01*
X1010200Y232100D02*
X1024200Y232100D01*
X1024200Y222100D02*
X1010200Y222100D01*
X1010200Y212100D02*
X1024200Y212100D01*
X1024200Y202100D02*
X1010200Y202100D01*
X1010200Y192100D02*
X1024200Y192100D01*
X1024200Y182100D02*
X1010200Y182100D01*
X1010200Y172100D02*
X1024200Y172100D01*
X1024200Y162100D02*
X1010200Y162100D01*
X1010200Y152100D02*
X1024200Y152100D01*
X1024200Y142100D02*
X1010200Y142100D01*
X1010200Y132100D02*
X1024200Y132100D01*
X1024200Y122100D02*
X1010200Y122100D01*
X1010200Y112100D02*
X1024200Y112100D01*
X1024200Y102100D02*
X1010200Y102100D01*
X1010200Y92100D02*
X1024200Y92100D01*
D15*
X209400Y300200D03*
D16*
X184000Y300200D03*
X158600Y300200D03*
X133200Y300200D03*
D17*
X426412Y95768D03*
X426412Y113768D03*
X446824Y114180D03*
X446824Y96180D03*
X406760Y95764D03*
X406760Y113764D03*
D11*
X235172Y257898D03*
X235172Y238898D03*
D15*
X131884Y49662D03*
D16*
X157284Y49662D03*
X182684Y49662D03*
X208084Y49662D03*
D11*
X133570Y112562D03*
X133570Y93562D03*
D18*
X705900Y312700D03*
X680500Y312700D03*
X655100Y312700D03*
X629700Y312700D03*
X604300Y312700D03*
X578900Y312700D03*
X705900Y287300D03*
X680500Y287300D03*
X655100Y287300D03*
X629700Y287300D03*
X604300Y287300D03*
X578900Y287300D03*
X553500Y312700D03*
X553500Y287300D03*
X528100Y312700D03*
X502700Y312700D03*
X477300Y312700D03*
X451900Y312700D03*
X426500Y312700D03*
X401100Y312700D03*
X528100Y287300D03*
X502700Y287300D03*
X477300Y287300D03*
X451900Y287300D03*
X426500Y287300D03*
X401100Y287300D03*
X375700Y312700D03*
X375700Y287300D03*
X350300Y312700D03*
X324900Y312700D03*
X299500Y312700D03*
X350300Y287300D03*
X324900Y287300D03*
X299500Y287300D03*
X274100Y312700D03*
X274100Y287300D03*
X705900Y60200D03*
X680500Y60200D03*
X655100Y60200D03*
X629700Y60200D03*
X604300Y60200D03*
X578900Y60200D03*
X705900Y34800D03*
X680500Y34800D03*
X655100Y34800D03*
X629700Y34800D03*
X604300Y34800D03*
X578900Y34800D03*
X553500Y60200D03*
X553500Y34800D03*
X528100Y60200D03*
X502700Y60200D03*
X477300Y60200D03*
X451900Y60200D03*
X426500Y60200D03*
X401100Y60200D03*
X528100Y34800D03*
X502700Y34800D03*
X477300Y34800D03*
X451900Y34800D03*
X426500Y34800D03*
X401100Y34800D03*
X375700Y60200D03*
X375700Y34800D03*
X350300Y60200D03*
X324900Y60200D03*
X299500Y60200D03*
X350300Y34800D03*
X324900Y34800D03*
X299500Y34800D03*
X274100Y60200D03*
X274100Y34800D03*
D19*
X742290Y15940D03*
X742290Y35940D03*
X762290Y15940D03*
X762290Y35940D03*
D20*
X82500Y205000D03*
X82500Y180108D03*
X82500Y160042D03*
X82500Y134896D03*
X55322Y205000D03*
X55322Y180108D03*
X55322Y160042D03*
X55322Y134896D03*
D21*
X29160Y235734D03*
X29160Y104416D03*
X86056Y235734D03*
X86056Y104416D03*
D22*
X941970Y12140D03*
D17*
X499782Y148204D03*
X499782Y166204D03*
X480372Y148458D03*
X480372Y166458D03*
D23*
X537708Y118760D03*
X528208Y96760D03*
X547208Y96760D03*
X615178Y121738D03*
X605678Y99738D03*
X624678Y99738D03*
D11*
X569058Y118650D03*
X569058Y99650D03*
X706390Y116872D03*
X706390Y97872D03*
X684972Y116110D03*
X684972Y97110D03*
D24*
X589654Y115832D03*
X589654Y98832D03*
X486820Y114562D03*
X486820Y97562D03*
X468958Y97020D03*
X468958Y114020D03*
D17*
X159332Y235330D03*
X159332Y253330D03*
X159026Y201548D03*
X159026Y219548D03*
X159034Y185040D03*
X159034Y167040D03*
X158324Y151004D03*
X158324Y133004D03*
D25*
G36*
X1093991Y99213D02*
X1105420Y99194D01*
X1105379Y75573D01*
X1093950Y75592D01*
X1093991Y99213D01*
G37*
G36*
X1064581Y99265D02*
X1076010Y99246D01*
X1075969Y75625D01*
X1064540Y75644D01*
X1064581Y99265D01*
G37*
D26*
G36*
X1079248Y77437D02*
X1090677Y77418D01*
X1090656Y65481D01*
X1079227Y65500D01*
X1079248Y77437D01*
G37*
D27*
X705748Y168913D03*
X697748Y168913D03*
X689748Y168913D03*
X681748Y168913D03*
X673748Y168913D03*
X665748Y168913D03*
X657748Y168913D03*
X649748Y168913D03*
D28*
X635013Y183648D03*
X635013Y191648D03*
X635013Y199648D03*
X635013Y207648D03*
X635013Y215648D03*
X635013Y223648D03*
X635013Y231648D03*
X635013Y239648D03*
D27*
X649748Y254384D03*
X657748Y254384D03*
X665748Y254384D03*
X673748Y254384D03*
X681748Y254384D03*
X689748Y254384D03*
X697748Y254384D03*
X705748Y254384D03*
D28*
X720484Y239648D03*
X720484Y231648D03*
X720484Y223648D03*
X720484Y215648D03*
X720484Y207648D03*
X720484Y199648D03*
X720484Y191648D03*
X720484Y183648D03*
D29*
X567886Y202260D03*
X555186Y202260D03*
X542486Y202260D03*
X529786Y202260D03*
X517086Y202260D03*
X504386Y202260D03*
X491686Y202260D03*
X478986Y202260D03*
X478986Y249504D03*
X491686Y249504D03*
X504386Y249504D03*
X517086Y249504D03*
X529786Y249504D03*
X542486Y249504D03*
X555186Y249504D03*
X567886Y249504D03*
D11*
X509242Y116176D03*
X509242Y97176D03*
D24*
X567868Y148888D03*
X567868Y165888D03*
X543768Y149944D03*
X543768Y166944D03*
D30*
X137722Y233254D03*
X119722Y233254D03*
X136198Y204858D03*
X118198Y204858D03*
X135690Y178494D03*
X117690Y178494D03*
X135182Y151622D03*
X117182Y151622D03*
D17*
X521426Y148170D03*
X521426Y166170D03*
D31*
X1092262Y132288D03*
X1075262Y132288D03*
X1075374Y171204D03*
X1092374Y171204D03*
X1091974Y152750D03*
X1074974Y152750D03*
X1074906Y112600D03*
X1091906Y112600D03*
D32*
X1050670Y238856D03*
D22*
X124968Y255524D03*
X92456Y265176D03*
X1044956Y204470D03*
X356362Y188722D03*
D17*
X208788Y254872D03*
X208788Y236872D03*
X184404Y254872D03*
X184404Y236872D03*
X158242Y92346D03*
X158242Y110346D03*
X179324Y93616D03*
X179324Y111616D03*
D22*
X104394Y181356D03*
X103124Y159766D03*
X32766Y179832D03*
X32004Y158496D03*
X209042Y321056D03*
X183896Y320802D03*
X132588Y66802D03*
X157988Y66548D03*
X790956Y20828D03*
X811530Y20320D03*
X848106Y314706D03*
X835152Y315214D03*
X753872Y228854D03*
X915924Y22860D03*
X891032Y10922D03*
X740664Y252222D03*
X728726Y264414D03*
X664972Y141224D03*
X210058Y67310D03*
X133350Y321310D03*
X31750Y132842D03*
D25*
G36*
X1074107Y246732D02*
X1062678Y246692D01*
X1062595Y270312D01*
X1074024Y270352D01*
X1074107Y246732D01*
G37*
G36*
X1103517Y246834D02*
X1092088Y246794D01*
X1092005Y270414D01*
X1103434Y270454D01*
X1103517Y246834D01*
G37*
D26*
G36*
X1088735Y268584D02*
X1077306Y268545D01*
X1077265Y280482D01*
X1088694Y280521D01*
X1088735Y268584D01*
G37*
D31*
X1092826Y210820D03*
X1075826Y210820D03*
D33*
X1074560Y234188D03*
X1092060Y234188D03*
D17*
X434848Y147972D03*
X434848Y165972D03*
X458216Y148988D03*
X458216Y166988D03*
X389636Y166988D03*
X389636Y148988D03*
X413258Y167242D03*
X413258Y149242D03*
D11*
X664464Y115926D03*
X664464Y96926D03*
D17*
X643636Y118474D03*
X643636Y100474D03*
D30*
X1093326Y190500D03*
X1075326Y190500D03*
D22*
X747522Y168910D03*
M02*
