G04 EAGLE Gerber RS-274X export*
G75*
%MOMM*%
%FSLAX34Y34*%
%LPD*%
%INSoldermask Top*%
%IPPOS*%
%AMOC8*
5,1,8,0,0,1.08239X$1,22.5*%
G01*
%ADD10C,3.101594*%
%ADD11R,1.701600X2.801600*%
%ADD12R,1.401600X1.601600*%
%ADD13R,1.251600X0.751600*%
%ADD14R,1.401600X0.551600*%
%ADD15R,1.801600X1.501600*%
%ADD16R,0.901600X0.641600*%
%ADD17R,1.301600X1.501600*%
%ADD18R,1.631600X1.631600*%
%ADD19C,1.631600*%
%ADD20R,0.901600X1.301600*%
%ADD21P,1.759533X8X202.500000*%
%ADD22C,1.509600*%
%ADD23C,1.524000*%
%ADD24C,3.429000*%
%ADD25R,5.613400X2.108200*%
%ADD26R,1.101600X1.201600*%
%ADD27C,0.396575*%
%ADD28R,1.201600X1.101600*%
%ADD29R,1.079500X0.533400*%
%ADD30R,0.660400X1.282700*%
%ADD31R,0.660400X2.209800*%


D10*
X1056640Y44450D03*
X1056640Y304800D03*
X58928Y304800D03*
X58928Y44450D03*
D11*
X979072Y263278D03*
X1007072Y263278D03*
D12*
X953216Y263464D03*
X934216Y263464D03*
D13*
X900700Y201950D03*
X900700Y176550D03*
X900700Y151150D03*
X900700Y214650D03*
X900700Y189250D03*
X900700Y163850D03*
D14*
X922400Y237100D03*
X942400Y237100D03*
D15*
X1038000Y235450D03*
X1038000Y113350D03*
D14*
X942400Y111700D03*
X922400Y111700D03*
D16*
X1032200Y149000D03*
X1032200Y199800D03*
D17*
X971852Y331054D03*
X1001852Y331054D03*
X885602Y331270D03*
X915602Y331270D03*
X795602Y330470D03*
X825602Y330470D03*
D18*
X209400Y300200D03*
D19*
X184000Y300200D03*
X158600Y300200D03*
X133200Y300200D03*
D20*
X776252Y330470D03*
X758252Y330470D03*
X867152Y331570D03*
X849152Y331570D03*
X954652Y332170D03*
X936652Y332170D03*
X780730Y95594D03*
X798730Y95594D03*
D12*
X886104Y262890D03*
X905104Y262890D03*
D18*
X131884Y49662D03*
D19*
X157284Y49662D03*
X182684Y49662D03*
X208084Y49662D03*
D20*
X861420Y93830D03*
X879420Y93830D03*
X941232Y93736D03*
X959232Y93736D03*
D21*
X705900Y312700D03*
X680500Y312700D03*
X655100Y312700D03*
X629700Y312700D03*
X604300Y312700D03*
X578900Y312700D03*
X705900Y287300D03*
X680500Y287300D03*
X655100Y287300D03*
X629700Y287300D03*
X604300Y287300D03*
X578900Y287300D03*
X553500Y312700D03*
X553500Y287300D03*
X528100Y312700D03*
X502700Y312700D03*
X477300Y312700D03*
X451900Y312700D03*
X426500Y312700D03*
X401100Y312700D03*
X528100Y287300D03*
X502700Y287300D03*
X477300Y287300D03*
X451900Y287300D03*
X426500Y287300D03*
X401100Y287300D03*
X375700Y312700D03*
X375700Y287300D03*
X350300Y312700D03*
X324900Y312700D03*
X299500Y312700D03*
X350300Y287300D03*
X324900Y287300D03*
X299500Y287300D03*
X274100Y312700D03*
X274100Y287300D03*
X705900Y60200D03*
X680500Y60200D03*
X655100Y60200D03*
X629700Y60200D03*
X604300Y60200D03*
X578900Y60200D03*
X705900Y34800D03*
X680500Y34800D03*
X655100Y34800D03*
X629700Y34800D03*
X604300Y34800D03*
X578900Y34800D03*
X553500Y60200D03*
X553500Y34800D03*
X528100Y60200D03*
X502700Y60200D03*
X477300Y60200D03*
X451900Y60200D03*
X426500Y60200D03*
X401100Y60200D03*
X528100Y34800D03*
X502700Y34800D03*
X477300Y34800D03*
X451900Y34800D03*
X426500Y34800D03*
X401100Y34800D03*
X375700Y60200D03*
X375700Y34800D03*
X350300Y60200D03*
X324900Y60200D03*
X299500Y60200D03*
X350300Y34800D03*
X324900Y34800D03*
X299500Y34800D03*
X274100Y60200D03*
X274100Y34800D03*
D22*
X742290Y15940D03*
X742290Y35940D03*
X762290Y15940D03*
X762290Y35940D03*
D23*
X82500Y205000D03*
X82500Y180108D03*
X82500Y160042D03*
X82500Y134896D03*
X55322Y205000D03*
X55322Y180108D03*
X55322Y160042D03*
X55322Y134896D03*
D24*
X29160Y235734D03*
X29160Y104416D03*
X86056Y235734D03*
X86056Y104416D03*
D25*
X703084Y229806D03*
X608088Y229806D03*
D26*
X747516Y203878D03*
X747516Y186878D03*
D27*
X1090587Y259365D02*
X1090587Y266415D01*
X1097637Y266415D01*
X1097637Y259365D01*
X1090587Y259365D01*
X1090587Y263133D02*
X1097637Y263133D01*
X1073047Y266415D02*
X1073047Y259365D01*
X1073047Y266415D02*
X1080097Y266415D01*
X1080097Y259365D01*
X1073047Y259365D01*
X1073047Y263133D02*
X1080097Y263133D01*
D28*
X1058282Y262636D03*
X1041282Y262636D03*
D29*
X759397Y63656D03*
X759397Y70156D03*
X759397Y76656D03*
X759397Y83156D03*
X732092Y83156D03*
X732092Y76656D03*
X732092Y70156D03*
X732092Y63656D03*
D27*
X1089825Y85121D02*
X1089825Y92171D01*
X1096875Y92171D01*
X1096875Y85121D01*
X1089825Y85121D01*
X1089825Y88889D02*
X1096875Y88889D01*
X1072285Y92171D02*
X1072285Y85121D01*
X1072285Y92171D02*
X1079335Y92171D01*
X1079335Y85121D01*
X1072285Y85121D01*
X1072285Y88889D02*
X1079335Y88889D01*
D28*
X1059298Y86614D03*
X1042298Y86614D03*
D30*
X829970Y219266D03*
X839470Y219266D03*
X848970Y219266D03*
X848970Y248603D03*
X839470Y248603D03*
X829970Y248603D03*
D31*
X828802Y22365D03*
X828802Y88379D03*
X911352Y19571D03*
X911352Y85585D03*
X997712Y19571D03*
X997712Y85585D03*
M02*
