M48
;GenerationSoftware,Autodesk,EAGLE,9.6.2*%
;CreationDate,2020-09-11T15:54:07Z*%
FMAT,2
ICI,OFF
METRIC,TZ,000.000
T6C0.350
T5C0.900
T4C0.914
T3C1.016
T2C1.020
T1C2.311
%
G90
M71
T1
X8606Y23573
X2916Y10442
X2916Y23573
X8606Y10442
T2
X20940Y30020
X18400Y30020
X15860Y30020
X13320Y30020
X21000Y4000
X18460Y4000
X15920Y4000
X13380Y4000
T3
X27410Y3480
X29950Y3480
X35030Y31270
X35030Y3480
X37570Y3480
X40110Y3480
X27410Y6020
X29950Y6020
X32490Y6020
X35030Y6020
X37570Y6020
X40110Y6020
X42650Y3480
X42650Y6020
X45190Y3480
X47730Y3480
X50270Y3480
X52810Y3480
X55350Y3480
X57890Y3480
X45190Y6020
X52810Y6020
X47730Y6020
X50270Y6020
X55350Y6020
X57890Y6020
X60430Y3480
X60430Y6020
X62970Y3480
X65510Y3480
X68050Y3480
X62970Y6020
X65510Y6020
X68050Y6020
X70590Y3480
X70590Y6020
X27410Y28730
X29950Y28730
X32490Y28730
X35030Y28730
X37570Y28730
X40110Y28730
X27410Y31270
X29950Y31270
X32490Y31270
X37570Y31270
X40110Y31270
X42650Y28730
X42650Y31270
X45190Y28730
X47730Y28730
X50270Y28730
X52810Y28730
X55350Y28730
X57890Y28730
X45190Y31270
X47730Y31270
X50270Y31270
X52810Y31270
X55350Y31270
X57890Y31270
X60430Y28730
X60430Y31270
X62970Y28730
X65510Y28730
X32490Y3480
X62970Y31270
X65510Y31270
X68050Y31270
X70590Y28730
X70590Y31270
X68050Y28730
T4
X8250Y20500
X8250Y18011
X8250Y16004
X8250Y13490
X5532Y20500
X5532Y18011
X5532Y16004
X5532Y13490
T5
X75169Y1238
X75169Y3238
X77169Y1238
X77169Y3238
T6
X74727Y17983
X83439Y6858
X71882Y33147
X90424Y32385
X57531Y18923
X84074Y20574
X84709Y20574
X85217Y17780
X88900Y17653
X80963Y24193
X81661Y32512
X62308Y10566
X57250Y17147
X71476Y15875
X46050Y12093
X45517Y14879
X69771Y15692
X41954Y14903
X40488Y15748
X43942Y14475
X53365Y14653
X52578Y11738
X68732Y14653
X69444Y12062
X56159Y16406
X62763Y12093
X13487Y18161
X13843Y21006
X14580Y14605
X14503Y17374
X61898Y24179
X24758Y25113
X17069Y24892
X62814Y24692
X25768Y25016
X17018Y22047
X15088Y28042
X16439Y27076
X99695Y17272
X60935Y21006
X51841Y20041
X53746Y24968
X49572Y25123
X44526Y25250
X69317Y27051
X58746Y24211
X47396Y25035
X70764Y20980
X70831Y19948
X79121Y26797
X79248Y16129
X91821Y8763
X80010Y15367
X69497Y10630
X78842Y6629
X77851Y5563
X77699Y7493
X36347Y15392
X80010Y27432
X98984Y30683
X85725Y26289
X84836Y26797
X79832Y9322
X35458Y16358
X97409Y10033
X34783Y18731
X75057Y12474
X47396Y12014
X39827Y11557
X75975Y18386
X68961Y19177
X68152Y18437
X98476Y11633
X35052Y13716
X88011Y15367
X81407Y23241
M30