G75*
%MOIN*%
%OFA0B0*%
%FSLAX25Y25*%
%IPPOS*%
%LPD*%
%AMOC8*
5,1,8,0,0,1.08239X$1,22.5*
%
%ADD10C,0.00394*%
D10*
X0070290Y0021000D02*
X0417385Y0020900D01*
X0418336Y0020911D01*
X0419287Y0020946D01*
X0420237Y0021003D01*
X0421185Y0021084D01*
X0422131Y0021187D01*
X0423074Y0021313D01*
X0424013Y0021462D01*
X0424949Y0021633D01*
X0425880Y0021828D01*
X0426807Y0022044D01*
X0427728Y0022283D01*
X0428643Y0022544D01*
X0429551Y0022827D01*
X0430452Y0023132D01*
X0431346Y0023458D01*
X0432231Y0023807D01*
X0433108Y0024176D01*
X0433976Y0024566D01*
X0434833Y0024978D01*
X0435681Y0025410D01*
X0436518Y0025862D01*
X0437344Y0026334D01*
X0438158Y0026826D01*
X0438960Y0027338D01*
X0439750Y0027869D01*
X0440526Y0028419D01*
X0441289Y0028987D01*
X0442038Y0029574D01*
X0442772Y0030179D01*
X0443492Y0030801D01*
X0444197Y0031441D01*
X0444885Y0032097D01*
X0445558Y0032770D01*
X0446214Y0033458D01*
X0446854Y0034163D01*
X0447476Y0034883D01*
X0448081Y0035617D01*
X0448668Y0036366D01*
X0449236Y0037129D01*
X0449786Y0037905D01*
X0450317Y0038695D01*
X0450829Y0039497D01*
X0451321Y0040311D01*
X0451793Y0041137D01*
X0452245Y0041974D01*
X0452677Y0042822D01*
X0453089Y0043679D01*
X0453479Y0044547D01*
X0453848Y0045424D01*
X0454197Y0046309D01*
X0454523Y0047203D01*
X0454828Y0048104D01*
X0455111Y0049012D01*
X0455372Y0049927D01*
X0455611Y0050848D01*
X0455827Y0051775D01*
X0456022Y0052706D01*
X0456193Y0053642D01*
X0456342Y0054581D01*
X0456468Y0055524D01*
X0456571Y0056470D01*
X0456652Y0057418D01*
X0456709Y0058368D01*
X0456744Y0059319D01*
X0456755Y0060270D01*
X0456755Y0119325D01*
X0456744Y0120276D01*
X0456709Y0121227D01*
X0456652Y0122177D01*
X0456571Y0123125D01*
X0456468Y0124071D01*
X0456342Y0125014D01*
X0456193Y0125953D01*
X0456022Y0126889D01*
X0455827Y0127820D01*
X0455611Y0128747D01*
X0455372Y0129668D01*
X0455111Y0130583D01*
X0454828Y0131491D01*
X0454523Y0132392D01*
X0454197Y0133286D01*
X0453848Y0134171D01*
X0453479Y0135048D01*
X0453089Y0135916D01*
X0452677Y0136773D01*
X0452245Y0137621D01*
X0451793Y0138458D01*
X0451321Y0139284D01*
X0450829Y0140098D01*
X0450317Y0140900D01*
X0449786Y0141690D01*
X0449236Y0142466D01*
X0448668Y0143229D01*
X0448081Y0143978D01*
X0447476Y0144712D01*
X0446854Y0145432D01*
X0446214Y0146137D01*
X0445558Y0146825D01*
X0444885Y0147498D01*
X0444197Y0148154D01*
X0443492Y0148794D01*
X0442772Y0149416D01*
X0442038Y0150021D01*
X0441289Y0150608D01*
X0440526Y0151176D01*
X0439750Y0151726D01*
X0438960Y0152257D01*
X0438158Y0152769D01*
X0437344Y0153261D01*
X0436518Y0153733D01*
X0435681Y0154185D01*
X0434833Y0154617D01*
X0433976Y0155029D01*
X0433108Y0155419D01*
X0432231Y0155788D01*
X0431346Y0156137D01*
X0430452Y0156463D01*
X0429551Y0156768D01*
X0428643Y0157051D01*
X0427728Y0157312D01*
X0426807Y0157551D01*
X0425880Y0157767D01*
X0424949Y0157962D01*
X0424013Y0158133D01*
X0423074Y0158282D01*
X0422131Y0158408D01*
X0421185Y0158511D01*
X0420237Y0158592D01*
X0419287Y0158649D01*
X0418336Y0158684D01*
X0417385Y0158695D01*
X0070290Y0158795D01*
X0069339Y0158784D01*
X0068388Y0158749D01*
X0067438Y0158692D01*
X0066490Y0158611D01*
X0065544Y0158508D01*
X0064601Y0158382D01*
X0063662Y0158233D01*
X0062726Y0158062D01*
X0061795Y0157867D01*
X0060868Y0157651D01*
X0059947Y0157412D01*
X0059032Y0157151D01*
X0058124Y0156868D01*
X0057223Y0156563D01*
X0056329Y0156237D01*
X0055444Y0155888D01*
X0054567Y0155519D01*
X0053699Y0155129D01*
X0052842Y0154717D01*
X0051994Y0154285D01*
X0051157Y0153833D01*
X0050331Y0153361D01*
X0049517Y0152869D01*
X0048715Y0152357D01*
X0047925Y0151826D01*
X0047149Y0151276D01*
X0046386Y0150708D01*
X0045637Y0150121D01*
X0044903Y0149516D01*
X0044183Y0148894D01*
X0043478Y0148254D01*
X0042790Y0147598D01*
X0042117Y0146925D01*
X0041461Y0146237D01*
X0040821Y0145532D01*
X0040199Y0144812D01*
X0039594Y0144078D01*
X0039007Y0143329D01*
X0038439Y0142566D01*
X0037889Y0141790D01*
X0037358Y0141000D01*
X0036846Y0140198D01*
X0036354Y0139384D01*
X0035882Y0138558D01*
X0035430Y0137721D01*
X0034998Y0136873D01*
X0034586Y0136016D01*
X0034196Y0135148D01*
X0033827Y0134271D01*
X0033478Y0133386D01*
X0033152Y0132492D01*
X0032847Y0131591D01*
X0032564Y0130683D01*
X0032303Y0129768D01*
X0032064Y0128847D01*
X0031848Y0127920D01*
X0031653Y0126989D01*
X0031482Y0126053D01*
X0031333Y0125114D01*
X0031207Y0124171D01*
X0031104Y0123225D01*
X0031023Y0122277D01*
X0030966Y0121327D01*
X0030931Y0120376D01*
X0030920Y0119425D01*
X0030920Y0060370D01*
X0030931Y0059419D01*
X0030966Y0058468D01*
X0031023Y0057518D01*
X0031104Y0056570D01*
X0031207Y0055624D01*
X0031333Y0054681D01*
X0031482Y0053742D01*
X0031653Y0052806D01*
X0031848Y0051875D01*
X0032064Y0050948D01*
X0032303Y0050027D01*
X0032564Y0049112D01*
X0032847Y0048204D01*
X0033152Y0047303D01*
X0033478Y0046409D01*
X0033827Y0045524D01*
X0034196Y0044647D01*
X0034586Y0043779D01*
X0034998Y0042922D01*
X0035430Y0042074D01*
X0035882Y0041237D01*
X0036354Y0040411D01*
X0036846Y0039597D01*
X0037358Y0038795D01*
X0037889Y0038005D01*
X0038439Y0037229D01*
X0039007Y0036466D01*
X0039594Y0035717D01*
X0040199Y0034983D01*
X0040821Y0034263D01*
X0041461Y0033558D01*
X0042117Y0032870D01*
X0042790Y0032197D01*
X0043478Y0031541D01*
X0044183Y0030901D01*
X0044903Y0030279D01*
X0045637Y0029674D01*
X0046386Y0029087D01*
X0047149Y0028519D01*
X0047925Y0027969D01*
X0048715Y0027438D01*
X0049517Y0026926D01*
X0050331Y0026434D01*
X0051157Y0025962D01*
X0051994Y0025510D01*
X0052842Y0025078D01*
X0053699Y0024666D01*
X0054567Y0024276D01*
X0055444Y0023907D01*
X0056329Y0023558D01*
X0057223Y0023232D01*
X0058124Y0022927D01*
X0059032Y0022644D01*
X0059947Y0022383D01*
X0060868Y0022144D01*
X0061795Y0021928D01*
X0062726Y0021733D01*
X0063662Y0021562D01*
X0064601Y0021413D01*
X0065544Y0021287D01*
X0066490Y0021184D01*
X0067438Y0021103D01*
X0068388Y0021046D01*
X0069339Y0021011D01*
X0070290Y0021000D01*
X0030920Y0119425D02*
X0030931Y0120376D01*
X0030966Y0121327D01*
X0031023Y0122277D01*
X0031104Y0123225D01*
X0031207Y0124171D01*
X0031333Y0125114D01*
X0031482Y0126053D01*
X0031653Y0126989D01*
X0031848Y0127920D01*
X0032064Y0128847D01*
X0032303Y0129768D01*
X0032564Y0130683D01*
X0032847Y0131591D01*
X0033152Y0132492D01*
X0033478Y0133386D01*
X0033827Y0134271D01*
X0034196Y0135148D01*
X0034586Y0136016D01*
X0034998Y0136873D01*
X0035430Y0137721D01*
X0035882Y0138558D01*
X0036354Y0139384D01*
X0036846Y0140198D01*
X0037358Y0141000D01*
X0037889Y0141790D01*
X0038439Y0142566D01*
X0039007Y0143329D01*
X0039594Y0144078D01*
X0040199Y0144812D01*
X0040821Y0145532D01*
X0041461Y0146237D01*
X0042117Y0146925D01*
X0042790Y0147598D01*
X0043478Y0148254D01*
X0044183Y0148894D01*
X0044903Y0149516D01*
X0045637Y0150121D01*
X0046386Y0150708D01*
X0047149Y0151276D01*
X0047925Y0151826D01*
X0048715Y0152357D01*
X0049517Y0152869D01*
X0050331Y0153361D01*
X0051157Y0153833D01*
X0051994Y0154285D01*
X0052842Y0154717D01*
X0053699Y0155129D01*
X0054567Y0155519D01*
X0055444Y0155888D01*
X0056329Y0156237D01*
X0057223Y0156563D01*
X0058124Y0156868D01*
X0059032Y0157151D01*
X0059947Y0157412D01*
X0060868Y0157651D01*
X0061795Y0157867D01*
X0062726Y0158062D01*
X0063662Y0158233D01*
X0064601Y0158382D01*
X0065544Y0158508D01*
X0066490Y0158611D01*
X0067438Y0158692D01*
X0068388Y0158749D01*
X0069339Y0158784D01*
X0070290Y0158795D01*
M02*
