%
M48
M72
T01C0.01378
T02C0.03543
T03C0.03600
T04C0.04000
T05C0.04016
T06C0.09100
%
T01
X187720Y66500
X180020Y68711
X188820Y74300
X196092Y79672
X190320Y83000
X203920Y77989
X210120Y79578
X212220Y68611
X217520Y68300
X237920Y67211
X241020Y78689
X252020Y85589
X256312Y88507
X257420Y95500
X270820Y103700
X299233Y93586
X302420Y96500
X309783Y99537
X309520Y103600
X330033Y93387
X325120Y91800
X312620Y83900
X305609Y82778
X301520Y78689
X304320Y68489
X304531Y62850
X327220Y68400
X345920Y81500
X342920Y84500
X366420Y91000
X380920Y90500
X377420Y81500
X418620Y66800
X414420Y60500
X392420Y55500
X359420Y48000
X341320Y47100
X336820Y50500
X337420Y42900
X319620Y28800
X343920Y25100
X276228Y62600
X278020Y68611
X235020Y99900
X262202Y116318
X274612Y116193
X278220Y118211
X303820Y127500
X342420Y126500
X345920Y129000
X364920Y126500
X368420Y124500
X349670Y116250
X351420Y112500
X423420Y89000
X447420Y70800
X450120Y65300
X448720Y118500
X420620Y140900
X435120Y144400
X386920Y148500
X352420Y149000
X313920Y151500
X242520Y119300
X226086Y119911
X217519Y119562
X206220Y120411
X132368Y119489
X128390Y119871
X98120Y119000
X95642Y127600
X90320Y131400
X97920Y107800
X85420Y103700
X84020Y92500
X88020Y89400
X88320Y78500
X170020Y76300
X170520Y85400
T02
X326860Y33750
X334734Y33750
X334734Y25876
X326860Y25876
T03
X63400Y74109
X52700Y74109
X52700Y84009
X63400Y84009
X63400Y91909
X52700Y91909
X52700Y101709
X63400Y101709
T04
X138833Y134110
X148833Y134110
X158833Y134110
X168833Y134110
X178833Y134110
X188833Y134110
X198833Y134110
X208833Y134110
X218833Y134110
X228833Y134110
X238833Y134110
X248833Y134110
X258833Y134110
X268833Y134110
X278833Y134110
X288833Y134110
X298833Y134110
X308833Y134110
X308833Y144110
X298833Y144110
X288833Y144110
X278833Y144110
X268833Y144110
X258833Y144110
X248833Y144110
X238833Y144110
X228833Y144110
X218833Y144110
X208833Y144110
X198833Y144110
X188833Y144110
X178833Y144110
X168833Y144110
X158833Y144110
X148833Y144110
X138833Y144110
X138833Y44701
X148833Y44701
X158833Y44701
X168833Y44701
X178833Y44701
X188833Y44701
X198833Y44701
X208833Y44701
X218833Y44701
X228833Y44701
X238833Y44701
X248833Y44701
X258833Y44701
X268833Y44701
X278833Y44701
X288833Y44701
X298833Y44701
X308833Y44701
X308833Y34701
X298833Y34701
X288833Y34701
X278833Y34701
X268833Y34701
X258833Y34701
X248833Y34701
X238833Y34701
X228833Y34701
X218833Y34701
X208833Y34701
X198833Y34701
X188833Y34701
X178833Y34701
X168833Y34701
X158833Y34701
X148833Y34701
X138833Y34701
T05
X83597Y36748
X93597Y36748
X103597Y36748
X113597Y36748
X113361Y139189
X103361Y139189
X93361Y139189
X83361Y139189
T06
X64800Y113809
X42400Y113809
X42400Y62109
X64800Y62109
M30
