G04 EAGLE Gerber RS-274X export*
G75*
%MOMM*%
%FSLAX34Y34*%
%LPD*%
%INSolder paste top*%
%IPPOS*%
%AMOC8*
5,1,8,0,0,1.08239X$1,22.5*%
G01*
%ADD10C,0.100000*%
%ADD11C,0.000000*%
%ADD12R,1.600000X2.700000*%
%ADD13R,1.300000X1.500000*%
%ADD14R,1.150000X0.650000*%
%ADD15R,1.300000X0.450000*%
%ADD16R,1.700000X1.400000*%
%ADD17R,0.800000X0.540000*%
%ADD18R,1.200000X1.400000*%
%ADD19R,0.800000X1.200000*%
%ADD20R,5.511800X2.006600*%
%ADD21R,1.000000X1.100000*%
%ADD22C,0.300000*%
%ADD23R,1.100000X1.000000*%
%ADD24R,0.977900X0.431800*%
%ADD25R,0.558800X1.181100*%
%ADD26R,0.558800X2.108200*%


D10*
X0Y100000D02*
X29Y97584D01*
X117Y95169D01*
X263Y92757D01*
X467Y90349D01*
X729Y87946D01*
X1049Y85551D01*
X1427Y83164D01*
X1863Y80787D01*
X2356Y78422D01*
X2906Y76068D01*
X3512Y73729D01*
X4175Y71405D01*
X4894Y69098D01*
X5669Y66809D01*
X6498Y64540D01*
X7383Y62291D01*
X8321Y60064D01*
X9313Y57860D01*
X10357Y55681D01*
X11454Y53528D01*
X12603Y51402D01*
X13803Y49304D01*
X15053Y47236D01*
X16353Y45199D01*
X17702Y43194D01*
X19098Y41221D01*
X20542Y39284D01*
X22033Y37381D01*
X23568Y35516D01*
X25149Y33688D01*
X26773Y31898D01*
X28440Y30149D01*
X30149Y28440D01*
X31898Y26773D01*
X33688Y25149D01*
X35516Y23568D01*
X37381Y22033D01*
X39284Y20542D01*
X41221Y19098D01*
X43194Y17702D01*
X45199Y16353D01*
X47236Y15053D01*
X49304Y13803D01*
X51402Y12603D01*
X53528Y11454D01*
X55681Y10357D01*
X57860Y9313D01*
X60064Y8321D01*
X62291Y7383D01*
X64540Y6498D01*
X66809Y5669D01*
X69098Y4894D01*
X71405Y4175D01*
X73729Y3512D01*
X76068Y2906D01*
X78422Y2356D01*
X80787Y1863D01*
X83164Y1427D01*
X85551Y1049D01*
X87946Y729D01*
X90349Y467D01*
X92757Y263D01*
X95169Y117D01*
X97584Y29D01*
X100000Y0D01*
X1118706Y98476D02*
X1118706Y248476D01*
X100000Y350000D02*
X97584Y349971D01*
X95169Y349883D01*
X92757Y349737D01*
X90349Y349533D01*
X87946Y349271D01*
X85551Y348951D01*
X83164Y348573D01*
X80787Y348137D01*
X78422Y347644D01*
X76068Y347094D01*
X73729Y346488D01*
X71405Y345825D01*
X69098Y345106D01*
X66809Y344331D01*
X64540Y343502D01*
X62291Y342617D01*
X60064Y341679D01*
X57860Y340687D01*
X55681Y339643D01*
X53528Y338546D01*
X51402Y337397D01*
X49304Y336197D01*
X47236Y334947D01*
X45199Y333647D01*
X43194Y332298D01*
X41221Y330902D01*
X39284Y329458D01*
X37381Y327967D01*
X35516Y326432D01*
X33688Y324851D01*
X31898Y323227D01*
X30149Y321560D01*
X28440Y319851D01*
X26773Y318102D01*
X25149Y316312D01*
X23568Y314484D01*
X22033Y312619D01*
X20542Y310716D01*
X19098Y308779D01*
X17702Y306806D01*
X16353Y304801D01*
X15053Y302764D01*
X13803Y300696D01*
X12603Y298598D01*
X11454Y296472D01*
X10357Y294319D01*
X9313Y292140D01*
X8321Y289936D01*
X7383Y287709D01*
X6498Y285460D01*
X5669Y283191D01*
X4894Y280902D01*
X4175Y278595D01*
X3512Y276271D01*
X2906Y273932D01*
X2356Y271578D01*
X1863Y269213D01*
X1427Y266836D01*
X1049Y264449D01*
X729Y262054D01*
X467Y259651D01*
X263Y257243D01*
X117Y254831D01*
X29Y252416D01*
X0Y250000D01*
X0Y100000D01*
X100000Y0D02*
X1018706Y-1524D01*
X1018706Y348476D02*
X100000Y350000D01*
X1018706Y348476D02*
X1021122Y348447D01*
X1023537Y348359D01*
X1025949Y348213D01*
X1028357Y348009D01*
X1030760Y347747D01*
X1033155Y347427D01*
X1035542Y347049D01*
X1037919Y346613D01*
X1040284Y346120D01*
X1042638Y345570D01*
X1044977Y344964D01*
X1047301Y344301D01*
X1049608Y343582D01*
X1051897Y342807D01*
X1054166Y341978D01*
X1056415Y341093D01*
X1058642Y340155D01*
X1060846Y339163D01*
X1063025Y338119D01*
X1065178Y337022D01*
X1067304Y335873D01*
X1069402Y334673D01*
X1071470Y333423D01*
X1073507Y332123D01*
X1075512Y330774D01*
X1077485Y329378D01*
X1079422Y327934D01*
X1081325Y326443D01*
X1083190Y324908D01*
X1085018Y323327D01*
X1086808Y321703D01*
X1088557Y320036D01*
X1090266Y318327D01*
X1091933Y316578D01*
X1093557Y314788D01*
X1095138Y312960D01*
X1096673Y311095D01*
X1098164Y309192D01*
X1099608Y307255D01*
X1101004Y305282D01*
X1102353Y303277D01*
X1103653Y301240D01*
X1104903Y299172D01*
X1106103Y297074D01*
X1107252Y294948D01*
X1108349Y292795D01*
X1109393Y290616D01*
X1110385Y288412D01*
X1111323Y286185D01*
X1112208Y283936D01*
X1113037Y281667D01*
X1113812Y279378D01*
X1114531Y277071D01*
X1115194Y274747D01*
X1115800Y272408D01*
X1116350Y270054D01*
X1116843Y267689D01*
X1117279Y265312D01*
X1117657Y262925D01*
X1117977Y260530D01*
X1118239Y258127D01*
X1118443Y255719D01*
X1118589Y253307D01*
X1118677Y250892D01*
X1118706Y248476D01*
X100000Y350000D02*
X97584Y349971D01*
X95169Y349883D01*
X92757Y349737D01*
X90349Y349533D01*
X87946Y349271D01*
X85551Y348951D01*
X83164Y348573D01*
X80787Y348137D01*
X78422Y347644D01*
X76068Y347094D01*
X73729Y346488D01*
X71405Y345825D01*
X69098Y345106D01*
X66809Y344331D01*
X64540Y343502D01*
X62291Y342617D01*
X60064Y341679D01*
X57860Y340687D01*
X55681Y339643D01*
X53528Y338546D01*
X51402Y337397D01*
X49304Y336197D01*
X47236Y334947D01*
X45199Y333647D01*
X43194Y332298D01*
X41221Y330902D01*
X39284Y329458D01*
X37381Y327967D01*
X35516Y326432D01*
X33688Y324851D01*
X31898Y323227D01*
X30149Y321560D01*
X28440Y319851D01*
X26773Y318102D01*
X25149Y316312D01*
X23568Y314484D01*
X22033Y312619D01*
X20542Y310716D01*
X19098Y308779D01*
X17702Y306806D01*
X16353Y304801D01*
X15053Y302764D01*
X13803Y300696D01*
X12603Y298598D01*
X11454Y296472D01*
X10357Y294319D01*
X9313Y292140D01*
X8321Y289936D01*
X7383Y287709D01*
X6498Y285460D01*
X5669Y283191D01*
X4894Y280902D01*
X4175Y278595D01*
X3512Y276271D01*
X2906Y273932D01*
X2356Y271578D01*
X1863Y269213D01*
X1427Y266836D01*
X1049Y264449D01*
X729Y262054D01*
X467Y259651D01*
X263Y257243D01*
X117Y254831D01*
X29Y252416D01*
X0Y250000D01*
X1018706Y-1524D02*
X1021122Y-1495D01*
X1023537Y-1407D01*
X1025949Y-1261D01*
X1028357Y-1057D01*
X1030760Y-795D01*
X1033155Y-475D01*
X1035542Y-97D01*
X1037919Y339D01*
X1040284Y832D01*
X1042638Y1382D01*
X1044977Y1988D01*
X1047301Y2651D01*
X1049608Y3370D01*
X1051897Y4145D01*
X1054166Y4974D01*
X1056415Y5859D01*
X1058642Y6797D01*
X1060846Y7789D01*
X1063025Y8833D01*
X1065178Y9930D01*
X1067304Y11079D01*
X1069402Y12279D01*
X1071470Y13529D01*
X1073507Y14829D01*
X1075512Y16178D01*
X1077485Y17574D01*
X1079422Y19018D01*
X1081325Y20509D01*
X1083190Y22044D01*
X1085018Y23625D01*
X1086808Y25249D01*
X1088557Y26916D01*
X1090266Y28625D01*
X1091933Y30374D01*
X1093557Y32164D01*
X1095138Y33992D01*
X1096673Y35857D01*
X1098164Y37760D01*
X1099608Y39697D01*
X1101004Y41670D01*
X1102353Y43675D01*
X1103653Y45712D01*
X1104903Y47780D01*
X1106103Y49878D01*
X1107252Y52004D01*
X1108349Y54157D01*
X1109393Y56336D01*
X1110385Y58540D01*
X1111323Y60767D01*
X1112208Y63016D01*
X1113037Y65285D01*
X1113812Y67574D01*
X1114531Y69881D01*
X1115194Y72205D01*
X1115800Y74544D01*
X1116350Y76898D01*
X1116843Y79263D01*
X1117279Y81640D01*
X1117657Y84027D01*
X1117977Y86422D01*
X1118239Y88825D01*
X1118443Y91233D01*
X1118589Y93645D01*
X1118677Y96060D01*
X1118706Y98476D01*
D11*
X1041640Y44450D02*
X1041645Y44818D01*
X1041658Y45186D01*
X1041681Y45553D01*
X1041712Y45920D01*
X1041753Y46286D01*
X1041802Y46651D01*
X1041861Y47014D01*
X1041928Y47376D01*
X1042004Y47737D01*
X1042090Y48095D01*
X1042183Y48451D01*
X1042286Y48804D01*
X1042397Y49155D01*
X1042517Y49503D01*
X1042645Y49848D01*
X1042782Y50190D01*
X1042927Y50529D01*
X1043080Y50863D01*
X1043242Y51194D01*
X1043411Y51521D01*
X1043589Y51843D01*
X1043774Y52162D01*
X1043967Y52475D01*
X1044168Y52784D01*
X1044376Y53087D01*
X1044592Y53385D01*
X1044815Y53678D01*
X1045045Y53966D01*
X1045282Y54248D01*
X1045526Y54523D01*
X1045776Y54793D01*
X1046033Y55057D01*
X1046297Y55314D01*
X1046567Y55564D01*
X1046842Y55808D01*
X1047124Y56045D01*
X1047412Y56275D01*
X1047705Y56498D01*
X1048003Y56714D01*
X1048306Y56922D01*
X1048615Y57123D01*
X1048928Y57316D01*
X1049247Y57501D01*
X1049569Y57679D01*
X1049896Y57848D01*
X1050227Y58010D01*
X1050561Y58163D01*
X1050900Y58308D01*
X1051242Y58445D01*
X1051587Y58573D01*
X1051935Y58693D01*
X1052286Y58804D01*
X1052639Y58907D01*
X1052995Y59000D01*
X1053353Y59086D01*
X1053714Y59162D01*
X1054076Y59229D01*
X1054439Y59288D01*
X1054804Y59337D01*
X1055170Y59378D01*
X1055537Y59409D01*
X1055904Y59432D01*
X1056272Y59445D01*
X1056640Y59450D01*
X1057008Y59445D01*
X1057376Y59432D01*
X1057743Y59409D01*
X1058110Y59378D01*
X1058476Y59337D01*
X1058841Y59288D01*
X1059204Y59229D01*
X1059566Y59162D01*
X1059927Y59086D01*
X1060285Y59000D01*
X1060641Y58907D01*
X1060994Y58804D01*
X1061345Y58693D01*
X1061693Y58573D01*
X1062038Y58445D01*
X1062380Y58308D01*
X1062719Y58163D01*
X1063053Y58010D01*
X1063384Y57848D01*
X1063711Y57679D01*
X1064033Y57501D01*
X1064352Y57316D01*
X1064665Y57123D01*
X1064974Y56922D01*
X1065277Y56714D01*
X1065575Y56498D01*
X1065868Y56275D01*
X1066156Y56045D01*
X1066438Y55808D01*
X1066713Y55564D01*
X1066983Y55314D01*
X1067247Y55057D01*
X1067504Y54793D01*
X1067754Y54523D01*
X1067998Y54248D01*
X1068235Y53966D01*
X1068465Y53678D01*
X1068688Y53385D01*
X1068904Y53087D01*
X1069112Y52784D01*
X1069313Y52475D01*
X1069506Y52162D01*
X1069691Y51843D01*
X1069869Y51521D01*
X1070038Y51194D01*
X1070200Y50863D01*
X1070353Y50529D01*
X1070498Y50190D01*
X1070635Y49848D01*
X1070763Y49503D01*
X1070883Y49155D01*
X1070994Y48804D01*
X1071097Y48451D01*
X1071190Y48095D01*
X1071276Y47737D01*
X1071352Y47376D01*
X1071419Y47014D01*
X1071478Y46651D01*
X1071527Y46286D01*
X1071568Y45920D01*
X1071599Y45553D01*
X1071622Y45186D01*
X1071635Y44818D01*
X1071640Y44450D01*
X1071635Y44082D01*
X1071622Y43714D01*
X1071599Y43347D01*
X1071568Y42980D01*
X1071527Y42614D01*
X1071478Y42249D01*
X1071419Y41886D01*
X1071352Y41524D01*
X1071276Y41163D01*
X1071190Y40805D01*
X1071097Y40449D01*
X1070994Y40096D01*
X1070883Y39745D01*
X1070763Y39397D01*
X1070635Y39052D01*
X1070498Y38710D01*
X1070353Y38371D01*
X1070200Y38037D01*
X1070038Y37706D01*
X1069869Y37379D01*
X1069691Y37057D01*
X1069506Y36738D01*
X1069313Y36425D01*
X1069112Y36116D01*
X1068904Y35813D01*
X1068688Y35515D01*
X1068465Y35222D01*
X1068235Y34934D01*
X1067998Y34652D01*
X1067754Y34377D01*
X1067504Y34107D01*
X1067247Y33843D01*
X1066983Y33586D01*
X1066713Y33336D01*
X1066438Y33092D01*
X1066156Y32855D01*
X1065868Y32625D01*
X1065575Y32402D01*
X1065277Y32186D01*
X1064974Y31978D01*
X1064665Y31777D01*
X1064352Y31584D01*
X1064033Y31399D01*
X1063711Y31221D01*
X1063384Y31052D01*
X1063053Y30890D01*
X1062719Y30737D01*
X1062380Y30592D01*
X1062038Y30455D01*
X1061693Y30327D01*
X1061345Y30207D01*
X1060994Y30096D01*
X1060641Y29993D01*
X1060285Y29900D01*
X1059927Y29814D01*
X1059566Y29738D01*
X1059204Y29671D01*
X1058841Y29612D01*
X1058476Y29563D01*
X1058110Y29522D01*
X1057743Y29491D01*
X1057376Y29468D01*
X1057008Y29455D01*
X1056640Y29450D01*
X1056272Y29455D01*
X1055904Y29468D01*
X1055537Y29491D01*
X1055170Y29522D01*
X1054804Y29563D01*
X1054439Y29612D01*
X1054076Y29671D01*
X1053714Y29738D01*
X1053353Y29814D01*
X1052995Y29900D01*
X1052639Y29993D01*
X1052286Y30096D01*
X1051935Y30207D01*
X1051587Y30327D01*
X1051242Y30455D01*
X1050900Y30592D01*
X1050561Y30737D01*
X1050227Y30890D01*
X1049896Y31052D01*
X1049569Y31221D01*
X1049247Y31399D01*
X1048928Y31584D01*
X1048615Y31777D01*
X1048306Y31978D01*
X1048003Y32186D01*
X1047705Y32402D01*
X1047412Y32625D01*
X1047124Y32855D01*
X1046842Y33092D01*
X1046567Y33336D01*
X1046297Y33586D01*
X1046033Y33843D01*
X1045776Y34107D01*
X1045526Y34377D01*
X1045282Y34652D01*
X1045045Y34934D01*
X1044815Y35222D01*
X1044592Y35515D01*
X1044376Y35813D01*
X1044168Y36116D01*
X1043967Y36425D01*
X1043774Y36738D01*
X1043589Y37057D01*
X1043411Y37379D01*
X1043242Y37706D01*
X1043080Y38037D01*
X1042927Y38371D01*
X1042782Y38710D01*
X1042645Y39052D01*
X1042517Y39397D01*
X1042397Y39745D01*
X1042286Y40096D01*
X1042183Y40449D01*
X1042090Y40805D01*
X1042004Y41163D01*
X1041928Y41524D01*
X1041861Y41886D01*
X1041802Y42249D01*
X1041753Y42614D01*
X1041712Y42980D01*
X1041681Y43347D01*
X1041658Y43714D01*
X1041645Y44082D01*
X1041640Y44450D01*
X1046640Y304800D02*
X1046643Y305045D01*
X1046652Y305291D01*
X1046667Y305536D01*
X1046688Y305780D01*
X1046715Y306024D01*
X1046748Y306267D01*
X1046787Y306510D01*
X1046832Y306751D01*
X1046883Y306991D01*
X1046940Y307230D01*
X1047002Y307467D01*
X1047071Y307703D01*
X1047145Y307937D01*
X1047225Y308169D01*
X1047310Y308399D01*
X1047401Y308627D01*
X1047498Y308852D01*
X1047600Y309076D01*
X1047708Y309296D01*
X1047821Y309514D01*
X1047939Y309729D01*
X1048063Y309941D01*
X1048191Y310150D01*
X1048325Y310356D01*
X1048464Y310558D01*
X1048608Y310757D01*
X1048757Y310952D01*
X1048910Y311144D01*
X1049068Y311332D01*
X1049230Y311516D01*
X1049398Y311695D01*
X1049569Y311871D01*
X1049745Y312042D01*
X1049924Y312210D01*
X1050108Y312372D01*
X1050296Y312530D01*
X1050488Y312683D01*
X1050683Y312832D01*
X1050882Y312976D01*
X1051084Y313115D01*
X1051290Y313249D01*
X1051499Y313377D01*
X1051711Y313501D01*
X1051926Y313619D01*
X1052144Y313732D01*
X1052364Y313840D01*
X1052588Y313942D01*
X1052813Y314039D01*
X1053041Y314130D01*
X1053271Y314215D01*
X1053503Y314295D01*
X1053737Y314369D01*
X1053973Y314438D01*
X1054210Y314500D01*
X1054449Y314557D01*
X1054689Y314608D01*
X1054930Y314653D01*
X1055173Y314692D01*
X1055416Y314725D01*
X1055660Y314752D01*
X1055904Y314773D01*
X1056149Y314788D01*
X1056395Y314797D01*
X1056640Y314800D01*
X1056885Y314797D01*
X1057131Y314788D01*
X1057376Y314773D01*
X1057620Y314752D01*
X1057864Y314725D01*
X1058107Y314692D01*
X1058350Y314653D01*
X1058591Y314608D01*
X1058831Y314557D01*
X1059070Y314500D01*
X1059307Y314438D01*
X1059543Y314369D01*
X1059777Y314295D01*
X1060009Y314215D01*
X1060239Y314130D01*
X1060467Y314039D01*
X1060692Y313942D01*
X1060916Y313840D01*
X1061136Y313732D01*
X1061354Y313619D01*
X1061569Y313501D01*
X1061781Y313377D01*
X1061990Y313249D01*
X1062196Y313115D01*
X1062398Y312976D01*
X1062597Y312832D01*
X1062792Y312683D01*
X1062984Y312530D01*
X1063172Y312372D01*
X1063356Y312210D01*
X1063535Y312042D01*
X1063711Y311871D01*
X1063882Y311695D01*
X1064050Y311516D01*
X1064212Y311332D01*
X1064370Y311144D01*
X1064523Y310952D01*
X1064672Y310757D01*
X1064816Y310558D01*
X1064955Y310356D01*
X1065089Y310150D01*
X1065217Y309941D01*
X1065341Y309729D01*
X1065459Y309514D01*
X1065572Y309296D01*
X1065680Y309076D01*
X1065782Y308852D01*
X1065879Y308627D01*
X1065970Y308399D01*
X1066055Y308169D01*
X1066135Y307937D01*
X1066209Y307703D01*
X1066278Y307467D01*
X1066340Y307230D01*
X1066397Y306991D01*
X1066448Y306751D01*
X1066493Y306510D01*
X1066532Y306267D01*
X1066565Y306024D01*
X1066592Y305780D01*
X1066613Y305536D01*
X1066628Y305291D01*
X1066637Y305045D01*
X1066640Y304800D01*
X1066637Y304555D01*
X1066628Y304309D01*
X1066613Y304064D01*
X1066592Y303820D01*
X1066565Y303576D01*
X1066532Y303333D01*
X1066493Y303090D01*
X1066448Y302849D01*
X1066397Y302609D01*
X1066340Y302370D01*
X1066278Y302133D01*
X1066209Y301897D01*
X1066135Y301663D01*
X1066055Y301431D01*
X1065970Y301201D01*
X1065879Y300973D01*
X1065782Y300748D01*
X1065680Y300524D01*
X1065572Y300304D01*
X1065459Y300086D01*
X1065341Y299871D01*
X1065217Y299659D01*
X1065089Y299450D01*
X1064955Y299244D01*
X1064816Y299042D01*
X1064672Y298843D01*
X1064523Y298648D01*
X1064370Y298456D01*
X1064212Y298268D01*
X1064050Y298084D01*
X1063882Y297905D01*
X1063711Y297729D01*
X1063535Y297558D01*
X1063356Y297390D01*
X1063172Y297228D01*
X1062984Y297070D01*
X1062792Y296917D01*
X1062597Y296768D01*
X1062398Y296624D01*
X1062196Y296485D01*
X1061990Y296351D01*
X1061781Y296223D01*
X1061569Y296099D01*
X1061354Y295981D01*
X1061136Y295868D01*
X1060916Y295760D01*
X1060692Y295658D01*
X1060467Y295561D01*
X1060239Y295470D01*
X1060009Y295385D01*
X1059777Y295305D01*
X1059543Y295231D01*
X1059307Y295162D01*
X1059070Y295100D01*
X1058831Y295043D01*
X1058591Y294992D01*
X1058350Y294947D01*
X1058107Y294908D01*
X1057864Y294875D01*
X1057620Y294848D01*
X1057376Y294827D01*
X1057131Y294812D01*
X1056885Y294803D01*
X1056640Y294800D01*
X1056395Y294803D01*
X1056149Y294812D01*
X1055904Y294827D01*
X1055660Y294848D01*
X1055416Y294875D01*
X1055173Y294908D01*
X1054930Y294947D01*
X1054689Y294992D01*
X1054449Y295043D01*
X1054210Y295100D01*
X1053973Y295162D01*
X1053737Y295231D01*
X1053503Y295305D01*
X1053271Y295385D01*
X1053041Y295470D01*
X1052813Y295561D01*
X1052588Y295658D01*
X1052364Y295760D01*
X1052144Y295868D01*
X1051926Y295981D01*
X1051711Y296099D01*
X1051499Y296223D01*
X1051290Y296351D01*
X1051084Y296485D01*
X1050882Y296624D01*
X1050683Y296768D01*
X1050488Y296917D01*
X1050296Y297070D01*
X1050108Y297228D01*
X1049924Y297390D01*
X1049745Y297558D01*
X1049569Y297729D01*
X1049398Y297905D01*
X1049230Y298084D01*
X1049068Y298268D01*
X1048910Y298456D01*
X1048757Y298648D01*
X1048608Y298843D01*
X1048464Y299042D01*
X1048325Y299244D01*
X1048191Y299450D01*
X1048063Y299659D01*
X1047939Y299871D01*
X1047821Y300086D01*
X1047708Y300304D01*
X1047600Y300524D01*
X1047498Y300748D01*
X1047401Y300973D01*
X1047310Y301201D01*
X1047225Y301431D01*
X1047145Y301663D01*
X1047071Y301897D01*
X1047002Y302133D01*
X1046940Y302370D01*
X1046883Y302609D01*
X1046832Y302849D01*
X1046787Y303090D01*
X1046748Y303333D01*
X1046715Y303576D01*
X1046688Y303820D01*
X1046667Y304064D01*
X1046652Y304309D01*
X1046643Y304555D01*
X1046640Y304800D01*
X48928Y304800D02*
X48931Y305045D01*
X48940Y305291D01*
X48955Y305536D01*
X48976Y305780D01*
X49003Y306024D01*
X49036Y306267D01*
X49075Y306510D01*
X49120Y306751D01*
X49171Y306991D01*
X49228Y307230D01*
X49290Y307467D01*
X49359Y307703D01*
X49433Y307937D01*
X49513Y308169D01*
X49598Y308399D01*
X49689Y308627D01*
X49786Y308852D01*
X49888Y309076D01*
X49996Y309296D01*
X50109Y309514D01*
X50227Y309729D01*
X50351Y309941D01*
X50479Y310150D01*
X50613Y310356D01*
X50752Y310558D01*
X50896Y310757D01*
X51045Y310952D01*
X51198Y311144D01*
X51356Y311332D01*
X51518Y311516D01*
X51686Y311695D01*
X51857Y311871D01*
X52033Y312042D01*
X52212Y312210D01*
X52396Y312372D01*
X52584Y312530D01*
X52776Y312683D01*
X52971Y312832D01*
X53170Y312976D01*
X53372Y313115D01*
X53578Y313249D01*
X53787Y313377D01*
X53999Y313501D01*
X54214Y313619D01*
X54432Y313732D01*
X54652Y313840D01*
X54876Y313942D01*
X55101Y314039D01*
X55329Y314130D01*
X55559Y314215D01*
X55791Y314295D01*
X56025Y314369D01*
X56261Y314438D01*
X56498Y314500D01*
X56737Y314557D01*
X56977Y314608D01*
X57218Y314653D01*
X57461Y314692D01*
X57704Y314725D01*
X57948Y314752D01*
X58192Y314773D01*
X58437Y314788D01*
X58683Y314797D01*
X58928Y314800D01*
X59173Y314797D01*
X59419Y314788D01*
X59664Y314773D01*
X59908Y314752D01*
X60152Y314725D01*
X60395Y314692D01*
X60638Y314653D01*
X60879Y314608D01*
X61119Y314557D01*
X61358Y314500D01*
X61595Y314438D01*
X61831Y314369D01*
X62065Y314295D01*
X62297Y314215D01*
X62527Y314130D01*
X62755Y314039D01*
X62980Y313942D01*
X63204Y313840D01*
X63424Y313732D01*
X63642Y313619D01*
X63857Y313501D01*
X64069Y313377D01*
X64278Y313249D01*
X64484Y313115D01*
X64686Y312976D01*
X64885Y312832D01*
X65080Y312683D01*
X65272Y312530D01*
X65460Y312372D01*
X65644Y312210D01*
X65823Y312042D01*
X65999Y311871D01*
X66170Y311695D01*
X66338Y311516D01*
X66500Y311332D01*
X66658Y311144D01*
X66811Y310952D01*
X66960Y310757D01*
X67104Y310558D01*
X67243Y310356D01*
X67377Y310150D01*
X67505Y309941D01*
X67629Y309729D01*
X67747Y309514D01*
X67860Y309296D01*
X67968Y309076D01*
X68070Y308852D01*
X68167Y308627D01*
X68258Y308399D01*
X68343Y308169D01*
X68423Y307937D01*
X68497Y307703D01*
X68566Y307467D01*
X68628Y307230D01*
X68685Y306991D01*
X68736Y306751D01*
X68781Y306510D01*
X68820Y306267D01*
X68853Y306024D01*
X68880Y305780D01*
X68901Y305536D01*
X68916Y305291D01*
X68925Y305045D01*
X68928Y304800D01*
X68925Y304555D01*
X68916Y304309D01*
X68901Y304064D01*
X68880Y303820D01*
X68853Y303576D01*
X68820Y303333D01*
X68781Y303090D01*
X68736Y302849D01*
X68685Y302609D01*
X68628Y302370D01*
X68566Y302133D01*
X68497Y301897D01*
X68423Y301663D01*
X68343Y301431D01*
X68258Y301201D01*
X68167Y300973D01*
X68070Y300748D01*
X67968Y300524D01*
X67860Y300304D01*
X67747Y300086D01*
X67629Y299871D01*
X67505Y299659D01*
X67377Y299450D01*
X67243Y299244D01*
X67104Y299042D01*
X66960Y298843D01*
X66811Y298648D01*
X66658Y298456D01*
X66500Y298268D01*
X66338Y298084D01*
X66170Y297905D01*
X65999Y297729D01*
X65823Y297558D01*
X65644Y297390D01*
X65460Y297228D01*
X65272Y297070D01*
X65080Y296917D01*
X64885Y296768D01*
X64686Y296624D01*
X64484Y296485D01*
X64278Y296351D01*
X64069Y296223D01*
X63857Y296099D01*
X63642Y295981D01*
X63424Y295868D01*
X63204Y295760D01*
X62980Y295658D01*
X62755Y295561D01*
X62527Y295470D01*
X62297Y295385D01*
X62065Y295305D01*
X61831Y295231D01*
X61595Y295162D01*
X61358Y295100D01*
X61119Y295043D01*
X60879Y294992D01*
X60638Y294947D01*
X60395Y294908D01*
X60152Y294875D01*
X59908Y294848D01*
X59664Y294827D01*
X59419Y294812D01*
X59173Y294803D01*
X58928Y294800D01*
X58683Y294803D01*
X58437Y294812D01*
X58192Y294827D01*
X57948Y294848D01*
X57704Y294875D01*
X57461Y294908D01*
X57218Y294947D01*
X56977Y294992D01*
X56737Y295043D01*
X56498Y295100D01*
X56261Y295162D01*
X56025Y295231D01*
X55791Y295305D01*
X55559Y295385D01*
X55329Y295470D01*
X55101Y295561D01*
X54876Y295658D01*
X54652Y295760D01*
X54432Y295868D01*
X54214Y295981D01*
X53999Y296099D01*
X53787Y296223D01*
X53578Y296351D01*
X53372Y296485D01*
X53170Y296624D01*
X52971Y296768D01*
X52776Y296917D01*
X52584Y297070D01*
X52396Y297228D01*
X52212Y297390D01*
X52033Y297558D01*
X51857Y297729D01*
X51686Y297905D01*
X51518Y298084D01*
X51356Y298268D01*
X51198Y298456D01*
X51045Y298648D01*
X50896Y298843D01*
X50752Y299042D01*
X50613Y299244D01*
X50479Y299450D01*
X50351Y299659D01*
X50227Y299871D01*
X50109Y300086D01*
X49996Y300304D01*
X49888Y300524D01*
X49786Y300748D01*
X49689Y300973D01*
X49598Y301201D01*
X49513Y301431D01*
X49433Y301663D01*
X49359Y301897D01*
X49290Y302133D01*
X49228Y302370D01*
X49171Y302609D01*
X49120Y302849D01*
X49075Y303090D01*
X49036Y303333D01*
X49003Y303576D01*
X48976Y303820D01*
X48955Y304064D01*
X48940Y304309D01*
X48931Y304555D01*
X48928Y304800D01*
X48928Y44450D02*
X48931Y44695D01*
X48940Y44941D01*
X48955Y45186D01*
X48976Y45430D01*
X49003Y45674D01*
X49036Y45917D01*
X49075Y46160D01*
X49120Y46401D01*
X49171Y46641D01*
X49228Y46880D01*
X49290Y47117D01*
X49359Y47353D01*
X49433Y47587D01*
X49513Y47819D01*
X49598Y48049D01*
X49689Y48277D01*
X49786Y48502D01*
X49888Y48726D01*
X49996Y48946D01*
X50109Y49164D01*
X50227Y49379D01*
X50351Y49591D01*
X50479Y49800D01*
X50613Y50006D01*
X50752Y50208D01*
X50896Y50407D01*
X51045Y50602D01*
X51198Y50794D01*
X51356Y50982D01*
X51518Y51166D01*
X51686Y51345D01*
X51857Y51521D01*
X52033Y51692D01*
X52212Y51860D01*
X52396Y52022D01*
X52584Y52180D01*
X52776Y52333D01*
X52971Y52482D01*
X53170Y52626D01*
X53372Y52765D01*
X53578Y52899D01*
X53787Y53027D01*
X53999Y53151D01*
X54214Y53269D01*
X54432Y53382D01*
X54652Y53490D01*
X54876Y53592D01*
X55101Y53689D01*
X55329Y53780D01*
X55559Y53865D01*
X55791Y53945D01*
X56025Y54019D01*
X56261Y54088D01*
X56498Y54150D01*
X56737Y54207D01*
X56977Y54258D01*
X57218Y54303D01*
X57461Y54342D01*
X57704Y54375D01*
X57948Y54402D01*
X58192Y54423D01*
X58437Y54438D01*
X58683Y54447D01*
X58928Y54450D01*
X59173Y54447D01*
X59419Y54438D01*
X59664Y54423D01*
X59908Y54402D01*
X60152Y54375D01*
X60395Y54342D01*
X60638Y54303D01*
X60879Y54258D01*
X61119Y54207D01*
X61358Y54150D01*
X61595Y54088D01*
X61831Y54019D01*
X62065Y53945D01*
X62297Y53865D01*
X62527Y53780D01*
X62755Y53689D01*
X62980Y53592D01*
X63204Y53490D01*
X63424Y53382D01*
X63642Y53269D01*
X63857Y53151D01*
X64069Y53027D01*
X64278Y52899D01*
X64484Y52765D01*
X64686Y52626D01*
X64885Y52482D01*
X65080Y52333D01*
X65272Y52180D01*
X65460Y52022D01*
X65644Y51860D01*
X65823Y51692D01*
X65999Y51521D01*
X66170Y51345D01*
X66338Y51166D01*
X66500Y50982D01*
X66658Y50794D01*
X66811Y50602D01*
X66960Y50407D01*
X67104Y50208D01*
X67243Y50006D01*
X67377Y49800D01*
X67505Y49591D01*
X67629Y49379D01*
X67747Y49164D01*
X67860Y48946D01*
X67968Y48726D01*
X68070Y48502D01*
X68167Y48277D01*
X68258Y48049D01*
X68343Y47819D01*
X68423Y47587D01*
X68497Y47353D01*
X68566Y47117D01*
X68628Y46880D01*
X68685Y46641D01*
X68736Y46401D01*
X68781Y46160D01*
X68820Y45917D01*
X68853Y45674D01*
X68880Y45430D01*
X68901Y45186D01*
X68916Y44941D01*
X68925Y44695D01*
X68928Y44450D01*
X68925Y44205D01*
X68916Y43959D01*
X68901Y43714D01*
X68880Y43470D01*
X68853Y43226D01*
X68820Y42983D01*
X68781Y42740D01*
X68736Y42499D01*
X68685Y42259D01*
X68628Y42020D01*
X68566Y41783D01*
X68497Y41547D01*
X68423Y41313D01*
X68343Y41081D01*
X68258Y40851D01*
X68167Y40623D01*
X68070Y40398D01*
X67968Y40174D01*
X67860Y39954D01*
X67747Y39736D01*
X67629Y39521D01*
X67505Y39309D01*
X67377Y39100D01*
X67243Y38894D01*
X67104Y38692D01*
X66960Y38493D01*
X66811Y38298D01*
X66658Y38106D01*
X66500Y37918D01*
X66338Y37734D01*
X66170Y37555D01*
X65999Y37379D01*
X65823Y37208D01*
X65644Y37040D01*
X65460Y36878D01*
X65272Y36720D01*
X65080Y36567D01*
X64885Y36418D01*
X64686Y36274D01*
X64484Y36135D01*
X64278Y36001D01*
X64069Y35873D01*
X63857Y35749D01*
X63642Y35631D01*
X63424Y35518D01*
X63204Y35410D01*
X62980Y35308D01*
X62755Y35211D01*
X62527Y35120D01*
X62297Y35035D01*
X62065Y34955D01*
X61831Y34881D01*
X61595Y34812D01*
X61358Y34750D01*
X61119Y34693D01*
X60879Y34642D01*
X60638Y34597D01*
X60395Y34558D01*
X60152Y34525D01*
X59908Y34498D01*
X59664Y34477D01*
X59419Y34462D01*
X59173Y34453D01*
X58928Y34450D01*
X58683Y34453D01*
X58437Y34462D01*
X58192Y34477D01*
X57948Y34498D01*
X57704Y34525D01*
X57461Y34558D01*
X57218Y34597D01*
X56977Y34642D01*
X56737Y34693D01*
X56498Y34750D01*
X56261Y34812D01*
X56025Y34881D01*
X55791Y34955D01*
X55559Y35035D01*
X55329Y35120D01*
X55101Y35211D01*
X54876Y35308D01*
X54652Y35410D01*
X54432Y35518D01*
X54214Y35631D01*
X53999Y35749D01*
X53787Y35873D01*
X53578Y36001D01*
X53372Y36135D01*
X53170Y36274D01*
X52971Y36418D01*
X52776Y36567D01*
X52584Y36720D01*
X52396Y36878D01*
X52212Y37040D01*
X52033Y37208D01*
X51857Y37379D01*
X51686Y37555D01*
X51518Y37734D01*
X51356Y37918D01*
X51198Y38106D01*
X51045Y38298D01*
X50896Y38493D01*
X50752Y38692D01*
X50613Y38894D01*
X50479Y39100D01*
X50351Y39309D01*
X50227Y39521D01*
X50109Y39736D01*
X49996Y39954D01*
X49888Y40174D01*
X49786Y40398D01*
X49689Y40623D01*
X49598Y40851D01*
X49513Y41081D01*
X49433Y41313D01*
X49359Y41547D01*
X49290Y41783D01*
X49228Y42020D01*
X49171Y42259D01*
X49120Y42499D01*
X49075Y42740D01*
X49036Y42983D01*
X49003Y43226D01*
X48976Y43470D01*
X48955Y43714D01*
X48940Y43959D01*
X48931Y44205D01*
X48928Y44450D01*
X408592Y241300D02*
X408595Y241545D01*
X408604Y241791D01*
X408619Y242036D01*
X408640Y242280D01*
X408667Y242524D01*
X408700Y242767D01*
X408739Y243010D01*
X408784Y243251D01*
X408835Y243491D01*
X408892Y243730D01*
X408954Y243967D01*
X409023Y244203D01*
X409097Y244437D01*
X409177Y244669D01*
X409262Y244899D01*
X409353Y245127D01*
X409450Y245352D01*
X409552Y245576D01*
X409660Y245796D01*
X409773Y246014D01*
X409891Y246229D01*
X410015Y246441D01*
X410143Y246650D01*
X410277Y246856D01*
X410416Y247058D01*
X410560Y247257D01*
X410709Y247452D01*
X410862Y247644D01*
X411020Y247832D01*
X411182Y248016D01*
X411350Y248195D01*
X411521Y248371D01*
X411697Y248542D01*
X411876Y248710D01*
X412060Y248872D01*
X412248Y249030D01*
X412440Y249183D01*
X412635Y249332D01*
X412834Y249476D01*
X413036Y249615D01*
X413242Y249749D01*
X413451Y249877D01*
X413663Y250001D01*
X413878Y250119D01*
X414096Y250232D01*
X414316Y250340D01*
X414540Y250442D01*
X414765Y250539D01*
X414993Y250630D01*
X415223Y250715D01*
X415455Y250795D01*
X415689Y250869D01*
X415925Y250938D01*
X416162Y251000D01*
X416401Y251057D01*
X416641Y251108D01*
X416882Y251153D01*
X417125Y251192D01*
X417368Y251225D01*
X417612Y251252D01*
X417856Y251273D01*
X418101Y251288D01*
X418347Y251297D01*
X418592Y251300D01*
X418837Y251297D01*
X419083Y251288D01*
X419328Y251273D01*
X419572Y251252D01*
X419816Y251225D01*
X420059Y251192D01*
X420302Y251153D01*
X420543Y251108D01*
X420783Y251057D01*
X421022Y251000D01*
X421259Y250938D01*
X421495Y250869D01*
X421729Y250795D01*
X421961Y250715D01*
X422191Y250630D01*
X422419Y250539D01*
X422644Y250442D01*
X422868Y250340D01*
X423088Y250232D01*
X423306Y250119D01*
X423521Y250001D01*
X423733Y249877D01*
X423942Y249749D01*
X424148Y249615D01*
X424350Y249476D01*
X424549Y249332D01*
X424744Y249183D01*
X424936Y249030D01*
X425124Y248872D01*
X425308Y248710D01*
X425487Y248542D01*
X425663Y248371D01*
X425834Y248195D01*
X426002Y248016D01*
X426164Y247832D01*
X426322Y247644D01*
X426475Y247452D01*
X426624Y247257D01*
X426768Y247058D01*
X426907Y246856D01*
X427041Y246650D01*
X427169Y246441D01*
X427293Y246229D01*
X427411Y246014D01*
X427524Y245796D01*
X427632Y245576D01*
X427734Y245352D01*
X427831Y245127D01*
X427922Y244899D01*
X428007Y244669D01*
X428087Y244437D01*
X428161Y244203D01*
X428230Y243967D01*
X428292Y243730D01*
X428349Y243491D01*
X428400Y243251D01*
X428445Y243010D01*
X428484Y242767D01*
X428517Y242524D01*
X428544Y242280D01*
X428565Y242036D01*
X428580Y241791D01*
X428589Y241545D01*
X428592Y241300D01*
X428589Y241055D01*
X428580Y240809D01*
X428565Y240564D01*
X428544Y240320D01*
X428517Y240076D01*
X428484Y239833D01*
X428445Y239590D01*
X428400Y239349D01*
X428349Y239109D01*
X428292Y238870D01*
X428230Y238633D01*
X428161Y238397D01*
X428087Y238163D01*
X428007Y237931D01*
X427922Y237701D01*
X427831Y237473D01*
X427734Y237248D01*
X427632Y237024D01*
X427524Y236804D01*
X427411Y236586D01*
X427293Y236371D01*
X427169Y236159D01*
X427041Y235950D01*
X426907Y235744D01*
X426768Y235542D01*
X426624Y235343D01*
X426475Y235148D01*
X426322Y234956D01*
X426164Y234768D01*
X426002Y234584D01*
X425834Y234405D01*
X425663Y234229D01*
X425487Y234058D01*
X425308Y233890D01*
X425124Y233728D01*
X424936Y233570D01*
X424744Y233417D01*
X424549Y233268D01*
X424350Y233124D01*
X424148Y232985D01*
X423942Y232851D01*
X423733Y232723D01*
X423521Y232599D01*
X423306Y232481D01*
X423088Y232368D01*
X422868Y232260D01*
X422644Y232158D01*
X422419Y232061D01*
X422191Y231970D01*
X421961Y231885D01*
X421729Y231805D01*
X421495Y231731D01*
X421259Y231662D01*
X421022Y231600D01*
X420783Y231543D01*
X420543Y231492D01*
X420302Y231447D01*
X420059Y231408D01*
X419816Y231375D01*
X419572Y231348D01*
X419328Y231327D01*
X419083Y231312D01*
X418837Y231303D01*
X418592Y231300D01*
X418347Y231303D01*
X418101Y231312D01*
X417856Y231327D01*
X417612Y231348D01*
X417368Y231375D01*
X417125Y231408D01*
X416882Y231447D01*
X416641Y231492D01*
X416401Y231543D01*
X416162Y231600D01*
X415925Y231662D01*
X415689Y231731D01*
X415455Y231805D01*
X415223Y231885D01*
X414993Y231970D01*
X414765Y232061D01*
X414540Y232158D01*
X414316Y232260D01*
X414096Y232368D01*
X413878Y232481D01*
X413663Y232599D01*
X413451Y232723D01*
X413242Y232851D01*
X413036Y232985D01*
X412834Y233124D01*
X412635Y233268D01*
X412440Y233417D01*
X412248Y233570D01*
X412060Y233728D01*
X411876Y233890D01*
X411697Y234058D01*
X411521Y234229D01*
X411350Y234405D01*
X411182Y234584D01*
X411020Y234768D01*
X410862Y234956D01*
X410709Y235148D01*
X410560Y235343D01*
X410416Y235542D01*
X410277Y235744D01*
X410143Y235950D01*
X410015Y236159D01*
X409891Y236371D01*
X409773Y236586D01*
X409660Y236804D01*
X409552Y237024D01*
X409450Y237248D01*
X409353Y237473D01*
X409262Y237701D01*
X409177Y237931D01*
X409097Y238163D01*
X409023Y238397D01*
X408954Y238633D01*
X408892Y238870D01*
X408835Y239109D01*
X408784Y239349D01*
X408739Y239590D01*
X408700Y239833D01*
X408667Y240076D01*
X408640Y240320D01*
X408619Y240564D01*
X408604Y240809D01*
X408595Y241055D01*
X408592Y241300D01*
D12*
X979072Y263278D03*
X1007072Y263278D03*
D13*
X953216Y263464D03*
X934216Y263464D03*
D14*
X900700Y201950D03*
X900700Y176550D03*
X900700Y151150D03*
X900700Y214650D03*
X900700Y189250D03*
X900700Y163850D03*
D15*
X922400Y237100D03*
X942400Y237100D03*
D16*
X1038000Y235450D03*
X1038000Y113350D03*
D15*
X942400Y111700D03*
X922400Y111700D03*
D17*
X1032200Y149000D03*
X1032200Y199800D03*
D18*
X971852Y331054D03*
X1001852Y331054D03*
X885602Y331270D03*
X915602Y331270D03*
X795602Y330470D03*
X825602Y330470D03*
D19*
X776252Y330470D03*
X758252Y330470D03*
X867152Y331570D03*
X849152Y331570D03*
X954652Y332170D03*
X936652Y332170D03*
X780730Y95594D03*
X798730Y95594D03*
D13*
X886104Y262890D03*
X905104Y262890D03*
D19*
X861420Y93830D03*
X879420Y93830D03*
X941232Y93736D03*
X959232Y93736D03*
D20*
X703084Y229806D03*
X608088Y229806D03*
D21*
X747516Y203878D03*
X747516Y186878D03*
D22*
X1090612Y259390D02*
X1090612Y266390D01*
X1097612Y266390D01*
X1097612Y259390D01*
X1090612Y259390D01*
X1090612Y262240D02*
X1097612Y262240D01*
X1097612Y265090D02*
X1090612Y265090D01*
X1073072Y266390D02*
X1073072Y259390D01*
X1073072Y266390D02*
X1080072Y266390D01*
X1080072Y259390D01*
X1073072Y259390D01*
X1073072Y262240D02*
X1080072Y262240D01*
X1080072Y265090D02*
X1073072Y265090D01*
D23*
X1058282Y262636D03*
X1041282Y262636D03*
D24*
X759397Y63656D03*
X759397Y70156D03*
X759397Y76656D03*
X759397Y83156D03*
X732092Y83156D03*
X732092Y76656D03*
X732092Y70156D03*
X732092Y63656D03*
D22*
X1089850Y85146D02*
X1089850Y92146D01*
X1096850Y92146D01*
X1096850Y85146D01*
X1089850Y85146D01*
X1089850Y87996D02*
X1096850Y87996D01*
X1096850Y90846D02*
X1089850Y90846D01*
X1072310Y92146D02*
X1072310Y85146D01*
X1072310Y92146D02*
X1079310Y92146D01*
X1079310Y85146D01*
X1072310Y85146D01*
X1072310Y87996D02*
X1079310Y87996D01*
X1079310Y90846D02*
X1072310Y90846D01*
D23*
X1059298Y86614D03*
X1042298Y86614D03*
D25*
X829970Y219266D03*
X839470Y219266D03*
X848970Y219266D03*
X848970Y248603D03*
X839470Y248603D03*
X829970Y248603D03*
D26*
X828802Y22365D03*
X828802Y88379D03*
X911352Y19571D03*
X911352Y85585D03*
X997712Y19571D03*
X997712Y85585D03*
M02*
