M48
;GenerationSoftware,Autodesk,EAGLE,9.6.2*%
;CreationDate,2020-10-20T23:55:19Z*%
FMAT,2
ICI,OFF
METRIC,TZ,000.000
T8C0.300
T7C0.900
T6C0.914
T5C1.016
T4C1.020
T3C2.000
T2C2.311
T1C3.000
%
G90
M71
T1
X105664Y4445
T2
X8606Y10442
X2916Y23573
X2916Y10442
X8606Y23573
T3
X5893Y4445
X105664Y30480
X5893Y30480
X41859Y24130
T4
X18268Y4966
X20940Y30020
X18400Y30020
X15860Y30020
X13320Y30020
X13188Y4966
X15728Y4966
X20808Y4966
T5
X65510Y31270
X62970Y31270
X60430Y31270
X57890Y31270
X70590Y28730
X68050Y28730
X65510Y28730
X62970Y28730
X60430Y28730
X57890Y28730
X55350Y31270
X55350Y28730
X52810Y31270
X50270Y31270
X47730Y31270
X45190Y31270
X42650Y31270
X40110Y31270
X52810Y28730
X50270Y28730
X47730Y28730
X42650Y28730
X40110Y28730
X37570Y31270
X37570Y28730
X35030Y31270
X32490Y31270
X29950Y31270
X35030Y28730
X32490Y28730
X29950Y28730
X27410Y31270
X27410Y28730
X70590Y6020
X68050Y6020
X65510Y6020
X62970Y6020
X60430Y6020
X57890Y6020
X70590Y3480
X68050Y3480
X65510Y3480
X62970Y3480
X60430Y3480
X57890Y3480
X55350Y6020
X55350Y3480
X52810Y6020
X50270Y6020
X47730Y6020
X45190Y6020
X42650Y6020
X52810Y3480
X50270Y3480
X47730Y3480
X45190Y3480
X42650Y3480
X40110Y3480
X37570Y6020
X37570Y3480
X35030Y6020
X32490Y6020
X29950Y6020
X35030Y3480
X32490Y3480
X29950Y3480
X27410Y6020
X27410Y3480
X40110Y6020
X45190Y28730
X70590Y31270
X68050Y31270
T6
X8250Y20500
X8250Y18011
X8250Y16004
X8250Y13490
X5532Y20500
X5532Y18011
X5532Y16004
X5532Y13490
T7
X74229Y3594
X76229Y1594
X74229Y1594
X76229Y3594
T8
X10135Y26899
X54178Y26670
X52807Y33299
X11201Y28727
X12421Y27508
X75057Y24994
X58141Y13411
X60350Y25527
X53569Y27737
X50902Y27127
X48692Y27584
X58293Y17297
X70790Y20574
X73457Y20879
X75057Y12725
X65227Y8001
X62255Y4496
X46482Y3962
X73000Y686
X66827Y12725
X68199Y12725
X78867Y8534
X59055Y17297
X103099Y26213
X103861Y9677
X35738Y12878
X34671Y14859
X37186Y10820
X96622Y26365
X83668Y32842
X47625Y32690
X84811Y8763
X83744Y2972
X74219Y8230
X72085Y2667
X72847Y1905
X86563Y3734
X85801Y2972
X16916Y16002
X25070Y25222
X41758Y32614
X57302Y29870
X82906Y23089
X84811Y23012
X84506Y26746
X83744Y27508
X54940Y11963
X55702Y12725
X98146Y9677
X97384Y10439
X79019Y13716
X75057Y13792
X72161Y14859
X65684Y13564
X63094Y8611
X65989Y8001
X75209Y10592
X87020Y8915
X81077Y22708
X89002Y16459
X84963Y23774
X42824Y32614
X80315Y22708
X82525Y20650
X52197Y10897
X52883Y15697
X36271Y13487
X35433Y14630
X45034Y10516
X69418Y20726
X73228Y19888
X83134Y7087
X91211Y27889
X81001Y12497
X75895Y11049
X10058Y15011
X14249Y24384
X34519Y15621
X34519Y13259
X14630Y10973
X109423Y27508
X108966Y9830
X103099Y24841
X54254Y17907
X55016Y18669
X52349Y21641
X49378Y32385
X73762Y18745
X68885Y18059
X91592Y31928
X83972Y23012
X91973Y26289
X85268Y9449
X77648Y8153
X94107Y10439
X63703Y8001
X64465Y8763
X81839Y22708
X81305Y24689
X82067Y25451
X85649Y21641
X75590Y16383
X70409Y8077
X69647Y7315
X48463Y15773
X49606Y15697
X67666Y15011
X69037Y15011
X47701Y15773
X45872Y17602
X45644Y21717
X46101Y29870
X58293Y33452
X17831Y27813
X48997Y18364
X47625Y18440
X49530Y21793
X69952Y19736
X69190Y18974
X65075Y10973
X82144Y2972
X90145Y2667
X69952Y13030
X52654Y17526
X59284Y13030
X68885Y5029
X51359Y29489
X18440Y28423
X56464Y4191
X32614Y11049
X22250Y23393
X53340Y7391
X30861Y23851
X12268Y16231
X11278Y16764
X16764Y26213
X36271Y16002
X47854Y13183
X60350Y24765
X13183Y27661
X11049Y29794
X60274Y33452
X61722Y25451
X16078Y31394
X16840Y32156
X47930Y22250
X48997Y23317
X56845Y21869
X56159Y23546
X46634Y15850
X52273Y26441
X59588Y24765
X55931Y27051
X40234Y15392
X51054Y26365
X57836Y25756
X56540Y26518
X51283Y33299
X11201Y27965
M30