G04 EAGLE Gerber RS-274X export*
G75*
%MOMM*%
%FSLAX34Y34*%
%LPD*%
%INSolder Mask top*%
%IPPOS*%
%AMOC8*
5,1,8,0,0,1.08239X$1,22.5*%
G01*
%ADD10C,0.100000*%
%ADD11C,0.000000*%
%ADD12C,2.101600*%
%ADD13C,2.301600*%
%ADD14R,1.701600X2.801600*%
%ADD15R,1.401600X1.601600*%
%ADD16R,1.251600X0.751600*%
%ADD17R,1.401600X0.551600*%
%ADD18R,1.801600X1.501600*%
%ADD19R,0.901600X0.641600*%
%ADD20R,1.301600X1.501600*%
%ADD21R,1.631600X1.631600*%
%ADD22C,1.631600*%
%ADD23R,0.901600X1.301600*%
%ADD24P,1.759533X8X202.500000*%
%ADD25C,1.509600*%
%ADD26C,1.524000*%
%ADD27C,3.429000*%
%ADD28R,5.613400X2.108200*%
%ADD29R,1.101600X1.201600*%
%ADD30C,0.396575*%
%ADD31R,1.201600X1.101600*%
%ADD32R,1.079500X0.533400*%
%ADD33R,0.660400X1.282700*%
%ADD34R,0.660400X2.209800*%
%ADD35C,1.625600*%
%ADD36P,1.759533X8X22.500000*%


D10*
X0Y100000D02*
X29Y97584D01*
X117Y95169D01*
X263Y92757D01*
X467Y90349D01*
X729Y87946D01*
X1049Y85551D01*
X1427Y83164D01*
X1863Y80787D01*
X2356Y78422D01*
X2906Y76068D01*
X3512Y73729D01*
X4175Y71405D01*
X4894Y69098D01*
X5669Y66809D01*
X6498Y64540D01*
X7383Y62291D01*
X8321Y60064D01*
X9313Y57860D01*
X10357Y55681D01*
X11454Y53528D01*
X12603Y51402D01*
X13803Y49304D01*
X15053Y47236D01*
X16353Y45199D01*
X17702Y43194D01*
X19098Y41221D01*
X20542Y39284D01*
X22033Y37381D01*
X23568Y35516D01*
X25149Y33688D01*
X26773Y31898D01*
X28440Y30149D01*
X30149Y28440D01*
X31898Y26773D01*
X33688Y25149D01*
X35516Y23568D01*
X37381Y22033D01*
X39284Y20542D01*
X41221Y19098D01*
X43194Y17702D01*
X45199Y16353D01*
X47236Y15053D01*
X49304Y13803D01*
X51402Y12603D01*
X53528Y11454D01*
X55681Y10357D01*
X57860Y9313D01*
X60064Y8321D01*
X62291Y7383D01*
X64540Y6498D01*
X66809Y5669D01*
X69098Y4894D01*
X71405Y4175D01*
X73729Y3512D01*
X76068Y2906D01*
X78422Y2356D01*
X80787Y1863D01*
X83164Y1427D01*
X85551Y1049D01*
X87946Y729D01*
X90349Y467D01*
X92757Y263D01*
X95169Y117D01*
X97584Y29D01*
X100000Y0D01*
X1118706Y98476D02*
X1118706Y248476D01*
X100000Y350000D02*
X97584Y349971D01*
X95169Y349883D01*
X92757Y349737D01*
X90349Y349533D01*
X87946Y349271D01*
X85551Y348951D01*
X83164Y348573D01*
X80787Y348137D01*
X78422Y347644D01*
X76068Y347094D01*
X73729Y346488D01*
X71405Y345825D01*
X69098Y345106D01*
X66809Y344331D01*
X64540Y343502D01*
X62291Y342617D01*
X60064Y341679D01*
X57860Y340687D01*
X55681Y339643D01*
X53528Y338546D01*
X51402Y337397D01*
X49304Y336197D01*
X47236Y334947D01*
X45199Y333647D01*
X43194Y332298D01*
X41221Y330902D01*
X39284Y329458D01*
X37381Y327967D01*
X35516Y326432D01*
X33688Y324851D01*
X31898Y323227D01*
X30149Y321560D01*
X28440Y319851D01*
X26773Y318102D01*
X25149Y316312D01*
X23568Y314484D01*
X22033Y312619D01*
X20542Y310716D01*
X19098Y308779D01*
X17702Y306806D01*
X16353Y304801D01*
X15053Y302764D01*
X13803Y300696D01*
X12603Y298598D01*
X11454Y296472D01*
X10357Y294319D01*
X9313Y292140D01*
X8321Y289936D01*
X7383Y287709D01*
X6498Y285460D01*
X5669Y283191D01*
X4894Y280902D01*
X4175Y278595D01*
X3512Y276271D01*
X2906Y273932D01*
X2356Y271578D01*
X1863Y269213D01*
X1427Y266836D01*
X1049Y264449D01*
X729Y262054D01*
X467Y259651D01*
X263Y257243D01*
X117Y254831D01*
X29Y252416D01*
X0Y250000D01*
X0Y100000D01*
X100000Y0D02*
X1018706Y-1524D01*
X1018706Y348476D02*
X100000Y350000D01*
X1018706Y348476D02*
X1021122Y348447D01*
X1023537Y348359D01*
X1025949Y348213D01*
X1028357Y348009D01*
X1030760Y347747D01*
X1033155Y347427D01*
X1035542Y347049D01*
X1037919Y346613D01*
X1040284Y346120D01*
X1042638Y345570D01*
X1044977Y344964D01*
X1047301Y344301D01*
X1049608Y343582D01*
X1051897Y342807D01*
X1054166Y341978D01*
X1056415Y341093D01*
X1058642Y340155D01*
X1060846Y339163D01*
X1063025Y338119D01*
X1065178Y337022D01*
X1067304Y335873D01*
X1069402Y334673D01*
X1071470Y333423D01*
X1073507Y332123D01*
X1075512Y330774D01*
X1077485Y329378D01*
X1079422Y327934D01*
X1081325Y326443D01*
X1083190Y324908D01*
X1085018Y323327D01*
X1086808Y321703D01*
X1088557Y320036D01*
X1090266Y318327D01*
X1091933Y316578D01*
X1093557Y314788D01*
X1095138Y312960D01*
X1096673Y311095D01*
X1098164Y309192D01*
X1099608Y307255D01*
X1101004Y305282D01*
X1102353Y303277D01*
X1103653Y301240D01*
X1104903Y299172D01*
X1106103Y297074D01*
X1107252Y294948D01*
X1108349Y292795D01*
X1109393Y290616D01*
X1110385Y288412D01*
X1111323Y286185D01*
X1112208Y283936D01*
X1113037Y281667D01*
X1113812Y279378D01*
X1114531Y277071D01*
X1115194Y274747D01*
X1115800Y272408D01*
X1116350Y270054D01*
X1116843Y267689D01*
X1117279Y265312D01*
X1117657Y262925D01*
X1117977Y260530D01*
X1118239Y258127D01*
X1118443Y255719D01*
X1118589Y253307D01*
X1118677Y250892D01*
X1118706Y248476D01*
X100000Y350000D02*
X97584Y349971D01*
X95169Y349883D01*
X92757Y349737D01*
X90349Y349533D01*
X87946Y349271D01*
X85551Y348951D01*
X83164Y348573D01*
X80787Y348137D01*
X78422Y347644D01*
X76068Y347094D01*
X73729Y346488D01*
X71405Y345825D01*
X69098Y345106D01*
X66809Y344331D01*
X64540Y343502D01*
X62291Y342617D01*
X60064Y341679D01*
X57860Y340687D01*
X55681Y339643D01*
X53528Y338546D01*
X51402Y337397D01*
X49304Y336197D01*
X47236Y334947D01*
X45199Y333647D01*
X43194Y332298D01*
X41221Y330902D01*
X39284Y329458D01*
X37381Y327967D01*
X35516Y326432D01*
X33688Y324851D01*
X31898Y323227D01*
X30149Y321560D01*
X28440Y319851D01*
X26773Y318102D01*
X25149Y316312D01*
X23568Y314484D01*
X22033Y312619D01*
X20542Y310716D01*
X19098Y308779D01*
X17702Y306806D01*
X16353Y304801D01*
X15053Y302764D01*
X13803Y300696D01*
X12603Y298598D01*
X11454Y296472D01*
X10357Y294319D01*
X9313Y292140D01*
X8321Y289936D01*
X7383Y287709D01*
X6498Y285460D01*
X5669Y283191D01*
X4894Y280902D01*
X4175Y278595D01*
X3512Y276271D01*
X2906Y273932D01*
X2356Y271578D01*
X1863Y269213D01*
X1427Y266836D01*
X1049Y264449D01*
X729Y262054D01*
X467Y259651D01*
X263Y257243D01*
X117Y254831D01*
X29Y252416D01*
X0Y250000D01*
X1018706Y-1524D02*
X1021122Y-1495D01*
X1023537Y-1407D01*
X1025949Y-1261D01*
X1028357Y-1057D01*
X1030760Y-795D01*
X1033155Y-475D01*
X1035542Y-97D01*
X1037919Y339D01*
X1040284Y832D01*
X1042638Y1382D01*
X1044977Y1988D01*
X1047301Y2651D01*
X1049608Y3370D01*
X1051897Y4145D01*
X1054166Y4974D01*
X1056415Y5859D01*
X1058642Y6797D01*
X1060846Y7789D01*
X1063025Y8833D01*
X1065178Y9930D01*
X1067304Y11079D01*
X1069402Y12279D01*
X1071470Y13529D01*
X1073507Y14829D01*
X1075512Y16178D01*
X1077485Y17574D01*
X1079422Y19018D01*
X1081325Y20509D01*
X1083190Y22044D01*
X1085018Y23625D01*
X1086808Y25249D01*
X1088557Y26916D01*
X1090266Y28625D01*
X1091933Y30374D01*
X1093557Y32164D01*
X1095138Y33992D01*
X1096673Y35857D01*
X1098164Y37760D01*
X1099608Y39697D01*
X1101004Y41670D01*
X1102353Y43675D01*
X1103653Y45712D01*
X1104903Y47780D01*
X1106103Y49878D01*
X1107252Y52004D01*
X1108349Y54157D01*
X1109393Y56336D01*
X1110385Y58540D01*
X1111323Y60767D01*
X1112208Y63016D01*
X1113037Y65285D01*
X1113812Y67574D01*
X1114531Y69881D01*
X1115194Y72205D01*
X1115800Y74544D01*
X1116350Y76898D01*
X1116843Y79263D01*
X1117279Y81640D01*
X1117657Y84027D01*
X1117977Y86422D01*
X1118239Y88825D01*
X1118443Y91233D01*
X1118589Y93645D01*
X1118677Y96060D01*
X1118706Y98476D01*
D11*
X1046640Y44450D02*
X1046643Y44695D01*
X1046652Y44941D01*
X1046667Y45186D01*
X1046688Y45430D01*
X1046715Y45674D01*
X1046748Y45917D01*
X1046787Y46160D01*
X1046832Y46401D01*
X1046883Y46641D01*
X1046940Y46880D01*
X1047002Y47117D01*
X1047071Y47353D01*
X1047145Y47587D01*
X1047225Y47819D01*
X1047310Y48049D01*
X1047401Y48277D01*
X1047498Y48502D01*
X1047600Y48726D01*
X1047708Y48946D01*
X1047821Y49164D01*
X1047939Y49379D01*
X1048063Y49591D01*
X1048191Y49800D01*
X1048325Y50006D01*
X1048464Y50208D01*
X1048608Y50407D01*
X1048757Y50602D01*
X1048910Y50794D01*
X1049068Y50982D01*
X1049230Y51166D01*
X1049398Y51345D01*
X1049569Y51521D01*
X1049745Y51692D01*
X1049924Y51860D01*
X1050108Y52022D01*
X1050296Y52180D01*
X1050488Y52333D01*
X1050683Y52482D01*
X1050882Y52626D01*
X1051084Y52765D01*
X1051290Y52899D01*
X1051499Y53027D01*
X1051711Y53151D01*
X1051926Y53269D01*
X1052144Y53382D01*
X1052364Y53490D01*
X1052588Y53592D01*
X1052813Y53689D01*
X1053041Y53780D01*
X1053271Y53865D01*
X1053503Y53945D01*
X1053737Y54019D01*
X1053973Y54088D01*
X1054210Y54150D01*
X1054449Y54207D01*
X1054689Y54258D01*
X1054930Y54303D01*
X1055173Y54342D01*
X1055416Y54375D01*
X1055660Y54402D01*
X1055904Y54423D01*
X1056149Y54438D01*
X1056395Y54447D01*
X1056640Y54450D01*
X1056885Y54447D01*
X1057131Y54438D01*
X1057376Y54423D01*
X1057620Y54402D01*
X1057864Y54375D01*
X1058107Y54342D01*
X1058350Y54303D01*
X1058591Y54258D01*
X1058831Y54207D01*
X1059070Y54150D01*
X1059307Y54088D01*
X1059543Y54019D01*
X1059777Y53945D01*
X1060009Y53865D01*
X1060239Y53780D01*
X1060467Y53689D01*
X1060692Y53592D01*
X1060916Y53490D01*
X1061136Y53382D01*
X1061354Y53269D01*
X1061569Y53151D01*
X1061781Y53027D01*
X1061990Y52899D01*
X1062196Y52765D01*
X1062398Y52626D01*
X1062597Y52482D01*
X1062792Y52333D01*
X1062984Y52180D01*
X1063172Y52022D01*
X1063356Y51860D01*
X1063535Y51692D01*
X1063711Y51521D01*
X1063882Y51345D01*
X1064050Y51166D01*
X1064212Y50982D01*
X1064370Y50794D01*
X1064523Y50602D01*
X1064672Y50407D01*
X1064816Y50208D01*
X1064955Y50006D01*
X1065089Y49800D01*
X1065217Y49591D01*
X1065341Y49379D01*
X1065459Y49164D01*
X1065572Y48946D01*
X1065680Y48726D01*
X1065782Y48502D01*
X1065879Y48277D01*
X1065970Y48049D01*
X1066055Y47819D01*
X1066135Y47587D01*
X1066209Y47353D01*
X1066278Y47117D01*
X1066340Y46880D01*
X1066397Y46641D01*
X1066448Y46401D01*
X1066493Y46160D01*
X1066532Y45917D01*
X1066565Y45674D01*
X1066592Y45430D01*
X1066613Y45186D01*
X1066628Y44941D01*
X1066637Y44695D01*
X1066640Y44450D01*
X1066637Y44205D01*
X1066628Y43959D01*
X1066613Y43714D01*
X1066592Y43470D01*
X1066565Y43226D01*
X1066532Y42983D01*
X1066493Y42740D01*
X1066448Y42499D01*
X1066397Y42259D01*
X1066340Y42020D01*
X1066278Y41783D01*
X1066209Y41547D01*
X1066135Y41313D01*
X1066055Y41081D01*
X1065970Y40851D01*
X1065879Y40623D01*
X1065782Y40398D01*
X1065680Y40174D01*
X1065572Y39954D01*
X1065459Y39736D01*
X1065341Y39521D01*
X1065217Y39309D01*
X1065089Y39100D01*
X1064955Y38894D01*
X1064816Y38692D01*
X1064672Y38493D01*
X1064523Y38298D01*
X1064370Y38106D01*
X1064212Y37918D01*
X1064050Y37734D01*
X1063882Y37555D01*
X1063711Y37379D01*
X1063535Y37208D01*
X1063356Y37040D01*
X1063172Y36878D01*
X1062984Y36720D01*
X1062792Y36567D01*
X1062597Y36418D01*
X1062398Y36274D01*
X1062196Y36135D01*
X1061990Y36001D01*
X1061781Y35873D01*
X1061569Y35749D01*
X1061354Y35631D01*
X1061136Y35518D01*
X1060916Y35410D01*
X1060692Y35308D01*
X1060467Y35211D01*
X1060239Y35120D01*
X1060009Y35035D01*
X1059777Y34955D01*
X1059543Y34881D01*
X1059307Y34812D01*
X1059070Y34750D01*
X1058831Y34693D01*
X1058591Y34642D01*
X1058350Y34597D01*
X1058107Y34558D01*
X1057864Y34525D01*
X1057620Y34498D01*
X1057376Y34477D01*
X1057131Y34462D01*
X1056885Y34453D01*
X1056640Y34450D01*
X1056395Y34453D01*
X1056149Y34462D01*
X1055904Y34477D01*
X1055660Y34498D01*
X1055416Y34525D01*
X1055173Y34558D01*
X1054930Y34597D01*
X1054689Y34642D01*
X1054449Y34693D01*
X1054210Y34750D01*
X1053973Y34812D01*
X1053737Y34881D01*
X1053503Y34955D01*
X1053271Y35035D01*
X1053041Y35120D01*
X1052813Y35211D01*
X1052588Y35308D01*
X1052364Y35410D01*
X1052144Y35518D01*
X1051926Y35631D01*
X1051711Y35749D01*
X1051499Y35873D01*
X1051290Y36001D01*
X1051084Y36135D01*
X1050882Y36274D01*
X1050683Y36418D01*
X1050488Y36567D01*
X1050296Y36720D01*
X1050108Y36878D01*
X1049924Y37040D01*
X1049745Y37208D01*
X1049569Y37379D01*
X1049398Y37555D01*
X1049230Y37734D01*
X1049068Y37918D01*
X1048910Y38106D01*
X1048757Y38298D01*
X1048608Y38493D01*
X1048464Y38692D01*
X1048325Y38894D01*
X1048191Y39100D01*
X1048063Y39309D01*
X1047939Y39521D01*
X1047821Y39736D01*
X1047708Y39954D01*
X1047600Y40174D01*
X1047498Y40398D01*
X1047401Y40623D01*
X1047310Y40851D01*
X1047225Y41081D01*
X1047145Y41313D01*
X1047071Y41547D01*
X1047002Y41783D01*
X1046940Y42020D01*
X1046883Y42259D01*
X1046832Y42499D01*
X1046787Y42740D01*
X1046748Y42983D01*
X1046715Y43226D01*
X1046688Y43470D01*
X1046667Y43714D01*
X1046652Y43959D01*
X1046643Y44205D01*
X1046640Y44450D01*
D12*
X1056640Y44450D03*
D11*
X1046640Y304800D02*
X1046643Y305045D01*
X1046652Y305291D01*
X1046667Y305536D01*
X1046688Y305780D01*
X1046715Y306024D01*
X1046748Y306267D01*
X1046787Y306510D01*
X1046832Y306751D01*
X1046883Y306991D01*
X1046940Y307230D01*
X1047002Y307467D01*
X1047071Y307703D01*
X1047145Y307937D01*
X1047225Y308169D01*
X1047310Y308399D01*
X1047401Y308627D01*
X1047498Y308852D01*
X1047600Y309076D01*
X1047708Y309296D01*
X1047821Y309514D01*
X1047939Y309729D01*
X1048063Y309941D01*
X1048191Y310150D01*
X1048325Y310356D01*
X1048464Y310558D01*
X1048608Y310757D01*
X1048757Y310952D01*
X1048910Y311144D01*
X1049068Y311332D01*
X1049230Y311516D01*
X1049398Y311695D01*
X1049569Y311871D01*
X1049745Y312042D01*
X1049924Y312210D01*
X1050108Y312372D01*
X1050296Y312530D01*
X1050488Y312683D01*
X1050683Y312832D01*
X1050882Y312976D01*
X1051084Y313115D01*
X1051290Y313249D01*
X1051499Y313377D01*
X1051711Y313501D01*
X1051926Y313619D01*
X1052144Y313732D01*
X1052364Y313840D01*
X1052588Y313942D01*
X1052813Y314039D01*
X1053041Y314130D01*
X1053271Y314215D01*
X1053503Y314295D01*
X1053737Y314369D01*
X1053973Y314438D01*
X1054210Y314500D01*
X1054449Y314557D01*
X1054689Y314608D01*
X1054930Y314653D01*
X1055173Y314692D01*
X1055416Y314725D01*
X1055660Y314752D01*
X1055904Y314773D01*
X1056149Y314788D01*
X1056395Y314797D01*
X1056640Y314800D01*
X1056885Y314797D01*
X1057131Y314788D01*
X1057376Y314773D01*
X1057620Y314752D01*
X1057864Y314725D01*
X1058107Y314692D01*
X1058350Y314653D01*
X1058591Y314608D01*
X1058831Y314557D01*
X1059070Y314500D01*
X1059307Y314438D01*
X1059543Y314369D01*
X1059777Y314295D01*
X1060009Y314215D01*
X1060239Y314130D01*
X1060467Y314039D01*
X1060692Y313942D01*
X1060916Y313840D01*
X1061136Y313732D01*
X1061354Y313619D01*
X1061569Y313501D01*
X1061781Y313377D01*
X1061990Y313249D01*
X1062196Y313115D01*
X1062398Y312976D01*
X1062597Y312832D01*
X1062792Y312683D01*
X1062984Y312530D01*
X1063172Y312372D01*
X1063356Y312210D01*
X1063535Y312042D01*
X1063711Y311871D01*
X1063882Y311695D01*
X1064050Y311516D01*
X1064212Y311332D01*
X1064370Y311144D01*
X1064523Y310952D01*
X1064672Y310757D01*
X1064816Y310558D01*
X1064955Y310356D01*
X1065089Y310150D01*
X1065217Y309941D01*
X1065341Y309729D01*
X1065459Y309514D01*
X1065572Y309296D01*
X1065680Y309076D01*
X1065782Y308852D01*
X1065879Y308627D01*
X1065970Y308399D01*
X1066055Y308169D01*
X1066135Y307937D01*
X1066209Y307703D01*
X1066278Y307467D01*
X1066340Y307230D01*
X1066397Y306991D01*
X1066448Y306751D01*
X1066493Y306510D01*
X1066532Y306267D01*
X1066565Y306024D01*
X1066592Y305780D01*
X1066613Y305536D01*
X1066628Y305291D01*
X1066637Y305045D01*
X1066640Y304800D01*
X1066637Y304555D01*
X1066628Y304309D01*
X1066613Y304064D01*
X1066592Y303820D01*
X1066565Y303576D01*
X1066532Y303333D01*
X1066493Y303090D01*
X1066448Y302849D01*
X1066397Y302609D01*
X1066340Y302370D01*
X1066278Y302133D01*
X1066209Y301897D01*
X1066135Y301663D01*
X1066055Y301431D01*
X1065970Y301201D01*
X1065879Y300973D01*
X1065782Y300748D01*
X1065680Y300524D01*
X1065572Y300304D01*
X1065459Y300086D01*
X1065341Y299871D01*
X1065217Y299659D01*
X1065089Y299450D01*
X1064955Y299244D01*
X1064816Y299042D01*
X1064672Y298843D01*
X1064523Y298648D01*
X1064370Y298456D01*
X1064212Y298268D01*
X1064050Y298084D01*
X1063882Y297905D01*
X1063711Y297729D01*
X1063535Y297558D01*
X1063356Y297390D01*
X1063172Y297228D01*
X1062984Y297070D01*
X1062792Y296917D01*
X1062597Y296768D01*
X1062398Y296624D01*
X1062196Y296485D01*
X1061990Y296351D01*
X1061781Y296223D01*
X1061569Y296099D01*
X1061354Y295981D01*
X1061136Y295868D01*
X1060916Y295760D01*
X1060692Y295658D01*
X1060467Y295561D01*
X1060239Y295470D01*
X1060009Y295385D01*
X1059777Y295305D01*
X1059543Y295231D01*
X1059307Y295162D01*
X1059070Y295100D01*
X1058831Y295043D01*
X1058591Y294992D01*
X1058350Y294947D01*
X1058107Y294908D01*
X1057864Y294875D01*
X1057620Y294848D01*
X1057376Y294827D01*
X1057131Y294812D01*
X1056885Y294803D01*
X1056640Y294800D01*
X1056395Y294803D01*
X1056149Y294812D01*
X1055904Y294827D01*
X1055660Y294848D01*
X1055416Y294875D01*
X1055173Y294908D01*
X1054930Y294947D01*
X1054689Y294992D01*
X1054449Y295043D01*
X1054210Y295100D01*
X1053973Y295162D01*
X1053737Y295231D01*
X1053503Y295305D01*
X1053271Y295385D01*
X1053041Y295470D01*
X1052813Y295561D01*
X1052588Y295658D01*
X1052364Y295760D01*
X1052144Y295868D01*
X1051926Y295981D01*
X1051711Y296099D01*
X1051499Y296223D01*
X1051290Y296351D01*
X1051084Y296485D01*
X1050882Y296624D01*
X1050683Y296768D01*
X1050488Y296917D01*
X1050296Y297070D01*
X1050108Y297228D01*
X1049924Y297390D01*
X1049745Y297558D01*
X1049569Y297729D01*
X1049398Y297905D01*
X1049230Y298084D01*
X1049068Y298268D01*
X1048910Y298456D01*
X1048757Y298648D01*
X1048608Y298843D01*
X1048464Y299042D01*
X1048325Y299244D01*
X1048191Y299450D01*
X1048063Y299659D01*
X1047939Y299871D01*
X1047821Y300086D01*
X1047708Y300304D01*
X1047600Y300524D01*
X1047498Y300748D01*
X1047401Y300973D01*
X1047310Y301201D01*
X1047225Y301431D01*
X1047145Y301663D01*
X1047071Y301897D01*
X1047002Y302133D01*
X1046940Y302370D01*
X1046883Y302609D01*
X1046832Y302849D01*
X1046787Y303090D01*
X1046748Y303333D01*
X1046715Y303576D01*
X1046688Y303820D01*
X1046667Y304064D01*
X1046652Y304309D01*
X1046643Y304555D01*
X1046640Y304800D01*
D12*
X1056640Y304800D03*
D11*
X50000Y270000D02*
X50003Y270245D01*
X50012Y270491D01*
X50027Y270736D01*
X50048Y270980D01*
X50075Y271224D01*
X50108Y271467D01*
X50147Y271710D01*
X50192Y271951D01*
X50243Y272191D01*
X50300Y272430D01*
X50362Y272667D01*
X50431Y272903D01*
X50505Y273137D01*
X50585Y273369D01*
X50670Y273599D01*
X50761Y273827D01*
X50858Y274052D01*
X50960Y274276D01*
X51068Y274496D01*
X51181Y274714D01*
X51299Y274929D01*
X51423Y275141D01*
X51551Y275350D01*
X51685Y275556D01*
X51824Y275758D01*
X51968Y275957D01*
X52117Y276152D01*
X52270Y276344D01*
X52428Y276532D01*
X52590Y276716D01*
X52758Y276895D01*
X52929Y277071D01*
X53105Y277242D01*
X53284Y277410D01*
X53468Y277572D01*
X53656Y277730D01*
X53848Y277883D01*
X54043Y278032D01*
X54242Y278176D01*
X54444Y278315D01*
X54650Y278449D01*
X54859Y278577D01*
X55071Y278701D01*
X55286Y278819D01*
X55504Y278932D01*
X55724Y279040D01*
X55948Y279142D01*
X56173Y279239D01*
X56401Y279330D01*
X56631Y279415D01*
X56863Y279495D01*
X57097Y279569D01*
X57333Y279638D01*
X57570Y279700D01*
X57809Y279757D01*
X58049Y279808D01*
X58290Y279853D01*
X58533Y279892D01*
X58776Y279925D01*
X59020Y279952D01*
X59264Y279973D01*
X59509Y279988D01*
X59755Y279997D01*
X60000Y280000D01*
X60245Y279997D01*
X60491Y279988D01*
X60736Y279973D01*
X60980Y279952D01*
X61224Y279925D01*
X61467Y279892D01*
X61710Y279853D01*
X61951Y279808D01*
X62191Y279757D01*
X62430Y279700D01*
X62667Y279638D01*
X62903Y279569D01*
X63137Y279495D01*
X63369Y279415D01*
X63599Y279330D01*
X63827Y279239D01*
X64052Y279142D01*
X64276Y279040D01*
X64496Y278932D01*
X64714Y278819D01*
X64929Y278701D01*
X65141Y278577D01*
X65350Y278449D01*
X65556Y278315D01*
X65758Y278176D01*
X65957Y278032D01*
X66152Y277883D01*
X66344Y277730D01*
X66532Y277572D01*
X66716Y277410D01*
X66895Y277242D01*
X67071Y277071D01*
X67242Y276895D01*
X67410Y276716D01*
X67572Y276532D01*
X67730Y276344D01*
X67883Y276152D01*
X68032Y275957D01*
X68176Y275758D01*
X68315Y275556D01*
X68449Y275350D01*
X68577Y275141D01*
X68701Y274929D01*
X68819Y274714D01*
X68932Y274496D01*
X69040Y274276D01*
X69142Y274052D01*
X69239Y273827D01*
X69330Y273599D01*
X69415Y273369D01*
X69495Y273137D01*
X69569Y272903D01*
X69638Y272667D01*
X69700Y272430D01*
X69757Y272191D01*
X69808Y271951D01*
X69853Y271710D01*
X69892Y271467D01*
X69925Y271224D01*
X69952Y270980D01*
X69973Y270736D01*
X69988Y270491D01*
X69997Y270245D01*
X70000Y270000D01*
X69997Y269755D01*
X69988Y269509D01*
X69973Y269264D01*
X69952Y269020D01*
X69925Y268776D01*
X69892Y268533D01*
X69853Y268290D01*
X69808Y268049D01*
X69757Y267809D01*
X69700Y267570D01*
X69638Y267333D01*
X69569Y267097D01*
X69495Y266863D01*
X69415Y266631D01*
X69330Y266401D01*
X69239Y266173D01*
X69142Y265948D01*
X69040Y265724D01*
X68932Y265504D01*
X68819Y265286D01*
X68701Y265071D01*
X68577Y264859D01*
X68449Y264650D01*
X68315Y264444D01*
X68176Y264242D01*
X68032Y264043D01*
X67883Y263848D01*
X67730Y263656D01*
X67572Y263468D01*
X67410Y263284D01*
X67242Y263105D01*
X67071Y262929D01*
X66895Y262758D01*
X66716Y262590D01*
X66532Y262428D01*
X66344Y262270D01*
X66152Y262117D01*
X65957Y261968D01*
X65758Y261824D01*
X65556Y261685D01*
X65350Y261551D01*
X65141Y261423D01*
X64929Y261299D01*
X64714Y261181D01*
X64496Y261068D01*
X64276Y260960D01*
X64052Y260858D01*
X63827Y260761D01*
X63599Y260670D01*
X63369Y260585D01*
X63137Y260505D01*
X62903Y260431D01*
X62667Y260362D01*
X62430Y260300D01*
X62191Y260243D01*
X61951Y260192D01*
X61710Y260147D01*
X61467Y260108D01*
X61224Y260075D01*
X60980Y260048D01*
X60736Y260027D01*
X60491Y260012D01*
X60245Y260003D01*
X60000Y260000D01*
X59755Y260003D01*
X59509Y260012D01*
X59264Y260027D01*
X59020Y260048D01*
X58776Y260075D01*
X58533Y260108D01*
X58290Y260147D01*
X58049Y260192D01*
X57809Y260243D01*
X57570Y260300D01*
X57333Y260362D01*
X57097Y260431D01*
X56863Y260505D01*
X56631Y260585D01*
X56401Y260670D01*
X56173Y260761D01*
X55948Y260858D01*
X55724Y260960D01*
X55504Y261068D01*
X55286Y261181D01*
X55071Y261299D01*
X54859Y261423D01*
X54650Y261551D01*
X54444Y261685D01*
X54242Y261824D01*
X54043Y261968D01*
X53848Y262117D01*
X53656Y262270D01*
X53468Y262428D01*
X53284Y262590D01*
X53105Y262758D01*
X52929Y262929D01*
X52758Y263105D01*
X52590Y263284D01*
X52428Y263468D01*
X52270Y263656D01*
X52117Y263848D01*
X51968Y264043D01*
X51824Y264242D01*
X51685Y264444D01*
X51551Y264650D01*
X51423Y264859D01*
X51299Y265071D01*
X51181Y265286D01*
X51068Y265504D01*
X50960Y265724D01*
X50858Y265948D01*
X50761Y266173D01*
X50670Y266401D01*
X50585Y266631D01*
X50505Y266863D01*
X50431Y267097D01*
X50362Y267333D01*
X50300Y267570D01*
X50243Y267809D01*
X50192Y268049D01*
X50147Y268290D01*
X50108Y268533D01*
X50075Y268776D01*
X50048Y269020D01*
X50027Y269264D01*
X50012Y269509D01*
X50003Y269755D01*
X50000Y270000D01*
D12*
X60000Y270000D03*
D11*
X50000Y70000D02*
X50003Y70245D01*
X50012Y70491D01*
X50027Y70736D01*
X50048Y70980D01*
X50075Y71224D01*
X50108Y71467D01*
X50147Y71710D01*
X50192Y71951D01*
X50243Y72191D01*
X50300Y72430D01*
X50362Y72667D01*
X50431Y72903D01*
X50505Y73137D01*
X50585Y73369D01*
X50670Y73599D01*
X50761Y73827D01*
X50858Y74052D01*
X50960Y74276D01*
X51068Y74496D01*
X51181Y74714D01*
X51299Y74929D01*
X51423Y75141D01*
X51551Y75350D01*
X51685Y75556D01*
X51824Y75758D01*
X51968Y75957D01*
X52117Y76152D01*
X52270Y76344D01*
X52428Y76532D01*
X52590Y76716D01*
X52758Y76895D01*
X52929Y77071D01*
X53105Y77242D01*
X53284Y77410D01*
X53468Y77572D01*
X53656Y77730D01*
X53848Y77883D01*
X54043Y78032D01*
X54242Y78176D01*
X54444Y78315D01*
X54650Y78449D01*
X54859Y78577D01*
X55071Y78701D01*
X55286Y78819D01*
X55504Y78932D01*
X55724Y79040D01*
X55948Y79142D01*
X56173Y79239D01*
X56401Y79330D01*
X56631Y79415D01*
X56863Y79495D01*
X57097Y79569D01*
X57333Y79638D01*
X57570Y79700D01*
X57809Y79757D01*
X58049Y79808D01*
X58290Y79853D01*
X58533Y79892D01*
X58776Y79925D01*
X59020Y79952D01*
X59264Y79973D01*
X59509Y79988D01*
X59755Y79997D01*
X60000Y80000D01*
X60245Y79997D01*
X60491Y79988D01*
X60736Y79973D01*
X60980Y79952D01*
X61224Y79925D01*
X61467Y79892D01*
X61710Y79853D01*
X61951Y79808D01*
X62191Y79757D01*
X62430Y79700D01*
X62667Y79638D01*
X62903Y79569D01*
X63137Y79495D01*
X63369Y79415D01*
X63599Y79330D01*
X63827Y79239D01*
X64052Y79142D01*
X64276Y79040D01*
X64496Y78932D01*
X64714Y78819D01*
X64929Y78701D01*
X65141Y78577D01*
X65350Y78449D01*
X65556Y78315D01*
X65758Y78176D01*
X65957Y78032D01*
X66152Y77883D01*
X66344Y77730D01*
X66532Y77572D01*
X66716Y77410D01*
X66895Y77242D01*
X67071Y77071D01*
X67242Y76895D01*
X67410Y76716D01*
X67572Y76532D01*
X67730Y76344D01*
X67883Y76152D01*
X68032Y75957D01*
X68176Y75758D01*
X68315Y75556D01*
X68449Y75350D01*
X68577Y75141D01*
X68701Y74929D01*
X68819Y74714D01*
X68932Y74496D01*
X69040Y74276D01*
X69142Y74052D01*
X69239Y73827D01*
X69330Y73599D01*
X69415Y73369D01*
X69495Y73137D01*
X69569Y72903D01*
X69638Y72667D01*
X69700Y72430D01*
X69757Y72191D01*
X69808Y71951D01*
X69853Y71710D01*
X69892Y71467D01*
X69925Y71224D01*
X69952Y70980D01*
X69973Y70736D01*
X69988Y70491D01*
X69997Y70245D01*
X70000Y70000D01*
X69997Y69755D01*
X69988Y69509D01*
X69973Y69264D01*
X69952Y69020D01*
X69925Y68776D01*
X69892Y68533D01*
X69853Y68290D01*
X69808Y68049D01*
X69757Y67809D01*
X69700Y67570D01*
X69638Y67333D01*
X69569Y67097D01*
X69495Y66863D01*
X69415Y66631D01*
X69330Y66401D01*
X69239Y66173D01*
X69142Y65948D01*
X69040Y65724D01*
X68932Y65504D01*
X68819Y65286D01*
X68701Y65071D01*
X68577Y64859D01*
X68449Y64650D01*
X68315Y64444D01*
X68176Y64242D01*
X68032Y64043D01*
X67883Y63848D01*
X67730Y63656D01*
X67572Y63468D01*
X67410Y63284D01*
X67242Y63105D01*
X67071Y62929D01*
X66895Y62758D01*
X66716Y62590D01*
X66532Y62428D01*
X66344Y62270D01*
X66152Y62117D01*
X65957Y61968D01*
X65758Y61824D01*
X65556Y61685D01*
X65350Y61551D01*
X65141Y61423D01*
X64929Y61299D01*
X64714Y61181D01*
X64496Y61068D01*
X64276Y60960D01*
X64052Y60858D01*
X63827Y60761D01*
X63599Y60670D01*
X63369Y60585D01*
X63137Y60505D01*
X62903Y60431D01*
X62667Y60362D01*
X62430Y60300D01*
X62191Y60243D01*
X61951Y60192D01*
X61710Y60147D01*
X61467Y60108D01*
X61224Y60075D01*
X60980Y60048D01*
X60736Y60027D01*
X60491Y60012D01*
X60245Y60003D01*
X60000Y60000D01*
X59755Y60003D01*
X59509Y60012D01*
X59264Y60027D01*
X59020Y60048D01*
X58776Y60075D01*
X58533Y60108D01*
X58290Y60147D01*
X58049Y60192D01*
X57809Y60243D01*
X57570Y60300D01*
X57333Y60362D01*
X57097Y60431D01*
X56863Y60505D01*
X56631Y60585D01*
X56401Y60670D01*
X56173Y60761D01*
X55948Y60858D01*
X55724Y60960D01*
X55504Y61068D01*
X55286Y61181D01*
X55071Y61299D01*
X54859Y61423D01*
X54650Y61551D01*
X54444Y61685D01*
X54242Y61824D01*
X54043Y61968D01*
X53848Y62117D01*
X53656Y62270D01*
X53468Y62428D01*
X53284Y62590D01*
X53105Y62758D01*
X52929Y62929D01*
X52758Y63105D01*
X52590Y63284D01*
X52428Y63468D01*
X52270Y63656D01*
X52117Y63848D01*
X51968Y64043D01*
X51824Y64242D01*
X51685Y64444D01*
X51551Y64650D01*
X51423Y64859D01*
X51299Y65071D01*
X51181Y65286D01*
X51068Y65504D01*
X50960Y65724D01*
X50858Y65948D01*
X50761Y66173D01*
X50670Y66401D01*
X50585Y66631D01*
X50505Y66863D01*
X50431Y67097D01*
X50362Y67333D01*
X50300Y67570D01*
X50243Y67809D01*
X50192Y68049D01*
X50147Y68290D01*
X50108Y68533D01*
X50075Y68776D01*
X50048Y69020D01*
X50027Y69264D01*
X50012Y69509D01*
X50003Y69755D01*
X50000Y70000D01*
D12*
X60000Y70000D03*
D11*
X349000Y170000D02*
X349003Y170270D01*
X349013Y170540D01*
X349030Y170809D01*
X349053Y171078D01*
X349083Y171347D01*
X349119Y171614D01*
X349162Y171881D01*
X349211Y172146D01*
X349267Y172410D01*
X349330Y172673D01*
X349398Y172934D01*
X349474Y173193D01*
X349555Y173450D01*
X349643Y173706D01*
X349737Y173959D01*
X349837Y174210D01*
X349944Y174458D01*
X350056Y174703D01*
X350175Y174946D01*
X350299Y175185D01*
X350429Y175422D01*
X350565Y175655D01*
X350707Y175885D01*
X350854Y176111D01*
X351007Y176334D01*
X351165Y176553D01*
X351328Y176768D01*
X351497Y176978D01*
X351671Y177185D01*
X351850Y177387D01*
X352033Y177585D01*
X352222Y177778D01*
X352415Y177967D01*
X352613Y178150D01*
X352815Y178329D01*
X353022Y178503D01*
X353232Y178672D01*
X353447Y178835D01*
X353666Y178993D01*
X353889Y179146D01*
X354115Y179293D01*
X354345Y179435D01*
X354578Y179571D01*
X354815Y179701D01*
X355054Y179825D01*
X355297Y179944D01*
X355542Y180056D01*
X355790Y180163D01*
X356041Y180263D01*
X356294Y180357D01*
X356550Y180445D01*
X356807Y180526D01*
X357066Y180602D01*
X357327Y180670D01*
X357590Y180733D01*
X357854Y180789D01*
X358119Y180838D01*
X358386Y180881D01*
X358653Y180917D01*
X358922Y180947D01*
X359191Y180970D01*
X359460Y180987D01*
X359730Y180997D01*
X360000Y181000D01*
X360270Y180997D01*
X360540Y180987D01*
X360809Y180970D01*
X361078Y180947D01*
X361347Y180917D01*
X361614Y180881D01*
X361881Y180838D01*
X362146Y180789D01*
X362410Y180733D01*
X362673Y180670D01*
X362934Y180602D01*
X363193Y180526D01*
X363450Y180445D01*
X363706Y180357D01*
X363959Y180263D01*
X364210Y180163D01*
X364458Y180056D01*
X364703Y179944D01*
X364946Y179825D01*
X365185Y179701D01*
X365422Y179571D01*
X365655Y179435D01*
X365885Y179293D01*
X366111Y179146D01*
X366334Y178993D01*
X366553Y178835D01*
X366768Y178672D01*
X366978Y178503D01*
X367185Y178329D01*
X367387Y178150D01*
X367585Y177967D01*
X367778Y177778D01*
X367967Y177585D01*
X368150Y177387D01*
X368329Y177185D01*
X368503Y176978D01*
X368672Y176768D01*
X368835Y176553D01*
X368993Y176334D01*
X369146Y176111D01*
X369293Y175885D01*
X369435Y175655D01*
X369571Y175422D01*
X369701Y175185D01*
X369825Y174946D01*
X369944Y174703D01*
X370056Y174458D01*
X370163Y174210D01*
X370263Y173959D01*
X370357Y173706D01*
X370445Y173450D01*
X370526Y173193D01*
X370602Y172934D01*
X370670Y172673D01*
X370733Y172410D01*
X370789Y172146D01*
X370838Y171881D01*
X370881Y171614D01*
X370917Y171347D01*
X370947Y171078D01*
X370970Y170809D01*
X370987Y170540D01*
X370997Y170270D01*
X371000Y170000D01*
X370997Y169730D01*
X370987Y169460D01*
X370970Y169191D01*
X370947Y168922D01*
X370917Y168653D01*
X370881Y168386D01*
X370838Y168119D01*
X370789Y167854D01*
X370733Y167590D01*
X370670Y167327D01*
X370602Y167066D01*
X370526Y166807D01*
X370445Y166550D01*
X370357Y166294D01*
X370263Y166041D01*
X370163Y165790D01*
X370056Y165542D01*
X369944Y165297D01*
X369825Y165054D01*
X369701Y164815D01*
X369571Y164578D01*
X369435Y164345D01*
X369293Y164115D01*
X369146Y163889D01*
X368993Y163666D01*
X368835Y163447D01*
X368672Y163232D01*
X368503Y163022D01*
X368329Y162815D01*
X368150Y162613D01*
X367967Y162415D01*
X367778Y162222D01*
X367585Y162033D01*
X367387Y161850D01*
X367185Y161671D01*
X366978Y161497D01*
X366768Y161328D01*
X366553Y161165D01*
X366334Y161007D01*
X366111Y160854D01*
X365885Y160707D01*
X365655Y160565D01*
X365422Y160429D01*
X365185Y160299D01*
X364946Y160175D01*
X364703Y160056D01*
X364458Y159944D01*
X364210Y159837D01*
X363959Y159737D01*
X363706Y159643D01*
X363450Y159555D01*
X363193Y159474D01*
X362934Y159398D01*
X362673Y159330D01*
X362410Y159267D01*
X362146Y159211D01*
X361881Y159162D01*
X361614Y159119D01*
X361347Y159083D01*
X361078Y159053D01*
X360809Y159030D01*
X360540Y159013D01*
X360270Y159003D01*
X360000Y159000D01*
X359730Y159003D01*
X359460Y159013D01*
X359191Y159030D01*
X358922Y159053D01*
X358653Y159083D01*
X358386Y159119D01*
X358119Y159162D01*
X357854Y159211D01*
X357590Y159267D01*
X357327Y159330D01*
X357066Y159398D01*
X356807Y159474D01*
X356550Y159555D01*
X356294Y159643D01*
X356041Y159737D01*
X355790Y159837D01*
X355542Y159944D01*
X355297Y160056D01*
X355054Y160175D01*
X354815Y160299D01*
X354578Y160429D01*
X354345Y160565D01*
X354115Y160707D01*
X353889Y160854D01*
X353666Y161007D01*
X353447Y161165D01*
X353232Y161328D01*
X353022Y161497D01*
X352815Y161671D01*
X352613Y161850D01*
X352415Y162033D01*
X352222Y162222D01*
X352033Y162415D01*
X351850Y162613D01*
X351671Y162815D01*
X351497Y163022D01*
X351328Y163232D01*
X351165Y163447D01*
X351007Y163666D01*
X350854Y163889D01*
X350707Y164115D01*
X350565Y164345D01*
X350429Y164578D01*
X350299Y164815D01*
X350175Y165054D01*
X350056Y165297D01*
X349944Y165542D01*
X349837Y165790D01*
X349737Y166041D01*
X349643Y166294D01*
X349555Y166550D01*
X349474Y166807D01*
X349398Y167066D01*
X349330Y167327D01*
X349267Y167590D01*
X349211Y167854D01*
X349162Y168119D01*
X349119Y168386D01*
X349083Y168653D01*
X349053Y168922D01*
X349030Y169191D01*
X349013Y169460D01*
X349003Y169730D01*
X349000Y170000D01*
D13*
X360000Y170000D03*
D14*
X979072Y263278D03*
X1007072Y263278D03*
D15*
X953216Y263464D03*
X934216Y263464D03*
D16*
X900700Y201950D03*
X900700Y176550D03*
X900700Y151150D03*
X900700Y214650D03*
X900700Y189250D03*
X900700Y163850D03*
D17*
X922400Y237100D03*
X942400Y237100D03*
D18*
X1038000Y235450D03*
X1038000Y113350D03*
D17*
X942400Y111700D03*
X922400Y111700D03*
D19*
X1032200Y149000D03*
X1032200Y199800D03*
D20*
X971852Y331054D03*
X1001852Y331054D03*
X885602Y331270D03*
X915602Y331270D03*
X795602Y330470D03*
X825602Y330470D03*
D21*
X209146Y313916D03*
D22*
X183746Y313916D03*
X158346Y313916D03*
X132946Y313916D03*
D23*
X776252Y330470D03*
X758252Y330470D03*
X867152Y331570D03*
X849152Y331570D03*
X954652Y332170D03*
X936652Y332170D03*
X780730Y95594D03*
X798730Y95594D03*
D15*
X886104Y262890D03*
X905104Y262890D03*
D21*
X129492Y39586D03*
D22*
X154892Y39586D03*
X180292Y39586D03*
X205692Y39586D03*
D23*
X861420Y93830D03*
X879420Y93830D03*
X941232Y93736D03*
X959232Y93736D03*
D24*
X705900Y312700D03*
X680500Y312700D03*
X655100Y312700D03*
X629700Y312700D03*
X604300Y312700D03*
X578900Y312700D03*
X705900Y287300D03*
X680500Y287300D03*
X655100Y287300D03*
X629700Y287300D03*
X604300Y287300D03*
X578900Y287300D03*
X553500Y312700D03*
X553500Y287300D03*
X528100Y312700D03*
X502700Y312700D03*
X477300Y312700D03*
X451900Y312700D03*
X426500Y312700D03*
X401100Y312700D03*
X528100Y287300D03*
X502700Y287300D03*
X477300Y287300D03*
X451900Y287300D03*
X426500Y287300D03*
X401100Y287300D03*
X375700Y312700D03*
X375700Y287300D03*
X350300Y312700D03*
X324900Y312700D03*
X299500Y312700D03*
X350300Y287300D03*
X324900Y287300D03*
X299500Y287300D03*
X274100Y312700D03*
X274100Y287300D03*
X705900Y60200D03*
X680500Y60200D03*
X655100Y60200D03*
X629700Y60200D03*
X604300Y60200D03*
X578900Y60200D03*
X705900Y34800D03*
X680500Y34800D03*
X655100Y34800D03*
X629700Y34800D03*
X604300Y34800D03*
X578900Y34800D03*
X553500Y60200D03*
X553500Y34800D03*
X528100Y60200D03*
X502700Y60200D03*
X477300Y60200D03*
X451900Y60200D03*
X426500Y60200D03*
X401100Y60200D03*
X528100Y34800D03*
X502700Y34800D03*
X477300Y34800D03*
X451900Y34800D03*
X426500Y34800D03*
X401100Y34800D03*
X375700Y60200D03*
X375700Y34800D03*
X350300Y60200D03*
X324900Y60200D03*
X299500Y60200D03*
X350300Y34800D03*
X324900Y34800D03*
X299500Y34800D03*
X274100Y60200D03*
X274100Y34800D03*
D25*
X742290Y15940D03*
X742290Y35940D03*
X762290Y15940D03*
X762290Y35940D03*
D26*
X82500Y205000D03*
X82500Y180108D03*
X82500Y160042D03*
X82500Y134896D03*
X55322Y205000D03*
X55322Y180108D03*
X55322Y160042D03*
X55322Y134896D03*
D27*
X29160Y235734D03*
X29160Y104416D03*
X86056Y235734D03*
X86056Y104416D03*
D28*
X703084Y229806D03*
X608088Y229806D03*
D29*
X747516Y203878D03*
X747516Y186878D03*
D30*
X1090587Y259365D02*
X1090587Y266415D01*
X1097637Y266415D01*
X1097637Y259365D01*
X1090587Y259365D01*
X1090587Y263133D02*
X1097637Y263133D01*
X1073047Y266415D02*
X1073047Y259365D01*
X1073047Y266415D02*
X1080097Y266415D01*
X1080097Y259365D01*
X1073047Y259365D01*
X1073047Y263133D02*
X1080097Y263133D01*
D31*
X1058282Y262636D03*
X1041282Y262636D03*
D32*
X759397Y63656D03*
X759397Y70156D03*
X759397Y76656D03*
X759397Y83156D03*
X732092Y83156D03*
X732092Y76656D03*
X732092Y70156D03*
X732092Y63656D03*
D30*
X1089825Y85121D02*
X1089825Y92171D01*
X1096875Y92171D01*
X1096875Y85121D01*
X1089825Y85121D01*
X1089825Y88889D02*
X1096875Y88889D01*
X1072285Y92171D02*
X1072285Y85121D01*
X1072285Y92171D02*
X1079335Y92171D01*
X1079335Y85121D01*
X1072285Y85121D01*
X1072285Y88889D02*
X1079335Y88889D01*
D31*
X1059298Y86614D03*
X1042298Y86614D03*
D33*
X829970Y219266D03*
X839470Y219266D03*
X848970Y219266D03*
X848970Y248603D03*
X839470Y248603D03*
X829970Y248603D03*
D34*
X828802Y22365D03*
X828802Y88379D03*
X911352Y19571D03*
X911352Y85585D03*
X997712Y19571D03*
X997712Y85585D03*
D35*
X747268Y287782D02*
X732028Y287782D01*
X732028Y313182D02*
X747268Y313182D01*
X92202Y302768D02*
X76962Y302768D01*
X76962Y328168D02*
X92202Y328168D01*
D36*
X729234Y166878D03*
X609600Y155956D03*
X456438Y251968D03*
D35*
X100330Y46228D02*
X85090Y46228D01*
X85090Y20828D02*
X100330Y20828D01*
X233934Y36576D02*
X249174Y36576D01*
X249174Y61976D02*
X233934Y61976D01*
X234188Y288798D02*
X249428Y288798D01*
X249428Y314198D02*
X234188Y314198D01*
D36*
X754634Y158750D03*
X744474Y230378D03*
M02*
