M48
;GenerationSoftware,Autodesk,EAGLE,9.6.2*%
;CreationDate,2020-10-21T01:18:07Z*%
FMAT,2
ICI,OFF
METRIC,TZ,000.000
T9C0.300
T8C0.350
T7C0.900
T6C0.914
T5C1.016
T4C1.020
T3C2.000
T2C2.200
T1C2.311
%
G90
M71
T1
X8606Y23573
X2916Y10442
X2916Y23573
X8606Y10442
T2
X36000Y17000
T3
X105664Y4445
X105664Y30480
X6000Y27000
X6000Y7000
T4
X15835Y31392
X12949Y3959
X18029Y3959
X15489Y3959
X20569Y3959
X20915Y31392
X18375Y31392
X13295Y31392
T5
X24181Y31420
X75463Y15875
X32490Y3480
X60430Y28730
X70590Y31270
X68050Y31270
X65510Y31270
X62970Y31270
X60430Y31270
X57890Y31270
X70590Y28730
X68050Y28730
X65510Y28730
X62970Y28730
X57890Y28730
X55350Y31270
X55350Y28730
X52810Y31270
X50270Y31270
X47730Y31270
X45190Y31270
X42650Y31270
X40110Y31270
X52810Y28730
X50270Y28730
X47730Y28730
X45190Y28730
X42650Y28730
X40110Y28730
X37570Y31270
X37570Y28730
X35030Y31270
X32490Y31270
X29950Y31270
X35030Y28730
X32490Y28730
X29950Y28730
X27410Y31270
X27410Y28730
X70590Y6020
X68050Y6020
X65510Y6020
X62970Y6020
X60430Y6020
X57890Y6020
X70590Y3480
X68050Y3480
X65510Y3480
X62970Y3480
X60430Y3480
X57890Y3480
X55350Y6020
X55350Y3480
X52810Y6020
X50270Y6020
X47730Y6020
X45190Y6020
X42650Y6020
X40110Y6020
X52810Y3480
X50270Y3480
X47730Y3480
X45190Y3480
X42650Y3480
X40110Y3480
X37570Y6020
X37570Y3480
X35030Y6020
X32490Y6020
X29950Y6020
X35030Y3480
X29950Y3480
X27410Y6020
X27410Y3480
X74447Y23038
X73965Y28778
X73965Y31318
X8458Y30277
X8458Y32817
X72923Y16688
X60960Y15596
X45644Y25197
X9271Y4623
X9271Y2083
X24155Y3658
X24155Y6198
X24181Y28880
T6
X8250Y20500
X8250Y18011
X8250Y16004
X8250Y13490
X5532Y20500
X5532Y18011
X5532Y16004
X5532Y13490
T7
X74229Y3594
X76229Y1594
X76229Y3594
X74229Y1594
T8
X84938Y8128
X72034Y26492
X37236Y15342
X49225Y26518
X37576Y19949
X70587Y26598
T9
X65227Y8001
X62255Y4496
X46482Y3962
X73000Y686
X66827Y12725
X68199Y12725
X78867Y8534
X59055Y17297
X103099Y26213
X103861Y9677
X35738Y12878
X33325Y15443
X37186Y10820
X96622Y26365
X42824Y32614
X47625Y32690
X74219Y8230
X81077Y22708
X72847Y1905
X86563Y3734
X85801Y2972
X16916Y16002
X25070Y25222
X41758Y32614
X57302Y29870
X82906Y23089
X84811Y23012
X84506Y26746
X83744Y27508
X54940Y11963
X55702Y12725
X98146Y9677
X97384Y10439
X79019Y13716
X75057Y13792
X72161Y14453
X65684Y13564
X63094Y8611
X65989Y8001
X75209Y10592
X87020Y8915
X89002Y16459
X84963Y23774
X80315Y22708
X82525Y20650
X52197Y10897
X52883Y15697
X36271Y13487
X35433Y14630
X45034Y10516
X69418Y20726
X72085Y2667
X73228Y19888
X83134Y7087
X91211Y27889
X81001Y12497
X75895Y11049
X10058Y15011
X14249Y24384
X33198Y17094
X34519Y13259
X14630Y10973
X109423Y27508
X108966Y9830
X103099Y24841
X54254Y17907
X55016Y18669
X52349Y21641
X49378Y32385
X73762Y18745
X68885Y18059
X91592Y31928
X83972Y23012
X83668Y32842
X91973Y26289
X77648Y8153
X94107Y10439
X63703Y8001
X64465Y8763
X81839Y22708
X81305Y24689
X82067Y25451
X85649Y21641
X75819Y14326
X70409Y8077
X69647Y7315
X48463Y15773
X49606Y15697
X66827Y14427
X69113Y14427
X47701Y15773
X45872Y17602
X43536Y21412
X46101Y29870
X58293Y33452
X17831Y27813
X48997Y18364
X47625Y18440
X49530Y21793
X69952Y19736
X69190Y18974
X65075Y10973
X82144Y2972
X90145Y2667
X69952Y13030
X52654Y17526
X59284Y13030
X68885Y5029
X85268Y9449
X18440Y28423
X56464Y4191
X32614Y11049
X22250Y23393
X53340Y7391
X30861Y23851
X12268Y16231
X11278Y16764
X16764Y26213
X36855Y14453
X47854Y13183
X60350Y24765
X13183Y27661
X52807Y33299
X11049Y29794
X60274Y33452
X61722Y25451
X16637Y29921
X17018Y32995
X47930Y22250
X48997Y23317
X56845Y21869
X56159Y23546
X46634Y15850
X52273Y26441
X59588Y24765
X55931Y27051
X40132Y15367
X51054Y26365
X57836Y25756
X56540Y26518
X51359Y29489
X51283Y33299
X11201Y27965
X10135Y26899
X54178Y26670
X11201Y28727
X12421Y27508
X75057Y24994
X58141Y13411
X60350Y25527
X53569Y27737
X50902Y27127
X48692Y27584
X58293Y17297
X70790Y20574
X73457Y20879
X75057Y12725
M30