G04 EAGLE Gerber RS-274X export*
G75*
%MOMM*%
%FSLAX34Y34*%
%LPD*%
%INSoldermask Top*%
%IPPOS*%
%AMOC8*
5,1,8,0,0,1.08239X$1,22.5*%
G01*
%ADD10R,1.601600X1.401600*%
%ADD11R,1.251600X0.751600*%
%ADD12R,1.401600X0.551600*%
%ADD13R,1.801600X1.501600*%
%ADD14R,0.901600X0.641600*%
%ADD15R,1.301600X1.501600*%
%ADD16R,1.631600X1.631600*%
%ADD17C,1.631600*%
%ADD18R,0.901600X1.301600*%
%ADD19R,2.101600X2.101600*%
%ADD20R,1.401600X1.601600*%
%ADD21P,1.759533X8X22.500000*%
%ADD22R,0.762000X1.371600*%
%ADD23R,0.736600X1.371600*%
%ADD24C,1.509600*%
%ADD25C,1.524000*%
%ADD26C,3.429000*%
%ADD27R,1.101600X1.501600*%
%ADD28R,1.101600X1.201600*%
%ADD29R,1.301600X0.901600*%
%ADD30R,1.143000X2.362200*%
%ADD31R,1.143000X1.193800*%
%ADD32R,5.613400X2.108200*%
%ADD33R,1.201600X1.101600*%
%ADD34C,0.396575*%
%ADD35R,1.270000X1.701800*%
%ADD36R,0.152400X1.828800*%
%ADD37R,1.079500X0.533400*%
%ADD38R,1.151600X1.181600*%


D10*
X863734Y148506D03*
X863734Y129506D03*
X838388Y148036D03*
X838388Y129036D03*
D11*
X900700Y201950D03*
X900700Y176550D03*
X900700Y151150D03*
X900700Y214650D03*
X900700Y189250D03*
X900700Y163850D03*
D12*
X922400Y237100D03*
X942400Y237100D03*
D13*
X1038000Y235450D03*
X1038000Y113350D03*
D12*
X942400Y111700D03*
X922400Y111700D03*
D14*
X1032200Y149000D03*
X1032200Y199800D03*
D15*
X943150Y336134D03*
X973150Y336134D03*
X856900Y336350D03*
X886900Y336350D03*
X766900Y335550D03*
X796900Y335550D03*
D16*
X209400Y300200D03*
D17*
X184000Y300200D03*
X158600Y300200D03*
X133200Y300200D03*
D18*
X747550Y335550D03*
X729550Y335550D03*
X838450Y336650D03*
X820450Y336650D03*
X925950Y337250D03*
X907950Y337250D03*
X811972Y103722D03*
X829972Y103722D03*
D19*
X820180Y80750D03*
X820180Y20750D03*
D20*
X897280Y256540D03*
X916280Y256540D03*
D16*
X210000Y40000D03*
D17*
X184600Y40000D03*
X159200Y40000D03*
X133800Y40000D03*
D10*
X244822Y98846D03*
X244822Y79846D03*
D18*
X861420Y93830D03*
X879420Y93830D03*
D19*
X902840Y80250D03*
X902840Y20250D03*
D18*
X941232Y93736D03*
X959232Y93736D03*
D19*
X981590Y81012D03*
X981590Y21012D03*
D21*
X274100Y34800D03*
X299500Y34800D03*
X324900Y34800D03*
X350300Y34800D03*
X375700Y34800D03*
X401100Y34800D03*
X274100Y60200D03*
X299500Y60200D03*
X324900Y60200D03*
X350300Y60200D03*
X375700Y60200D03*
X401100Y60200D03*
X426500Y34800D03*
X426500Y60200D03*
X451900Y34800D03*
X477300Y34800D03*
X502700Y34800D03*
X528100Y34800D03*
X553500Y34800D03*
X578900Y34800D03*
X451900Y60200D03*
X477300Y60200D03*
X502700Y60200D03*
X528100Y60200D03*
X553500Y60200D03*
X578900Y60200D03*
X604300Y34800D03*
X604300Y60200D03*
X629700Y34800D03*
X655100Y34800D03*
X680500Y34800D03*
X629700Y60200D03*
X655100Y60200D03*
X680500Y60200D03*
X705900Y34800D03*
X705900Y60200D03*
X274100Y287300D03*
X299500Y287300D03*
X324900Y287300D03*
X350300Y287300D03*
X375700Y287300D03*
X401100Y287300D03*
X274100Y312700D03*
X299500Y312700D03*
X324900Y312700D03*
X350300Y312700D03*
X375700Y312700D03*
X401100Y312700D03*
X426500Y287300D03*
X426500Y312700D03*
X451900Y287300D03*
X477300Y287300D03*
X502700Y287300D03*
X528100Y287300D03*
X553500Y287300D03*
X578900Y287300D03*
X451900Y312700D03*
X477300Y312700D03*
X502700Y312700D03*
X528100Y312700D03*
X553500Y312700D03*
X578900Y312700D03*
X604300Y287300D03*
X604300Y312700D03*
X629700Y287300D03*
X655100Y287300D03*
X680500Y287300D03*
X629700Y312700D03*
X655100Y312700D03*
X680500Y312700D03*
X705900Y287300D03*
X705900Y312700D03*
D22*
X838190Y224640D03*
D23*
X857190Y224640D03*
X838190Y250940D03*
X847690Y250940D03*
X857190Y250940D03*
D24*
X751688Y12384D03*
X751688Y32384D03*
X771688Y12384D03*
X771688Y32384D03*
D25*
X82500Y205000D03*
X82500Y180108D03*
X82500Y160042D03*
X82500Y134896D03*
X55322Y205000D03*
X55322Y180108D03*
X55322Y160042D03*
X55322Y134896D03*
D26*
X29160Y235734D03*
X29160Y104416D03*
X86056Y235734D03*
X86056Y104416D03*
D18*
X418460Y162904D03*
X436460Y162904D03*
X417698Y181806D03*
X435698Y181806D03*
D27*
X580888Y114188D03*
X590388Y92188D03*
X571388Y92188D03*
X676900Y113610D03*
X686400Y91610D03*
X667400Y91610D03*
D10*
X609952Y110014D03*
X609952Y91014D03*
X732266Y99536D03*
X732266Y118536D03*
X711896Y118650D03*
X711896Y99650D03*
D28*
X649852Y108466D03*
X649852Y91466D03*
X554326Y93464D03*
X554326Y110464D03*
X633390Y108720D03*
X633390Y91720D03*
X537792Y93464D03*
X537792Y110464D03*
D29*
X159586Y232790D03*
X159586Y250790D03*
X159280Y199262D03*
X159280Y217262D03*
X158780Y180976D03*
X158780Y162976D03*
X158324Y145416D03*
X158324Y127416D03*
D30*
G36*
X1003973Y291097D02*
X996222Y299497D01*
X1013581Y315515D01*
X1021332Y307115D01*
X1003973Y291097D01*
G37*
G36*
X1023918Y269483D02*
X1016167Y277883D01*
X1033526Y293901D01*
X1041277Y285501D01*
X1023918Y269483D01*
G37*
D31*
G36*
X1006509Y273429D02*
X998758Y281828D01*
X1007531Y289923D01*
X1015282Y281524D01*
X1006509Y273429D01*
G37*
D10*
X504924Y111604D03*
X504924Y92604D03*
D32*
X704354Y225996D03*
X609358Y225996D03*
D28*
X618160Y168446D03*
X618160Y185446D03*
X744722Y214292D03*
X744722Y197292D03*
X597200Y184574D03*
X597200Y167574D03*
D18*
X122008Y223094D03*
X140008Y223094D03*
X120484Y192920D03*
X138484Y192920D03*
X119976Y162492D03*
X137976Y162492D03*
X119722Y133080D03*
X137722Y133080D03*
X456350Y107914D03*
X438350Y107914D03*
D33*
X968422Y288844D03*
X951422Y288844D03*
X965882Y257310D03*
X948882Y257310D03*
D28*
X985932Y278920D03*
X985932Y261920D03*
D33*
X1021040Y258650D03*
X1004040Y258650D03*
D34*
X935825Y312705D02*
X935825Y319755D01*
X935825Y312705D02*
X928775Y312705D01*
X928775Y319755D01*
X935825Y319755D01*
X935825Y316473D02*
X928775Y316473D01*
X953365Y319755D02*
X953365Y312705D01*
X946315Y312705D01*
X946315Y319755D01*
X953365Y319755D01*
X953365Y316473D02*
X946315Y316473D01*
D33*
X964320Y316230D03*
X981320Y316230D03*
D29*
X219964Y256142D03*
X219964Y238142D03*
X199644Y256142D03*
X199644Y238142D03*
X201930Y83202D03*
X201930Y101202D03*
X178562Y82948D03*
X178562Y100948D03*
D35*
X360680Y103886D03*
X345440Y103886D03*
D36*
X353060Y103886D03*
D37*
X762699Y55020D03*
X762699Y61520D03*
X762699Y68020D03*
X762699Y74520D03*
X735394Y74520D03*
X735394Y68020D03*
X735394Y61520D03*
X735394Y55020D03*
D30*
G36*
X1040645Y65426D02*
X1048426Y73799D01*
X1065729Y57720D01*
X1057948Y49347D01*
X1040645Y65426D01*
G37*
G36*
X1020625Y43882D02*
X1028406Y52255D01*
X1045709Y36176D01*
X1037928Y27803D01*
X1020625Y43882D01*
G37*
D31*
G36*
X1023224Y61542D02*
X1031004Y69914D01*
X1039748Y61788D01*
X1031968Y53416D01*
X1023224Y61542D01*
G37*
D33*
X1053964Y92456D03*
X1036964Y92456D03*
D38*
X1022464Y92710D03*
X1004964Y92710D03*
M02*
